SplineFontDB: 3.0
FontName: Siilvik-Bold
FullName: Siilvik Bold
FamilyName: Siilvik
Weight: Bold
Copyright: (c) 2015 Microsoft Corporation (www.microsoft.com), with Reserved Font Name Selawik. Selawik is a trademark of Microsoft Corporation in the United States and/or other countries.
Version: 1.00
ItalicAngle: 0
UnderlinePosition: -100
UnderlineWidth: 50
Ascent: 1638
Descent: 410
InvalidEm: 0
sfntRevision: 0x00010000
LayerCount: 2
Layer: 0 1 "Back" 1
Layer: 1 1 "Fore" 0
XUID: [1021 564 1990902961 7045989]
FSType: 0
OS2Version: 4
OS2_WeightWidthSlopeOnly: 0
OS2_UseTypoMetrics: 0
CreationTime: 1428098003
ModificationTime: 1493363707
PfmFamily: 17
TTFWeight: 700
TTFWidth: 5
LineGap: 0
VLineGap: 0
Panose: 2 11 8 2 4 2 4 2 2 3
OS2TypoAscent: 1491
OS2TypoAOffset: 0
OS2TypoDescent: -431
OS2TypoDOffset: 0
OS2TypoLinegap: 269
OS2WinAscent: 2210
OS2WinAOffset: 0
OS2WinDescent: 514
OS2WinDOffset: 0
HheadAscent: 2027
HheadAOffset: 0
HheadDescent: -431
HheadDOffset: 0
OS2SubXSize: 1331
OS2SubYSize: 1228
OS2SubXOff: 0
OS2SubYOff: 153
OS2SupXSize: 1331
OS2SupYSize: 1228
OS2SupXOff: 0
OS2SupYOff: 716
OS2StrikeYSize: 50
OS2StrikeYPos: 584
OS2CapHeight: 1434
OS2XHeight: 1024
OS2FamilyClass: 2053
OS2Vendor: 'MS  '
OS2CodePages: 20000093.00000000
OS2UnicodeRanges: 00000007.00000000.00000000.00000000
Lookup: 1 0 0 "'aalt' Access All Alternates in Latin lookup 0" { "'aalt' Access All Alternates in Latin lookup 0 subtable"  } ['aalt' ('DFLT' <'dflt' > 'latn' <'AZE ' 'CAT ' 'CRT ' 'KAZ ' 'MOL ' 'ROM ' 'TAT ' 'TRK ' 'dflt' > ) ]
Lookup: 3 0 0 "'aalt' Access All Alternates in Latin lookup 1" { "'aalt' Access All Alternates in Latin lookup 1 subtable"  } ['aalt' ('DFLT' <'dflt' > 'latn' <'AZE ' 'CAT ' 'CRT ' 'KAZ ' 'MOL ' 'ROM ' 'TAT ' 'TRK ' 'dflt' > ) ]

StartChar: A
Encoding: 65 65 2
Width: 1440
GlyphClass: 2
Flags: W
AnchorPoint: "Anchor-3" 0 0 basechar 0
AnchorPoint: "Anchor-2" 720 1384 basechar 0
AnchorPoint: "Anchor-1" 720 0 basechar 0
AnchorPoint: "Anchor-0" 1296 10 basechar 0
LayerCount: 2
Back
Fore
SplineSet
997 260 m 1,0,-1
 430 260 l 1,1,-1
 348 0 l 1,2,-1
 10 0 l 1,3,-1
 532 1434 l 1,4,-1
 914 1434 l 1,5,-1
 1425 0 l 1,6,-1
 1080 0 l 1,7,-1
 997 260 l 1,0,-1
922 496 m 1,8,-1
 739 1073 l 2,9,10
 735 1089 735 1089 728 1117.5 c 128,-1,11
 721 1146 721 1146 716 1169 c 1,12,-1
 712 1169 l 1,13,14
 710 1154 710 1154 701 1118 c 128,-1,15
 692 1082 692 1082 688 1073 c 2,16,-1
 505 496 l 1,17,-1
 922 496 l 1,8,-1
EndSplineSet
EndChar

StartChar: Aacute
Encoding: 193 193 3
Width: 1440
GlyphClass: 2
Flags: W
AnchorPoint: "Anchor-3" 0 0 basechar 0
AnchorPoint: "Anchor-2" 779 1919 basechar 0
AnchorPoint: "Anchor-1" 720 0 basechar 0
AnchorPoint: "Anchor-0" 1296 10 basechar 0
LayerCount: 2
Back
Fore
SplineSet
874 1596 m 1,0,-1
 556 1596 l 1,1,-1
 786 1829 l 1,2,-1
 1157 1829 l 1,3,-1
 874 1596 l 1,0,-1
997 260 m 1,4,-1
 430 260 l 1,5,-1
 348 0 l 1,6,-1
 10 0 l 1,7,-1
 532 1434 l 1,8,-1
 914 1434 l 1,9,-1
 1425 0 l 1,10,-1
 1080 0 l 1,11,-1
 997 260 l 1,4,-1
922 496 m 1,12,-1
 739 1073 l 2,13,14
 735 1089 735 1089 728 1117.5 c 128,-1,15
 721 1146 721 1146 716 1169 c 1,16,-1
 712 1169 l 1,17,18
 710 1154 710 1154 701 1118 c 128,-1,19
 692 1082 692 1082 688 1073 c 2,20,-1
 505 496 l 1,21,-1
 922 496 l 1,12,-1
EndSplineSet
EndChar

StartChar: Abreve
Encoding: 258 258 4
Width: 1440
GlyphClass: 2
Flags: W
AnchorPoint: "Anchor-3" 0 0 basechar 0
AnchorPoint: "Anchor-2" 722 1903 basechar 0
AnchorPoint: "Anchor-1" 720 0 basechar 0
AnchorPoint: "Anchor-0" 1296 10 basechar 0
LayerCount: 2
Back
Fore
SplineSet
455.5 1652.5 m 128,-1,1
 367 1719 367 1719 363 1853 c 1,2,-1
 572 1853 l 1,3,4
 587 1768 587 1768 721 1768 c 0,5,6
 848 1768 848 1768 867 1853 c 1,7,-1
 1077 1853 l 1,8,9
 1063 1719 1063 1719 973.5 1652.5 c 128,-1,10
 884 1586 884 1586 717 1586 c 0,11,0
 544 1586 544 1586 455.5 1652.5 c 128,-1,1
997 260 m 1,12,-1
 430 260 l 1,13,-1
 348 0 l 1,14,-1
 10 0 l 1,15,-1
 532 1434 l 1,16,-1
 914 1434 l 1,17,-1
 1425 0 l 1,18,-1
 1080 0 l 1,19,-1
 997 260 l 1,12,-1
922 496 m 1,20,-1
 739 1073 l 2,21,22
 735 1089 735 1089 728 1117.5 c 128,-1,23
 721 1146 721 1146 716 1169 c 1,24,-1
 712 1169 l 1,25,26
 710 1154 710 1154 701 1118 c 128,-1,27
 692 1082 692 1082 688 1073 c 2,28,-1
 505 496 l 1,29,-1
 922 496 l 1,20,-1
EndSplineSet
EndChar

StartChar: Acircumflex
Encoding: 194 194 5
Width: 1440
GlyphClass: 2
Flags: W
AnchorPoint: "Anchor-3" 0 0 basechar 0
AnchorPoint: "Anchor-2" 722 1921 basechar 0
AnchorPoint: "Anchor-1" 720 0 basechar 0
AnchorPoint: "Anchor-0" 1296 10 basechar 0
LayerCount: 2
Back
Fore
SplineSet
565 1596 m 1,0,-1
 308 1596 l 1,1,-1
 593 1861 l 1,2,-1
 841 1861 l 1,3,-1
 1137 1596 l 1,4,-1
 880 1596 l 1,5,-1
 712 1734 l 1,6,-1
 565 1596 l 1,0,-1
997 260 m 1,7,-1
 430 260 l 1,8,-1
 348 0 l 1,9,-1
 10 0 l 1,10,-1
 532 1434 l 1,11,-1
 914 1434 l 1,12,-1
 1425 0 l 1,13,-1
 1080 0 l 1,14,-1
 997 260 l 1,7,-1
922 496 m 1,15,-1
 739 1073 l 2,16,17
 735 1089 735 1089 728 1117.5 c 128,-1,18
 721 1146 721 1146 716 1169 c 1,19,-1
 712 1169 l 1,20,21
 710 1154 710 1154 701 1118 c 128,-1,22
 692 1082 692 1082 688 1073 c 2,23,-1
 505 496 l 1,24,-1
 922 496 l 1,15,-1
EndSplineSet
EndChar

StartChar: Adieresis
Encoding: 196 196 6
Width: 1440
GlyphClass: 2
Flags: W
AnchorPoint: "Anchor-3" 0 0 basechar 0
AnchorPoint: "Anchor-2" 722 1870 basechar 0
AnchorPoint: "Anchor-1" 720 0 basechar 0
AnchorPoint: "Anchor-0" 1296 10 basechar 0
LayerCount: 2
Back
Fore
SplineSet
366.5 1621.5 m 128,-1,1
 322 1661 322 1661 322 1733 c 256,2,3
 322 1805 322 1805 366.5 1844.5 c 128,-1,4
 411 1884 411 1884 491 1884 c 256,5,6
 571 1884 571 1884 615 1844.5 c 128,-1,7
 659 1805 659 1805 659 1733 c 256,8,9
 659 1661 659 1661 615 1621.5 c 128,-1,10
 571 1582 571 1582 491 1582 c 256,11,0
 411 1582 411 1582 366.5 1621.5 c 128,-1,1
825 1621.5 m 128,-1,13
 781 1661 781 1661 781 1733 c 256,14,15
 781 1805 781 1805 825 1844.5 c 128,-1,16
 869 1884 869 1884 949 1884 c 256,17,18
 1029 1884 1029 1884 1073.5 1844.5 c 128,-1,19
 1118 1805 1118 1805 1118 1733 c 256,20,21
 1118 1661 1118 1661 1073.5 1621.5 c 128,-1,22
 1029 1582 1029 1582 949 1582 c 256,23,12
 869 1582 869 1582 825 1621.5 c 128,-1,13
997 260 m 1,24,-1
 430 260 l 1,25,-1
 348 0 l 1,26,-1
 10 0 l 1,27,-1
 532 1434 l 1,28,-1
 914 1434 l 1,29,-1
 1425 0 l 1,30,-1
 1080 0 l 1,31,-1
 997 260 l 1,24,-1
922 496 m 1,32,-1
 739 1073 l 2,33,34
 735 1089 735 1089 728 1117.5 c 128,-1,35
 721 1146 721 1146 716 1169 c 1,36,-1
 712 1169 l 1,37,38
 710 1154 710 1154 701 1118 c 128,-1,39
 692 1082 692 1082 688 1073 c 2,40,-1
 505 496 l 1,41,-1
 922 496 l 1,32,-1
EndSplineSet
EndChar

StartChar: Agrave
Encoding: 192 192 7
Width: 1440
GlyphClass: 2
Flags: W
AnchorPoint: "Anchor-3" 0 0 basechar 0
AnchorPoint: "Anchor-2" 562 1919 basechar 0
AnchorPoint: "Anchor-1" 720 0 basechar 0
AnchorPoint: "Anchor-0" 1296 10 basechar 0
LayerCount: 2
Back
Fore
SplineSet
553 1596 m 1,0,-1
 329 1819 l 1,1,-1
 680 1819 l 1,2,-1
 870 1596 l 1,3,-1
 553 1596 l 1,0,-1
997 260 m 1,4,-1
 430 260 l 1,5,-1
 348 0 l 1,6,-1
 10 0 l 1,7,-1
 532 1434 l 1,8,-1
 914 1434 l 1,9,-1
 1425 0 l 1,10,-1
 1080 0 l 1,11,-1
 997 260 l 1,4,-1
922 496 m 1,12,-1
 739 1073 l 2,13,14
 735 1089 735 1089 728 1117.5 c 128,-1,15
 721 1146 721 1146 716 1169 c 1,16,-1
 712 1169 l 1,17,18
 710 1154 710 1154 701 1118 c 128,-1,19
 692 1082 692 1082 688 1073 c 2,20,-1
 505 496 l 1,21,-1
 922 496 l 1,12,-1
EndSplineSet
EndChar

StartChar: Amacron
Encoding: 256 256 8
Width: 1440
GlyphClass: 2
Flags: W
AnchorPoint: "Anchor-3" 0 0 basechar 0
AnchorPoint: "Anchor-2" 722 1926 basechar 0
AnchorPoint: "Anchor-1" 720 0 basechar 0
AnchorPoint: "Anchor-0" 1296 10 basechar 0
LayerCount: 2
Back
Fore
SplineSet
1085 1599 m 1,0,-1
 355 1599 l 1,1,-1
 355 1819 l 1,2,-1
 1085 1819 l 1,3,-1
 1085 1599 l 1,0,-1
997 260 m 1,4,-1
 430 260 l 1,5,-1
 348 0 l 1,6,-1
 10 0 l 1,7,-1
 532 1434 l 1,8,-1
 914 1434 l 1,9,-1
 1425 0 l 1,10,-1
 1080 0 l 1,11,-1
 997 260 l 1,4,-1
922 496 m 1,12,-1
 739 1073 l 2,13,14
 735 1089 735 1089 728 1117.5 c 128,-1,15
 721 1146 721 1146 716 1169 c 1,16,-1
 712 1169 l 1,17,18
 710 1154 710 1154 701 1118 c 128,-1,19
 692 1082 692 1082 688 1073 c 2,20,-1
 505 496 l 1,21,-1
 922 496 l 1,12,-1
EndSplineSet
EndChar

StartChar: Aogonek
Encoding: 260 260 9
Width: 1440
GlyphClass: 2
Flags: W
AnchorPoint: "Anchor-3" 0 0 basechar 0
AnchorPoint: "Anchor-2" 720 1384 basechar 0
AnchorPoint: "Anchor-1" 720 0 basechar 0
AnchorPoint: "Anchor-0" 1296 10 basechar 0
LayerCount: 2
Back
Fore
SplineSet
1352 -212 m 1,1,-1
 1382 -400 l 1,2,3
 1284 -419 1284 -419 1166 -419 c 0,4,5
 1072 -419 1072 -419 1020.5 -371 c 128,-1,6
 969 -323 969 -323 969 -235 c 0,7,8
 969 -167 969 -167 998 -105 c 128,-1,9
 1027 -43 1027 -43 1080 0 c 1,10,-1
 997 260 l 1,11,-1
 430 260 l 1,12,-1
 348 0 l 1,13,-1
 10 0 l 1,14,-1
 532 1434 l 1,15,-1
 914 1434 l 1,16,-1
 1425 0 l 1,17,18
 1316 -33 1316 -33 1256.5 -71.5 c 128,-1,19
 1197 -110 1197 -110 1197 -148 c 0,20,21
 1197 -184 1197 -184 1221.5 -204 c 128,-1,22
 1246 -224 1246 -224 1290 -224 c 0,23,0
 1321 -224 1321 -224 1352 -212 c 1,1,-1
922 496 m 1,24,-1
 739 1073 l 2,25,26
 735 1089 735 1089 728 1117.5 c 128,-1,27
 721 1146 721 1146 716 1169 c 1,28,-1
 712 1169 l 1,29,30
 710 1154 710 1154 701 1118 c 128,-1,31
 692 1082 692 1082 688 1073 c 2,32,-1
 505 496 l 1,33,-1
 922 496 l 1,24,-1
EndSplineSet
EndChar

StartChar: Aring
Encoding: 197 197 10
Width: 1440
GlyphClass: 2
Flags: W
AnchorPoint: "Anchor-3" 0 0 basechar 0
AnchorPoint: "Anchor-2" 721 1919 basechar 0
AnchorPoint: "Anchor-1" 720 0 basechar 0
AnchorPoint: "Anchor-0" 1296 10 basechar 0
LayerCount: 2
Back
Fore
SplineSet
595 1605 m 128,-1,1
 541 1633 541 1633 510.5 1682 c 128,-1,2
 480 1731 480 1731 480 1792 c 0,3,4
 480 1854 480 1854 511.5 1904.5 c 128,-1,5
 543 1955 543 1955 597.5 1984 c 128,-1,6
 652 2013 652 2013 720 2013 c 0,7,8
 787 2013 787 2013 841.5 1985 c 128,-1,9
 896 1957 896 1957 927.5 1908 c 128,-1,10
 959 1859 959 1859 959 1798 c 0,11,12
 959 1736 959 1736 927 1685.5 c 128,-1,13
 895 1635 895 1635 839.5 1606 c 128,-1,14
 784 1577 784 1577 715 1577 c 0,15,0
 649 1577 649 1577 595 1605 c 128,-1,1
662.5 1849 m 128,-1,17
 639 1828 639 1828 639 1796 c 256,18,19
 639 1764 639 1764 662.5 1743 c 128,-1,20
 686 1722 686 1722 721 1722 c 0,21,22
 754 1722 754 1722 776 1743 c 128,-1,23
 798 1764 798 1764 798 1796 c 256,24,25
 798 1828 798 1828 776 1849 c 128,-1,26
 754 1870 754 1870 721 1870 c 0,27,16
 686 1870 686 1870 662.5 1849 c 128,-1,17
997 260 m 1,28,-1
 430 260 l 1,29,-1
 348 0 l 1,30,-1
 10 0 l 1,31,-1
 532 1434 l 1,32,-1
 914 1434 l 1,33,-1
 1425 0 l 1,34,-1
 1080 0 l 1,35,-1
 997 260 l 1,28,-1
922 496 m 1,36,-1
 739 1073 l 2,37,38
 735 1089 735 1089 728 1117.5 c 128,-1,39
 721 1146 721 1146 716 1169 c 1,40,-1
 712 1169 l 1,41,42
 710 1154 710 1154 701 1118 c 128,-1,43
 692 1082 692 1082 688 1073 c 2,44,-1
 505 496 l 1,45,-1
 922 496 l 1,36,-1
EndSplineSet
EndChar

StartChar: Atilde
Encoding: 195 195 11
Width: 1440
GlyphClass: 2
Flags: W
AnchorPoint: "Anchor-3" 0 0 basechar 0
AnchorPoint: "Anchor-2" 722 1907 basechar 0
AnchorPoint: "Anchor-1" 720 0 basechar 0
AnchorPoint: "Anchor-0" 1296 10 basechar 0
LayerCount: 2
Back
Fore
SplineSet
551 1596 m 1,1,-1
 370 1596 l 1,2,3
 370 1735 370 1735 425 1812 c 128,-1,4
 480 1889 480 1889 579 1889 c 0,5,6
 614 1889 614 1889 649.5 1875.5 c 128,-1,7
 685 1862 685 1862 733 1837 c 0,8,9
 777 1815 777 1815 800.5 1805.5 c 128,-1,10
 824 1796 824 1796 847 1796 c 0,11,12
 915 1796 915 1796 915 1887 c 1,13,-1
 1089 1887 l 1,14,15
 1089 1748 1089 1748 1034 1671 c 128,-1,16
 979 1594 979 1594 882 1594 c 0,17,18
 851 1594 851 1594 815.5 1608 c 128,-1,19
 780 1622 780 1622 729 1647 c 0,20,21
 723 1650 723 1650 699 1661.5 c 128,-1,22
 675 1673 675 1673 658.5 1678.5 c 128,-1,23
 642 1684 642 1684 631 1684 c 0,24,0
 551 1684 551 1684 551 1596 c 1,1,-1
997 260 m 1,25,-1
 430 260 l 1,26,-1
 348 0 l 1,27,-1
 10 0 l 1,28,-1
 532 1434 l 1,29,-1
 914 1434 l 1,30,-1
 1425 0 l 1,31,-1
 1080 0 l 1,32,-1
 997 260 l 1,25,-1
922 496 m 1,33,-1
 739 1073 l 2,34,35
 735 1089 735 1089 728 1117.5 c 128,-1,36
 721 1146 721 1146 716 1169 c 1,37,-1
 712 1169 l 1,38,39
 710 1154 710 1154 701 1118 c 128,-1,40
 692 1082 692 1082 688 1073 c 2,41,-1
 505 496 l 1,42,-1
 922 496 l 1,33,-1
EndSplineSet
EndChar

StartChar: AE
Encoding: 198 198 12
Width: 1915
GlyphClass: 2
Flags: W
AnchorPoint: "Anchor-3" 0 0 basechar 0
AnchorPoint: "Anchor-2" 1400 1384 basechar 0
AnchorPoint: "Anchor-1" 1370 0 basechar 0
AnchorPoint: "Anchor-0" 1760 10 basechar 0
LayerCount: 2
Back
Fore
SplineSet
1849 252 m 1,0,-1
 1849 0 l 1,1,-1
 989 0 l 1,2,-1
 989 290 l 1,3,-1
 496 290 l 1,4,-1
 336 0 l 1,5,-1
 -2 0 l 1,6,-1
 829 1434 l 1,7,-1
 1817 1434 l 1,8,-1
 1817 1181 l 1,9,-1
 1303 1181 l 1,10,-1
 1303 853 l 1,11,-1
 1755 853 l 1,12,-1
 1755 597 l 1,13,-1
 1303 597 l 1,14,-1
 1303 252 l 1,15,-1
 1849 252 l 1,0,-1
989 526 m 1,16,-1
 989 1181 l 1,17,-1
 627 526 l 1,18,-1
 989 526 l 1,16,-1
EndSplineSet
EndChar

StartChar: B
Encoding: 66 66 13
Width: 1313
GlyphClass: 2
Flags: W
AnchorPoint: "Anchor-3" 0 0 basechar 0
AnchorPoint: "Anchor-2" 657 1434 basechar 0
AnchorPoint: "Anchor-1" 657 0 basechar 0
AnchorPoint: "Anchor-0" 0 0 basechar 0
LayerCount: 2
Back
Fore
SplineSet
164 1 m 1,0,-1
 164 1435 l 1,1,-1
 726 1435 l 2,2,3
 857 1435 857 1435 960 1396 c 128,-1,4
 1063 1357 1063 1357 1121.5 1283 c 128,-1,5
 1180 1209 1180 1209 1180 1107 c 0,6,7
 1180 984 1180 984 1101.5 894.5 c 128,-1,8
 1023 805 1023 805 882 767 c 1,9,-1
 882 763 l 1,10,11
 992 752 992 752 1073 705.5 c 128,-1,12
 1154 659 1154 659 1197.5 583.5 c 128,-1,13
 1241 508 1241 508 1241 412 c 0,14,15
 1241 288 1241 288 1174.5 194.5 c 128,-1,16
 1108 101 1108 101 993 50.5 c 128,-1,17
 878 0 878 0 736 0 c 2,18,-1
 164 1 l 1,0,-1
619 847 m 2,19,20
 728 847 728 847 789 894 c 128,-1,21
 850 941 850 941 850 1026 c 0,22,23
 850 1112 850 1112 794.5 1159 c 128,-1,24
 739 1206 739 1206 639 1206 c 2,25,-1
 477 1206 l 1,26,-1
 477 847 l 1,27,-1
 619 847 l 2,19,20
676 229 m 2,28,29
 788 229 788 229 850 282 c 128,-1,30
 912 335 912 335 912 432 c 0,31,32
 912 525 912 525 841 576 c 128,-1,33
 770 627 770 627 640 627 c 2,34,-1
 478 627 l 1,35,-1
 478 229 l 1,36,-1
 676 229 l 2,28,29
EndSplineSet
EndChar

StartChar: C
Encoding: 67 67 14
Width: 1278
GlyphClass: 2
Flags: W
AnchorPoint: "Anchor-3" 0 0 basechar 0
AnchorPoint: "Anchor-2" 719 1384 basechar 0
AnchorPoint: "Anchor-1" 639 0 basechar 0
AnchorPoint: "Anchor-0" 0 0 basechar 0
LayerCount: 2
Back
Fore
SplineSet
389 66 m 128,-1,1
 235 152 235 152 154.5 316.5 c 128,-1,2
 74 481 74 481 74 713 c 0,3,4
 74 949 74 949 166 1117 c 128,-1,5
 258 1285 258 1285 433.5 1372.5 c 128,-1,6
 609 1460 609 1460 856 1460 c 0,7,8
 928 1460 928 1460 1013 1448.5 c 128,-1,9
 1098 1437 1098 1437 1180 1416 c 1,10,-1
 1101 1131 l 1,11,12
 1054 1148 1054 1148 989.5 1157.5 c 128,-1,13
 925 1167 925 1167 854 1167 c 0,14,15
 710 1167 710 1167 607.5 1114.5 c 128,-1,16
 505 1062 505 1062 451.5 962 c 128,-1,17
 398 862 398 862 398 721 c 256,18,19
 398 580 398 580 443 480.5 c 128,-1,20
 488 381 488 381 574.5 329 c 128,-1,21
 661 277 661 277 783 277 c 0,22,23
 848 277 848 277 937.5 294 c 128,-1,24
 1027 311 1027 311 1125 343 c 1,25,-1
 1191 55 l 1,26,27
 997 -20 997 -20 760 -20 c 0,28,0
 543 -20 543 -20 389 66 c 128,-1,1
EndSplineSet
EndChar

StartChar: Cacute
Encoding: 262 262 15
Width: 1278
GlyphClass: 2
Flags: W
AnchorPoint: "Anchor-3" 0 0 basechar 0
AnchorPoint: "Anchor-2" 778 1919 basechar 0
AnchorPoint: "Anchor-1" 639 0 basechar 0
AnchorPoint: "Anchor-0" 0 0 basechar 0
LayerCount: 2
Back
Fore
SplineSet
785 1829 m 1,0,-1
 1156 1829 l 1,1,-1
 873 1596 l 1,2,-1
 555 1596 l 1,3,-1
 785 1829 l 1,0,-1
389 66 m 128,-1,5
 235 152 235 152 154.5 316.5 c 128,-1,6
 74 481 74 481 74 713 c 0,7,8
 74 949 74 949 166 1117 c 128,-1,9
 258 1285 258 1285 433.5 1372.5 c 128,-1,10
 609 1460 609 1460 856 1460 c 0,11,12
 928 1460 928 1460 1013 1448.5 c 128,-1,13
 1098 1437 1098 1437 1180 1416 c 1,14,-1
 1101 1131 l 1,15,16
 1054 1148 1054 1148 989.5 1157.5 c 128,-1,17
 925 1167 925 1167 854 1167 c 0,18,19
 710 1167 710 1167 607.5 1114.5 c 128,-1,20
 505 1062 505 1062 451.5 962 c 128,-1,21
 398 862 398 862 398 721 c 256,22,23
 398 580 398 580 443 480.5 c 128,-1,24
 488 381 488 381 574.5 329 c 128,-1,25
 661 277 661 277 783 277 c 0,26,27
 848 277 848 277 937.5 294 c 128,-1,28
 1027 311 1027 311 1125 343 c 1,29,-1
 1191 55 l 1,30,31
 997 -20 997 -20 760 -20 c 0,32,4
 543 -20 543 -20 389 66 c 128,-1,5
EndSplineSet
EndChar

StartChar: Ccaron
Encoding: 268 268 16
Width: 1278
GlyphClass: 2
Flags: W
AnchorPoint: "Anchor-3" 0 0 basechar 0
AnchorPoint: "Anchor-2" 721 1921 basechar 0
AnchorPoint: "Anchor-1" 639 0 basechar 0
AnchorPoint: "Anchor-0" 0 0 basechar 0
LayerCount: 2
Back
Fore
SplineSet
298 1831 m 1,0,-1
 563 1831 l 1,1,-1
 718 1733 l 1,2,-1
 874 1831 l 1,3,-1
 1129 1831 l 1,4,-1
 841 1596 l 1,5,-1
 593 1596 l 1,6,-1
 298 1831 l 1,0,-1
389 66 m 128,-1,8
 235 152 235 152 154.5 316.5 c 128,-1,9
 74 481 74 481 74 713 c 0,10,11
 74 949 74 949 166 1117 c 128,-1,12
 258 1285 258 1285 433.5 1372.5 c 128,-1,13
 609 1460 609 1460 856 1460 c 0,14,15
 928 1460 928 1460 1013 1448.5 c 128,-1,16
 1098 1437 1098 1437 1180 1416 c 1,17,-1
 1101 1131 l 1,18,19
 1054 1148 1054 1148 989.5 1157.5 c 128,-1,20
 925 1167 925 1167 854 1167 c 0,21,22
 710 1167 710 1167 607.5 1114.5 c 128,-1,23
 505 1062 505 1062 451.5 962 c 128,-1,24
 398 862 398 862 398 721 c 256,25,26
 398 580 398 580 443 480.5 c 128,-1,27
 488 381 488 381 574.5 329 c 128,-1,28
 661 277 661 277 783 277 c 0,29,30
 848 277 848 277 937.5 294 c 128,-1,31
 1027 311 1027 311 1125 343 c 1,32,-1
 1191 55 l 1,33,34
 997 -20 997 -20 760 -20 c 0,35,7
 543 -20 543 -20 389 66 c 128,-1,8
EndSplineSet
EndChar

StartChar: Ccedilla
Encoding: 199 199 17
Width: 1278
GlyphClass: 2
Flags: W
AnchorPoint: "Anchor-3" 0 0 basechar 0
AnchorPoint: "Anchor-2" 719 1384 basechar 0
AnchorPoint: "Anchor-1" 711 -455 basechar 0
AnchorPoint: "Anchor-0" 0 0 basechar 0
LayerCount: 2
Back
Fore
SplineSet
953 -248 m 0,1,2
 953 -455 953 -455 595 -455 c 0,3,4
 544 -455 544 -455 507 -451 c 1,5,-1
 507 -273 l 1,6,7
 542 -279 542 -279 579 -279 c 0,8,9
 629 -279 629 -279 655.5 -264 c 128,-1,10
 682 -249 682 -249 682 -226 c 0,11,12
 682 -160 682 -160 591 -160 c 1,13,-1
 570 -162 l 1,14,-1
 570 -1 l 1,15,16
 331 51 331 51 202.5 235 c 128,-1,17
 74 419 74 419 74 713 c 0,18,19
 74 949 74 949 166 1117 c 128,-1,20
 258 1285 258 1285 433.5 1372.5 c 128,-1,21
 609 1460 609 1460 856 1460 c 0,22,23
 928 1460 928 1460 1013 1448.5 c 128,-1,24
 1098 1437 1098 1437 1180 1416 c 1,25,-1
 1101 1131 l 1,26,27
 1054 1148 1054 1148 989.5 1157.5 c 128,-1,28
 925 1167 925 1167 854 1167 c 0,29,30
 710 1167 710 1167 607.5 1114.5 c 128,-1,31
 505 1062 505 1062 451.5 962 c 128,-1,32
 398 862 398 862 398 721 c 256,33,34
 398 580 398 580 443 480.5 c 128,-1,35
 488 381 488 381 574.5 329 c 128,-1,36
 661 277 661 277 783 277 c 0,37,38
 848 277 848 277 937.5 294 c 128,-1,39
 1027 311 1027 311 1125 343 c 1,40,-1
 1191 55 l 1,41,42
 997 -20 997 -20 760 -20 c 0,43,44
 728 -20 728 -20 713 -19 c 1,45,-1
 713 -62 l 1,46,0
 953 -71 953 -71 953 -248 c 0,1,2
EndSplineSet
EndChar

StartChar: Cdotaccent
Encoding: 266 266 18
Width: 1278
GlyphClass: 2
Flags: W
AnchorPoint: "Anchor-3" 0 0 basechar 0
AnchorPoint: "Anchor-2" 721 1868 basechar 0
AnchorPoint: "Anchor-1" 639 0 basechar 0
AnchorPoint: "Anchor-0" 0 0 basechar 0
LayerCount: 2
Back
Fore
SplineSet
625 1589 m 128,-1,1
 582 1611 582 1611 558 1649 c 128,-1,2
 534 1687 534 1687 534 1733 c 0,3,4
 534 1781 534 1781 558.5 1818 c 128,-1,5
 583 1855 583 1855 625 1876 c 128,-1,6
 667 1897 667 1897 720 1897 c 256,7,8
 773 1897 773 1897 815 1876 c 128,-1,9
 857 1855 857 1855 880.5 1817.5 c 128,-1,10
 904 1780 904 1780 904 1733 c 256,11,12
 904 1686 904 1686 880.5 1648 c 128,-1,13
 857 1610 857 1610 815 1588.5 c 128,-1,14
 773 1567 773 1567 720 1567 c 0,15,0
 668 1567 668 1567 625 1589 c 128,-1,1
389 66 m 128,-1,17
 235 152 235 152 154.5 316.5 c 128,-1,18
 74 481 74 481 74 713 c 0,19,20
 74 949 74 949 166 1117 c 128,-1,21
 258 1285 258 1285 433.5 1372.5 c 128,-1,22
 609 1460 609 1460 856 1460 c 0,23,24
 928 1460 928 1460 1013 1448.5 c 128,-1,25
 1098 1437 1098 1437 1180 1416 c 1,26,-1
 1101 1131 l 1,27,28
 1054 1148 1054 1148 989.5 1157.5 c 128,-1,29
 925 1167 925 1167 854 1167 c 0,30,31
 710 1167 710 1167 607.5 1114.5 c 128,-1,32
 505 1062 505 1062 451.5 962 c 128,-1,33
 398 862 398 862 398 721 c 256,34,35
 398 580 398 580 443 480.5 c 128,-1,36
 488 381 488 381 574.5 329 c 128,-1,37
 661 277 661 277 783 277 c 0,38,39
 848 277 848 277 937.5 294 c 128,-1,40
 1027 311 1027 311 1125 343 c 1,41,-1
 1191 55 l 1,42,43
 997 -20 997 -20 760 -20 c 0,44,16
 543 -20 543 -20 389 66 c 128,-1,17
EndSplineSet
EndChar

StartChar: D
Encoding: 68 68 19
Width: 1510
GlyphClass: 2
Flags: W
AnchorPoint: "Anchor-3" 0 0 basechar 0
AnchorPoint: "Anchor-2" 725 1384 basechar 0
AnchorPoint: "Anchor-1" 755 0 basechar 0
AnchorPoint: "Anchor-0" 0 0 basechar 0
LayerCount: 2
Back
Fore
SplineSet
164 1434 m 1,0,-1
 715 1434 l 2,1,2
 1072 1434 1072 1434 1253.5 1261.5 c 128,-1,3
 1435 1089 1435 1089 1435 734 c 0,4,5
 1435 510 1435 510 1343.5 344.5 c 128,-1,6
 1252 179 1252 179 1085.5 90 c 128,-1,7
 919 1 919 1 700 0 c 2,8,-1
 164 -2 l 1,9,-1
 164 1434 l 1,0,-1
702 263 m 2,10,11
 832 263 832 263 925 317.5 c 128,-1,12
 1018 372 1018 372 1066.5 476.5 c 128,-1,13
 1115 581 1115 581 1115 728 c 0,14,15
 1115 953 1115 953 1012.5 1064 c 128,-1,16
 910 1175 910 1175 711 1173 c 2,17,-1
 478 1171 l 1,18,-1
 478 263 l 1,19,-1
 702 263 l 2,10,11
EndSplineSet
EndChar

StartChar: Dcaron
Encoding: 270 270 21
Width: 1510
GlyphClass: 2
Flags: W
AnchorPoint: "Anchor-3" 0 0 basechar 0
AnchorPoint: "Anchor-2" 727 1921 basechar 0
AnchorPoint: "Anchor-1" 755 0 basechar 0
AnchorPoint: "Anchor-0" 0 0 basechar 0
LayerCount: 2
Back
Fore
SplineSet
304 1831 m 1,0,-1
 569 1831 l 1,1,-1
 724 1733 l 1,2,-1
 880 1831 l 1,3,-1
 1135 1831 l 1,4,-1
 847 1596 l 1,5,-1
 599 1596 l 1,6,-1
 304 1831 l 1,0,-1
164 1434 m 1,7,-1
 715 1434 l 2,8,9
 1072 1434 1072 1434 1253.5 1261.5 c 128,-1,10
 1435 1089 1435 1089 1435 734 c 0,11,12
 1435 510 1435 510 1343.5 344.5 c 128,-1,13
 1252 179 1252 179 1085.5 90 c 128,-1,14
 919 1 919 1 700 0 c 2,15,-1
 164 -2 l 1,16,-1
 164 1434 l 1,7,-1
702 263 m 2,17,18
 832 263 832 263 925 317.5 c 128,-1,19
 1018 372 1018 372 1066.5 476.5 c 128,-1,20
 1115 581 1115 581 1115 728 c 0,21,22
 1115 953 1115 953 1012.5 1064 c 128,-1,23
 910 1175 910 1175 711 1173 c 2,24,-1
 478 1171 l 1,25,-1
 478 263 l 1,26,-1
 702 263 l 2,17,18
EndSplineSet
EndChar

StartChar: E
Encoding: 69 69 23
Width: 1090
GlyphClass: 2
Flags: W
AnchorPoint: "Anchor-3" 0 0 basechar 0
AnchorPoint: "Anchor-2" 575 1384 basechar 0
AnchorPoint: "Anchor-1" 545 0 basechar 0
AnchorPoint: "Anchor-0" 935 10 basechar 0
LayerCount: 2
Back
Fore
SplineSet
164 1434 m 1,0,-1
 992 1434 l 1,1,-1
 992 1181 l 1,2,-1
 478 1181 l 1,3,-1
 478 853 l 1,4,-1
 930 853 l 1,5,-1
 930 597 l 1,6,-1
 478 597 l 1,7,-1
 478 252 l 1,8,-1
 1024 252 l 1,9,-1
 1024 0 l 1,10,-1
 164 0 l 1,11,-1
 164 1434 l 1,0,-1
EndSplineSet
EndChar

StartChar: Eacute
Encoding: 201 201 24
Width: 1090
GlyphClass: 2
Flags: W
AnchorPoint: "Anchor-3" 0 0 basechar 0
AnchorPoint: "Anchor-2" 634 1919 basechar 0
AnchorPoint: "Anchor-1" 545 0 basechar 0
AnchorPoint: "Anchor-0" 935 10 basechar 0
LayerCount: 2
Back
Fore
SplineSet
641 1829 m 1,0,-1
 1012 1829 l 1,1,-1
 729 1596 l 1,2,-1
 411 1596 l 1,3,-1
 641 1829 l 1,0,-1
164 1434 m 1,4,-1
 992 1434 l 1,5,-1
 992 1181 l 1,6,-1
 478 1181 l 1,7,-1
 478 853 l 1,8,-1
 930 853 l 1,9,-1
 930 597 l 1,10,-1
 478 597 l 1,11,-1
 478 252 l 1,12,-1
 1024 252 l 1,13,-1
 1024 0 l 1,14,-1
 164 0 l 1,15,-1
 164 1434 l 1,4,-1
EndSplineSet
EndChar

StartChar: Ecaron
Encoding: 282 282 25
Width: 1090
GlyphClass: 2
Flags: W
AnchorPoint: "Anchor-3" 0 0 basechar 0
AnchorPoint: "Anchor-2" 577 1921 basechar 0
AnchorPoint: "Anchor-1" 545 0 basechar 0
AnchorPoint: "Anchor-0" 935 10 basechar 0
LayerCount: 2
Back
Fore
SplineSet
154 1831 m 1,0,-1
 419 1831 l 1,1,-1
 574 1733 l 1,2,-1
 730 1831 l 1,3,-1
 985 1831 l 1,4,-1
 697 1596 l 1,5,-1
 449 1596 l 1,6,-1
 154 1831 l 1,0,-1
164 1434 m 1,7,-1
 992 1434 l 1,8,-1
 992 1181 l 1,9,-1
 478 1181 l 1,10,-1
 478 853 l 1,11,-1
 930 853 l 1,12,-1
 930 597 l 1,13,-1
 478 597 l 1,14,-1
 478 252 l 1,15,-1
 1024 252 l 1,16,-1
 1024 0 l 1,17,-1
 164 0 l 1,18,-1
 164 1434 l 1,7,-1
EndSplineSet
EndChar

StartChar: Ecircumflex
Encoding: 202 202 26
Width: 1090
GlyphClass: 2
Flags: W
AnchorPoint: "Anchor-3" 0 0 basechar 0
AnchorPoint: "Anchor-2" 577 1921 basechar 0
AnchorPoint: "Anchor-1" 545 0 basechar 0
AnchorPoint: "Anchor-0" 935 10 basechar 0
LayerCount: 2
Back
Fore
SplineSet
448 1861 m 1,0,-1
 696 1861 l 1,1,-1
 992 1596 l 1,2,-1
 735 1596 l 1,3,-1
 567 1734 l 1,4,-1
 420 1596 l 1,5,-1
 163 1596 l 1,6,-1
 448 1861 l 1,0,-1
164 1434 m 1,7,-1
 992 1434 l 1,8,-1
 992 1181 l 1,9,-1
 478 1181 l 1,10,-1
 478 853 l 1,11,-1
 930 853 l 1,12,-1
 930 597 l 1,13,-1
 478 597 l 1,14,-1
 478 252 l 1,15,-1
 1024 252 l 1,16,-1
 1024 0 l 1,17,-1
 164 0 l 1,18,-1
 164 1434 l 1,7,-1
EndSplineSet
EndChar

StartChar: Edieresis
Encoding: 203 203 27
Width: 1090
GlyphClass: 2
Flags: W
AnchorPoint: "Anchor-3" 0 0 basechar 0
AnchorPoint: "Anchor-2" 577 1870 basechar 0
AnchorPoint: "Anchor-1" 545 0 basechar 0
AnchorPoint: "Anchor-0" 935 10 basechar 0
LayerCount: 2
Back
Fore
SplineSet
221.5 1621.5 m 128,-1,1
 177 1661 177 1661 177 1733 c 256,2,3
 177 1805 177 1805 221.5 1844.5 c 128,-1,4
 266 1884 266 1884 346 1884 c 256,5,6
 426 1884 426 1884 470 1844.5 c 128,-1,7
 514 1805 514 1805 514 1733 c 256,8,9
 514 1661 514 1661 470 1621.5 c 128,-1,10
 426 1582 426 1582 346 1582 c 256,11,0
 266 1582 266 1582 221.5 1621.5 c 128,-1,1
680 1621.5 m 128,-1,13
 636 1661 636 1661 636 1733 c 256,14,15
 636 1805 636 1805 680 1844.5 c 128,-1,16
 724 1884 724 1884 804 1884 c 256,17,18
 884 1884 884 1884 928.5 1844.5 c 128,-1,19
 973 1805 973 1805 973 1733 c 256,20,21
 973 1661 973 1661 928.5 1621.5 c 128,-1,22
 884 1582 884 1582 804 1582 c 256,23,12
 724 1582 724 1582 680 1621.5 c 128,-1,13
164 1434 m 1,24,-1
 992 1434 l 1,25,-1
 992 1181 l 1,26,-1
 478 1181 l 1,27,-1
 478 853 l 1,28,-1
 930 853 l 1,29,-1
 930 597 l 1,30,-1
 478 597 l 1,31,-1
 478 252 l 1,32,-1
 1024 252 l 1,33,-1
 1024 0 l 1,34,-1
 164 0 l 1,35,-1
 164 1434 l 1,24,-1
EndSplineSet
EndChar

StartChar: Edotaccent
Encoding: 278 278 28
Width: 1090
GlyphClass: 2
Flags: W
AnchorPoint: "Anchor-3" 0 0 basechar 0
AnchorPoint: "Anchor-2" 577 1868 basechar 0
AnchorPoint: "Anchor-1" 545 0 basechar 0
AnchorPoint: "Anchor-0" 935 10 basechar 0
LayerCount: 2
Back
Fore
SplineSet
481 1589 m 128,-1,1
 438 1611 438 1611 414 1649 c 128,-1,2
 390 1687 390 1687 390 1733 c 0,3,4
 390 1781 390 1781 414.5 1818 c 128,-1,5
 439 1855 439 1855 481 1876 c 128,-1,6
 523 1897 523 1897 576 1897 c 256,7,8
 629 1897 629 1897 671 1876 c 128,-1,9
 713 1855 713 1855 736.5 1817.5 c 128,-1,10
 760 1780 760 1780 760 1733 c 256,11,12
 760 1686 760 1686 736.5 1648 c 128,-1,13
 713 1610 713 1610 671 1588.5 c 128,-1,14
 629 1567 629 1567 576 1567 c 0,15,0
 524 1567 524 1567 481 1589 c 128,-1,1
164 1434 m 1,16,-1
 992 1434 l 1,17,-1
 992 1181 l 1,18,-1
 478 1181 l 1,19,-1
 478 853 l 1,20,-1
 930 853 l 1,21,-1
 930 597 l 1,22,-1
 478 597 l 1,23,-1
 478 252 l 1,24,-1
 1024 252 l 1,25,-1
 1024 0 l 1,26,-1
 164 0 l 1,27,-1
 164 1434 l 1,16,-1
EndSplineSet
EndChar

StartChar: Egrave
Encoding: 200 200 29
Width: 1090
GlyphClass: 2
Flags: W
AnchorPoint: "Anchor-3" 0 0 basechar 0
AnchorPoint: "Anchor-2" 417 1919 basechar 0
AnchorPoint: "Anchor-1" 545 0 basechar 0
AnchorPoint: "Anchor-0" 935 10 basechar 0
LayerCount: 2
Back
Fore
SplineSet
184 1819 m 1,0,-1
 535 1819 l 1,1,-1
 725 1596 l 1,2,-1
 408 1596 l 1,3,-1
 184 1819 l 1,0,-1
164 1434 m 1,4,-1
 992 1434 l 1,5,-1
 992 1181 l 1,6,-1
 478 1181 l 1,7,-1
 478 853 l 1,8,-1
 930 853 l 1,9,-1
 930 597 l 1,10,-1
 478 597 l 1,11,-1
 478 252 l 1,12,-1
 1024 252 l 1,13,-1
 1024 0 l 1,14,-1
 164 0 l 1,15,-1
 164 1434 l 1,4,-1
EndSplineSet
EndChar

StartChar: Emacron
Encoding: 274 274 30
Width: 1090
GlyphClass: 2
Flags: W
AnchorPoint: "Anchor-3" 0 0 basechar 0
AnchorPoint: "Anchor-2" 577 1926 basechar 0
AnchorPoint: "Anchor-1" 545 0 basechar 0
AnchorPoint: "Anchor-0" 935 10 basechar 0
LayerCount: 2
Back
Fore
SplineSet
210 1819 m 1,0,-1
 940 1819 l 1,1,-1
 940 1599 l 1,2,-1
 210 1599 l 1,3,-1
 210 1819 l 1,0,-1
164 1434 m 1,4,-1
 992 1434 l 1,5,-1
 992 1181 l 1,6,-1
 478 1181 l 1,7,-1
 478 853 l 1,8,-1
 930 853 l 1,9,-1
 930 597 l 1,10,-1
 478 597 l 1,11,-1
 478 252 l 1,12,-1
 1024 252 l 1,13,-1
 1024 0 l 1,14,-1
 164 0 l 1,15,-1
 164 1434 l 1,4,-1
EndSplineSet
EndChar

StartChar: Eogonek
Encoding: 280 280 31
Width: 1090
GlyphClass: 2
Flags: W
AnchorPoint: "Anchor-3" 0 0 basechar 0
AnchorPoint: "Anchor-2" 575 1384 basechar 0
AnchorPoint: "Anchor-1" 545 0 basechar 0
AnchorPoint: "Anchor-0" 935 10 basechar 0
LayerCount: 2
Back
Fore
SplineSet
1030 -400 m 1,0,1
 932 -419 932 -419 814 -419 c 0,2,3
 617 -419 617 -419 617 -235 c 0,4,5
 617 -156 617 -156 658 -100.5 c 128,-1,6
 699 -45 699 -45 778 0 c 1,7,-1
 164 0 l 1,8,-1
 164 1434 l 1,9,-1
 992 1434 l 1,10,-1
 992 1181 l 1,11,-1
 478 1181 l 1,12,-1
 478 853 l 1,13,-1
 930 853 l 1,14,-1
 930 597 l 1,15,-1
 478 597 l 1,16,-1
 478 252 l 1,17,-1
 1024 252 l 1,18,-1
 1024 0 l 1,19,20
 845 -84 845 -84 845 -148 c 0,21,22
 845 -187 845 -187 867.5 -205.5 c 128,-1,23
 890 -224 890 -224 938 -224 c 0,24,25
 967 -224 967 -224 1000 -212 c 1,26,-1
 1030 -400 l 1,0,1
EndSplineSet
EndChar

StartChar: F
Encoding: 70 70 32
Width: 1065
GlyphClass: 2
Flags: W
AnchorPoint: "Anchor-3" 0 0 basechar 0
AnchorPoint: "Anchor-2" 533 1434 basechar 0
AnchorPoint: "Anchor-1" 533 0 basechar 0
AnchorPoint: "Anchor-0" 0 0 basechar 0
LayerCount: 2
Back
Fore
SplineSet
164 1434 m 1,0,-1
 993 1434 l 1,1,-1
 993 1181 l 1,2,-1
 477 1181 l 1,3,-1
 477 820 l 1,4,-1
 931 820 l 1,5,-1
 931 562 l 1,6,-1
 477 562 l 1,7,-1
 477 0 l 1,8,-1
 164 0 l 1,9,-1
 164 1434 l 1,0,-1
EndSplineSet
EndChar

StartChar: G
Encoding: 71 71 33
Width: 1456
GlyphClass: 2
Flags: W
AnchorPoint: "Anchor-3" 0 0 basechar 0
AnchorPoint: "Anchor-2" 798 1384 basechar 0
AnchorPoint: "Anchor-1" 728 0 basechar 0
AnchorPoint: "Anchor-0" 0 0 basechar 0
LayerCount: 2
Back
Fore
SplineSet
421.5 64 m 128,-1,1
 261 150 261 150 167.5 313.5 c 128,-1,2
 74 477 74 477 74 700 c 0,3,4
 74 935 74 935 179.5 1107 c 128,-1,5
 285 1279 285 1279 467.5 1369 c 128,-1,6
 650 1459 650 1459 877 1459 c 0,7,8
 978 1459 978 1459 1093.5 1445.5 c 128,-1,9
 1209 1432 1209 1432 1311 1413 c 1,10,-1
 1226 1140 l 1,11,12
 1158 1153 1158 1153 1069 1165 c 128,-1,13
 980 1177 980 1177 899 1177 c 0,14,15
 746 1177 746 1177 637 1122 c 128,-1,16
 528 1067 528 1067 471 962.5 c 128,-1,17
 414 858 414 858 414 711 c 0,18,19
 414 568 414 568 463 463.5 c 128,-1,20
 512 359 512 359 605.5 303 c 128,-1,21
 699 247 699 247 829 247 c 0,22,23
 890 247 890 247 942.5 261.5 c 128,-1,24
 995 276 995 276 1030 304 c 1,25,-1
 1030 569 l 1,26,-1
 787 569 l 1,27,-1
 787 819 l 1,28,-1
 1339 819 l 1,29,-1
 1340 100 l 1,30,31
 1221 42 1221 42 1074.5 10 c 128,-1,32
 928 -22 928 -22 780 -22 c 0,33,0
 582 -22 582 -22 421.5 64 c 128,-1,1
EndSplineSet
EndChar

StartChar: Gbreve
Encoding: 286 286 34
Width: 1456
GlyphClass: 2
Flags: W
AnchorPoint: "Anchor-3" 0 0 basechar 0
AnchorPoint: "Anchor-2" 800 1903 basechar 0
AnchorPoint: "Anchor-1" 728 0 basechar 0
AnchorPoint: "Anchor-0" 0 0 basechar 0
LayerCount: 2
Back
Fore
SplineSet
533.5 1652.5 m 128,-1,1
 445 1719 445 1719 441 1853 c 1,2,-1
 650 1853 l 1,3,4
 665 1768 665 1768 799 1768 c 0,5,6
 926 1768 926 1768 945 1853 c 1,7,-1
 1155 1853 l 1,8,9
 1141 1719 1141 1719 1051.5 1652.5 c 128,-1,10
 962 1586 962 1586 795 1586 c 0,11,0
 622 1586 622 1586 533.5 1652.5 c 128,-1,1
421.5 64 m 128,-1,13
 261 150 261 150 167.5 313.5 c 128,-1,14
 74 477 74 477 74 700 c 0,15,16
 74 935 74 935 179.5 1107 c 128,-1,17
 285 1279 285 1279 467.5 1369 c 128,-1,18
 650 1459 650 1459 877 1459 c 0,19,20
 978 1459 978 1459 1093.5 1445.5 c 128,-1,21
 1209 1432 1209 1432 1311 1413 c 1,22,-1
 1226 1140 l 1,23,24
 1158 1153 1158 1153 1069 1165 c 128,-1,25
 980 1177 980 1177 899 1177 c 0,26,27
 746 1177 746 1177 637 1122 c 128,-1,28
 528 1067 528 1067 471 962.5 c 128,-1,29
 414 858 414 858 414 711 c 0,30,31
 414 568 414 568 463 463.5 c 128,-1,32
 512 359 512 359 605.5 303 c 128,-1,33
 699 247 699 247 829 247 c 0,34,35
 890 247 890 247 942.5 261.5 c 128,-1,36
 995 276 995 276 1030 304 c 1,37,-1
 1030 569 l 1,38,-1
 787 569 l 1,39,-1
 787 819 l 1,40,-1
 1339 819 l 1,41,-1
 1340 100 l 1,42,43
 1221 42 1221 42 1074.5 10 c 128,-1,44
 928 -22 928 -22 780 -22 c 0,45,12
 582 -22 582 -22 421.5 64 c 128,-1,13
EndSplineSet
EndChar

StartChar: uni0122
Encoding: 290 290 35
Width: 1456
GlyphClass: 2
Flags: W
AnchorPoint: "Anchor-3" 0 0 basechar 0
AnchorPoint: "Anchor-2" 798 1384 basechar 0
AnchorPoint: "Anchor-1" 665 -634 basechar 0
AnchorPoint: "Anchor-0" 0 0 basechar 0
LayerCount: 2
Back
Fore
SplineSet
421.5 64 m 128,-1,1
 261 150 261 150 167.5 313.5 c 128,-1,2
 74 477 74 477 74 700 c 0,3,4
 74 935 74 935 179.5 1107 c 128,-1,5
 285 1279 285 1279 467.5 1369 c 128,-1,6
 650 1459 650 1459 877 1459 c 0,7,8
 978 1459 978 1459 1093.5 1445.5 c 128,-1,9
 1209 1432 1209 1432 1311 1413 c 1,10,-1
 1226 1140 l 1,11,12
 1158 1153 1158 1153 1069 1165 c 128,-1,13
 980 1177 980 1177 899 1177 c 0,14,15
 746 1177 746 1177 637 1122 c 128,-1,16
 528 1067 528 1067 471 962.5 c 128,-1,17
 414 858 414 858 414 711 c 0,18,19
 414 568 414 568 463 463.5 c 128,-1,20
 512 359 512 359 605.5 303 c 128,-1,21
 699 247 699 247 829 247 c 0,22,23
 890 247 890 247 942.5 261.5 c 128,-1,24
 995 276 995 276 1030 304 c 1,25,-1
 1030 569 l 1,26,-1
 787 569 l 1,27,-1
 787 819 l 1,28,-1
 1339 819 l 1,29,-1
 1340 100 l 1,30,31
 1221 42 1221 42 1074.5 10 c 128,-1,32
 928 -22 928 -22 780 -22 c 0,33,0
 582 -22 582 -22 421.5 64 c 128,-1,1
499 -444 m 1,34,35
 540 -370 540 -370 564.5 -289 c 128,-1,36
 589 -208 589 -208 596 -132 c 1,37,-1
 866 -132 l 1,38,39
 865 -263 865 -263 829.5 -375.5 c 128,-1,40
 794 -488 794 -488 726 -564 c 1,41,-1
 499 -444 l 1,34,35
EndSplineSet
EndChar

StartChar: Gdotaccent
Encoding: 288 288 36
Width: 1456
GlyphClass: 2
Flags: W
AnchorPoint: "Anchor-3" 0 0 basechar 0
AnchorPoint: "Anchor-2" 800 1868 basechar 0
AnchorPoint: "Anchor-1" 728 0 basechar 0
AnchorPoint: "Anchor-0" 0 0 basechar 0
LayerCount: 2
Back
Fore
SplineSet
704 1589 m 128,-1,1
 661 1611 661 1611 637 1649 c 128,-1,2
 613 1687 613 1687 613 1733 c 0,3,4
 613 1781 613 1781 637.5 1818 c 128,-1,5
 662 1855 662 1855 704 1876 c 128,-1,6
 746 1897 746 1897 799 1897 c 256,7,8
 852 1897 852 1897 894 1876 c 128,-1,9
 936 1855 936 1855 959.5 1817.5 c 128,-1,10
 983 1780 983 1780 983 1733 c 256,11,12
 983 1686 983 1686 959.5 1648 c 128,-1,13
 936 1610 936 1610 894 1588.5 c 128,-1,14
 852 1567 852 1567 799 1567 c 0,15,0
 747 1567 747 1567 704 1589 c 128,-1,1
421.5 64 m 128,-1,17
 261 150 261 150 167.5 313.5 c 128,-1,18
 74 477 74 477 74 700 c 0,19,20
 74 935 74 935 179.5 1107 c 128,-1,21
 285 1279 285 1279 467.5 1369 c 128,-1,22
 650 1459 650 1459 877 1459 c 0,23,24
 978 1459 978 1459 1093.5 1445.5 c 128,-1,25
 1209 1432 1209 1432 1311 1413 c 1,26,-1
 1226 1140 l 1,27,28
 1158 1153 1158 1153 1069 1165 c 128,-1,29
 980 1177 980 1177 899 1177 c 0,30,31
 746 1177 746 1177 637 1122 c 128,-1,32
 528 1067 528 1067 471 962.5 c 128,-1,33
 414 858 414 858 414 711 c 0,34,35
 414 568 414 568 463 463.5 c 128,-1,36
 512 359 512 359 605.5 303 c 128,-1,37
 699 247 699 247 829 247 c 0,38,39
 890 247 890 247 942.5 261.5 c 128,-1,40
 995 276 995 276 1030 304 c 1,41,-1
 1030 569 l 1,42,-1
 787 569 l 1,43,-1
 787 819 l 1,44,-1
 1339 819 l 1,45,-1
 1340 100 l 1,46,47
 1221 42 1221 42 1074.5 10 c 128,-1,48
 928 -22 928 -22 780 -22 c 0,49,16
 582 -22 582 -22 421.5 64 c 128,-1,17
EndSplineSet
EndChar

StartChar: H
Encoding: 72 72 37
Width: 1569
GlyphClass: 2
Flags: W
AnchorPoint: "Anchor-3" 0 0 basechar 0
AnchorPoint: "Anchor-2" 785 1384 basechar 0
AnchorPoint: "Anchor-1" 785 0 basechar 0
AnchorPoint: "Anchor-0" 0 0 basechar 0
LayerCount: 2
Back
Fore
SplineSet
163 1434 m 1,0,-1
 475 1434 l 1,1,-1
 475 852 l 1,2,-1
 1089 852 l 1,3,-1
 1089 1434 l 1,4,-1
 1405 1434 l 1,5,-1
 1405 0 l 1,6,-1
 1089 0 l 1,7,-1
 1089 584 l 1,8,-1
 475 584 l 1,9,-1
 475 0 l 1,10,-1
 163 0 l 1,11,-1
 163 1434 l 1,0,-1
EndSplineSet
EndChar

StartChar: Hbar
Encoding: 294 294 38
Width: 1569
GlyphClass: 2
Flags: W
AnchorPoint: "Anchor-3" 0 0 basechar 0
AnchorPoint: "Anchor-2" 785 1384 basechar 0
AnchorPoint: "Anchor-1" 785 0 basechar 0
AnchorPoint: "Anchor-0" 0 0 basechar 0
LayerCount: 2
Back
Fore
SplineSet
1569 1018 m 1,0,-1
 1405 1018 l 1,1,-1
 1405 0 l 1,2,-1
 1089 0 l 1,3,-1
 1089 584 l 1,4,-1
 475 584 l 1,5,-1
 475 0 l 1,6,-1
 163 0 l 1,7,-1
 163 1018 l 1,8,-1
 0 1018 l 1,9,-1
 0 1223 l 1,10,-1
 163 1223 l 1,11,-1
 163 1434 l 1,12,-1
 475 1434 l 1,13,-1
 475 1223 l 1,14,-1
 1089 1223 l 1,15,-1
 1089 1434 l 1,16,-1
 1405 1434 l 1,17,-1
 1405 1223 l 1,18,-1
 1569 1223 l 1,19,-1
 1569 1018 l 1,0,-1
1089 1018 m 1,20,-1
 475 1018 l 1,21,-1
 475 852 l 1,22,-1
 1089 852 l 1,23,-1
 1089 1018 l 1,20,-1
EndSplineSet
EndChar

StartChar: I
Encoding: 73 73 39
Width: 649
GlyphClass: 2
Flags: W
AnchorPoint: "Anchor-3" 0 0 basechar 0
AnchorPoint: "Anchor-2" 325 1384 basechar 0
AnchorPoint: "Anchor-1" 325 0 basechar 0
AnchorPoint: "Anchor-0" 398 10 basechar 0
LayerCount: 2
Back
Fore
SplineSet
169 1434 m 1,0,-1
 481 1434 l 1,1,-1
 481 0 l 1,2,-1
 169 0 l 1,3,-1
 169 1434 l 1,0,-1
EndSplineSet
EndChar

StartChar: Iacute
Encoding: 205 205 41
Width: 649
GlyphClass: 2
Flags: W
AnchorPoint: "Anchor-3" 0 0 basechar 0
AnchorPoint: "Anchor-2" 384 1919 basechar 0
AnchorPoint: "Anchor-1" 325 0 basechar 0
AnchorPoint: "Anchor-0" 398 10 basechar 0
LayerCount: 2
Back
Fore
SplineSet
391 1829 m 1,0,-1
 762 1829 l 1,1,-1
 479 1596 l 1,2,-1
 161 1596 l 1,3,-1
 391 1829 l 1,0,-1
169 1434 m 1,4,-1
 481 1434 l 1,5,-1
 481 0 l 1,6,-1
 169 0 l 1,7,-1
 169 1434 l 1,4,-1
EndSplineSet
EndChar

StartChar: Icircumflex
Encoding: 206 206 42
Width: 649
GlyphClass: 2
Flags: W
AnchorPoint: "Anchor-3" 0 0 basechar 0
AnchorPoint: "Anchor-2" 327 1921 basechar 0
AnchorPoint: "Anchor-1" 325 0 basechar 0
AnchorPoint: "Anchor-0" 398 10 basechar 0
LayerCount: 2
Back
Fore
SplineSet
198 1861 m 1,0,-1
 446 1861 l 1,1,-1
 742 1596 l 1,2,-1
 485 1596 l 1,3,-1
 317 1734 l 1,4,-1
 170 1596 l 1,5,-1
 -87 1596 l 1,6,-1
 198 1861 l 1,0,-1
169 1434 m 1,7,-1
 481 1434 l 1,8,-1
 481 0 l 1,9,-1
 169 0 l 1,10,-1
 169 1434 l 1,7,-1
EndSplineSet
EndChar

StartChar: Idieresis
Encoding: 207 207 43
Width: 649
GlyphClass: 2
Flags: W
AnchorPoint: "Anchor-3" 0 0 basechar 0
AnchorPoint: "Anchor-2" 327 1870 basechar 0
AnchorPoint: "Anchor-1" 325 0 basechar 0
AnchorPoint: "Anchor-0" 398 10 basechar 0
LayerCount: 2
Back
Fore
SplineSet
-28.5 1621.5 m 128,-1,1
 -73 1661 -73 1661 -73 1733 c 256,2,3
 -73 1805 -73 1805 -28.5 1844.5 c 128,-1,4
 16 1884 16 1884 96 1884 c 256,5,6
 176 1884 176 1884 220 1844.5 c 128,-1,7
 264 1805 264 1805 264 1733 c 256,8,9
 264 1661 264 1661 220 1621.5 c 128,-1,10
 176 1582 176 1582 96 1582 c 256,11,0
 16 1582 16 1582 -28.5 1621.5 c 128,-1,1
430 1621.5 m 128,-1,13
 386 1661 386 1661 386 1733 c 256,14,15
 386 1805 386 1805 430 1844.5 c 128,-1,16
 474 1884 474 1884 554 1884 c 256,17,18
 634 1884 634 1884 678.5 1844.5 c 128,-1,19
 723 1805 723 1805 723 1733 c 256,20,21
 723 1661 723 1661 678.5 1621.5 c 128,-1,22
 634 1582 634 1582 554 1582 c 256,23,12
 474 1582 474 1582 430 1621.5 c 128,-1,13
169 1434 m 1,24,-1
 481 1434 l 1,25,-1
 481 0 l 1,26,-1
 169 0 l 1,27,-1
 169 1434 l 1,24,-1
EndSplineSet
EndChar

StartChar: Idotaccent
Encoding: 304 304 44
Width: 649
GlyphClass: 2
Flags: W
AnchorPoint: "Anchor-3" 0 0 basechar 0
AnchorPoint: "Anchor-2" 327 1868 basechar 0
AnchorPoint: "Anchor-1" 325 0 basechar 0
AnchorPoint: "Anchor-0" 398 10 basechar 0
LayerCount: 2
Back
Fore
SplineSet
231 1589 m 128,-1,1
 188 1611 188 1611 164 1649 c 128,-1,2
 140 1687 140 1687 140 1733 c 0,3,4
 140 1781 140 1781 164.5 1818 c 128,-1,5
 189 1855 189 1855 231 1876 c 128,-1,6
 273 1897 273 1897 326 1897 c 256,7,8
 379 1897 379 1897 421 1876 c 128,-1,9
 463 1855 463 1855 486.5 1817.5 c 128,-1,10
 510 1780 510 1780 510 1733 c 256,11,12
 510 1686 510 1686 486.5 1648 c 128,-1,13
 463 1610 463 1610 421 1588.5 c 128,-1,14
 379 1567 379 1567 326 1567 c 0,15,0
 274 1567 274 1567 231 1589 c 128,-1,1
169 1434 m 1,16,-1
 481 1434 l 1,17,-1
 481 0 l 1,18,-1
 169 0 l 1,19,-1
 169 1434 l 1,16,-1
EndSplineSet
EndChar

StartChar: Igrave
Encoding: 204 204 45
Width: 649
GlyphClass: 2
Flags: W
AnchorPoint: "Anchor-3" 0 0 basechar 0
AnchorPoint: "Anchor-2" 167 1919 basechar 0
AnchorPoint: "Anchor-1" 325 0 basechar 0
AnchorPoint: "Anchor-0" 398 10 basechar 0
LayerCount: 2
Back
Fore
SplineSet
-66 1819 m 1,0,-1
 285 1819 l 1,1,-1
 475 1596 l 1,2,-1
 158 1596 l 1,3,-1
 -66 1819 l 1,0,-1
169 1434 m 1,4,-1
 481 1434 l 1,5,-1
 481 0 l 1,6,-1
 169 0 l 1,7,-1
 169 1434 l 1,4,-1
EndSplineSet
EndChar

StartChar: Imacron
Encoding: 298 298 46
Width: 649
GlyphClass: 2
Flags: W
AnchorPoint: "Anchor-3" 0 0 basechar 0
AnchorPoint: "Anchor-2" 327 1926 basechar 0
AnchorPoint: "Anchor-1" 325 0 basechar 0
AnchorPoint: "Anchor-0" 398 10 basechar 0
LayerCount: 2
Back
Fore
SplineSet
-40 1819 m 1,0,-1
 690 1819 l 1,1,-1
 690 1599 l 1,2,-1
 -40 1599 l 1,3,-1
 -40 1819 l 1,0,-1
169 1434 m 1,4,-1
 481 1434 l 1,5,-1
 481 0 l 1,6,-1
 169 0 l 1,7,-1
 169 1434 l 1,4,-1
EndSplineSet
EndChar

StartChar: Iogonek
Encoding: 302 302 47
Width: 649
GlyphClass: 2
Flags: W
AnchorPoint: "Anchor-3" 0 0 basechar 0
AnchorPoint: "Anchor-2" 325 1384 basechar 0
AnchorPoint: "Anchor-1" 325 0 basechar 0
AnchorPoint: "Anchor-0" 398 10 basechar 0
LayerCount: 2
Back
Fore
SplineSet
493 -400 m 1,0,1
 395 -419 395 -419 277 -419 c 0,2,3
 80 -419 80 -419 80 -235 c 0,4,5
 80 -156 80 -156 121 -100.5 c 128,-1,6
 162 -45 162 -45 241 0 c 1,7,-1
 169 0 l 1,8,-1
 169 1434 l 1,9,-1
 481 1434 l 1,10,-1
 481 0 l 1,11,-1
 487 0 l 1,12,13
 308 -84 308 -84 308 -148 c 0,14,15
 308 -187 308 -187 330.5 -205.5 c 128,-1,16
 353 -224 353 -224 401 -224 c 0,17,18
 430 -224 430 -224 463 -212 c 1,19,-1
 493 -400 l 1,0,1
EndSplineSet
EndChar

StartChar: J
Encoding: 74 74 48
Width: 912
GlyphClass: 2
Flags: W
AnchorPoint: "Anchor-3" 0 0 basechar 0
AnchorPoint: "Anchor-2" 456 1434 basechar 0
AnchorPoint: "Anchor-1" 456 0 basechar 0
AnchorPoint: "Anchor-0" 0 0 basechar 0
LayerCount: 2
Back
Fore
SplineSet
49 -192 m 1,0,1
 189 -179 189 -179 272.5 -154.5 c 128,-1,2
 356 -130 356 -130 404.5 -68 c 128,-1,3
 453 -6 453 -6 453 111 c 2,4,-1
 453 1434 l 1,5,-1
 762 1434 l 1,6,-1
 762 -20 l 2,7,8
 762 -258 762 -258 582 -364.5 c 128,-1,9
 402 -471 402 -471 90 -482 c 1,10,-1
 49 -192 l 1,0,1
EndSplineSet
EndChar

StartChar: K
Encoding: 75 75 49
Width: 1329
GlyphClass: 2
Flags: W
AnchorPoint: "Anchor-3" 0 0 basechar 0
AnchorPoint: "Anchor-2" 665 1434 basechar 0
AnchorPoint: "Anchor-1" 665 0 basechar 0
AnchorPoint: "Anchor-0" 0 0 basechar 0
LayerCount: 2
Back
Fore
SplineSet
653 651 m 1,0,-1
 478 440 l 1,1,-1
 478 0 l 1,2,-1
 164 0 l 1,3,-1
 164 1434 l 1,4,-1
 478 1434 l 1,5,-1
 478 834 l 1,6,7
 493 871 493 871 512 901.5 c 128,-1,8
 531 932 531 932 559 966 c 2,9,-1
 976 1484 l 1,10,-1
 1321 1459 l 1,11,-1
 863 905 l 1,12,-1
 1341 0 l 1,13,-1
 970 0 l 1,14,-1
 653 651 l 1,0,-1
EndSplineSet
EndChar

StartChar: uni0136
Encoding: 310 310 50
Width: 1329
GlyphClass: 2
Flags: W
AnchorPoint: "Anchor-3" 0 0 basechar 0
AnchorPoint: "Anchor-2" 665 1434 basechar 0
AnchorPoint: "Anchor-1" 602 -634 basechar 0
AnchorPoint: "Anchor-0" 0 0 basechar 0
LayerCount: 2
Back
Fore
SplineSet
1341 0 m 1,0,-1
 970 0 l 1,1,-1
 653 651 l 1,2,-1
 478 440 l 1,3,-1
 478 0 l 1,4,-1
 164 0 l 1,5,-1
 164 1434 l 1,6,-1
 478 1434 l 1,7,-1
 478 834 l 1,8,9
 493 871 493 871 512 901.5 c 128,-1,10
 531 932 531 932 559 966 c 2,11,-1
 976 1484 l 1,12,-1
 1321 1459 l 1,13,-1
 863 905 l 1,14,-1
 1341 0 l 1,0,-1
501.5 -289 m 128,-1,16
 526 -208 526 -208 533 -132 c 1,17,-1
 803 -132 l 1,18,19
 802 -263 802 -263 766.5 -375.5 c 128,-1,20
 731 -488 731 -488 663 -564 c 1,21,-1
 436 -444 l 1,22,15
 477 -370 477 -370 501.5 -289 c 128,-1,16
EndSplineSet
EndChar

StartChar: L
Encoding: 76 76 51
Width: 1047
GlyphClass: 2
Flags: W
AnchorPoint: "Anchor-3" 1027 1434 basechar 0
AnchorPoint: "Anchor-2" 324 1384 basechar 0
AnchorPoint: "Anchor-1" 524 0 basechar 0
AnchorPoint: "Anchor-0" 0 0 basechar 0
LayerCount: 2
Back
Fore
SplineSet
164 1434 m 1,0,-1
 478 1434 l 1,1,-1
 478 292 l 1,2,-1
 1018 292 l 1,3,-1
 1018 0 l 1,4,-1
 164 0 l 1,5,-1
 164 1434 l 1,0,-1
EndSplineSet
EndChar

StartChar: Lacute
Encoding: 313 313 52
Width: 1047
GlyphClass: 2
Flags: W
AnchorPoint: "Anchor-3" 1027 1434 basechar 0
AnchorPoint: "Anchor-2" 383 1919 basechar 0
AnchorPoint: "Anchor-1" 524 0 basechar 0
AnchorPoint: "Anchor-0" 0 0 basechar 0
LayerCount: 2
Back
Fore
SplineSet
390 1829 m 1,0,-1
 761 1829 l 1,1,-1
 478 1596 l 1,2,-1
 160 1596 l 1,3,-1
 390 1829 l 1,0,-1
164 1434 m 1,4,-1
 478 1434 l 1,5,-1
 478 292 l 1,6,-1
 1018 292 l 1,7,-1
 1018 0 l 1,8,-1
 164 0 l 1,9,-1
 164 1434 l 1,4,-1
EndSplineSet
EndChar

StartChar: uni013B
Encoding: 315 315 54
Width: 1047
GlyphClass: 2
Flags: W
AnchorPoint: "Anchor-3" 1027 1434 basechar 0
AnchorPoint: "Anchor-2" 324 1384 basechar 0
AnchorPoint: "Anchor-1" 461 -634 basechar 0
AnchorPoint: "Anchor-0" 0 0 basechar 0
LayerCount: 2
Back
Fore
SplineSet
164 1434 m 1,0,-1
 478 1434 l 1,1,-1
 478 292 l 1,2,-1
 1018 292 l 1,3,-1
 1018 0 l 1,4,-1
 164 0 l 1,5,-1
 164 1434 l 1,0,-1
295 -444 m 1,6,7
 336 -370 336 -370 360.5 -289 c 128,-1,8
 385 -208 385 -208 392 -132 c 1,9,-1
 662 -132 l 1,10,11
 661 -263 661 -263 625.5 -375.5 c 128,-1,12
 590 -488 590 -488 522 -564 c 1,13,-1
 295 -444 l 1,6,7
EndSplineSet
EndChar

StartChar: Lslash
Encoding: 321 321 56
Width: 1047
GlyphClass: 2
Flags: W
AnchorPoint: "Anchor-3" 1027 1434 basechar 0
AnchorPoint: "Anchor-2" 324 1384 basechar 0
AnchorPoint: "Anchor-1" 524 0 basechar 0
AnchorPoint: "Anchor-0" 0 0 basechar 0
LayerCount: 2
Back
Fore
SplineSet
1018 292 m 1,0,-1
 1018 0 l 1,1,-1
 164 0 l 1,2,-1
 164 463 l 1,3,-1
 2 381 l 1,4,-1
 2 645 l 1,5,-1
 164 727 l 1,6,-1
 164 1434 l 1,7,-1
 478 1434 l 1,8,-1
 478 886 l 1,9,-1
 770 1034 l 1,10,-1
 770 772 l 1,11,-1
 478 623 l 1,12,-1
 478 292 l 1,13,-1
 1018 292 l 1,0,-1
EndSplineSet
EndChar

StartChar: M
Encoding: 77 77 57
Width: 1960
GlyphClass: 2
Flags: W
AnchorPoint: "Anchor-3" 0 0 basechar 0
AnchorPoint: "Anchor-2" 980 1434 basechar 0
AnchorPoint: "Anchor-1" 980 0 basechar 0
AnchorPoint: "Anchor-0" 0 0 basechar 0
LayerCount: 2
Back
Fore
SplineSet
165 1434 m 1,0,-1
 657 1434 l 1,1,-1
 910 661 l 1,2,-1
 979 401 l 1,3,-1
 985 401 l 1,4,-1
 1051 663 l 1,5,-1
 1317 1434 l 1,6,-1
 1799 1434 l 1,7,-1
 1799 0 l 1,8,-1
 1496 0 l 1,9,-1
 1496 833 l 2,10,11
 1496 1050 1496 1050 1497 1173 c 1,12,-1
 1493 1173 l 1,13,14
 1484 1121 1484 1121 1477.5 1089.5 c 128,-1,15
 1471 1058 1471 1058 1459 1024 c 2,16,-1
 1102 0 l 1,17,-1
 837 0 l 1,18,-1
 473 1023 l 2,19,20
 461 1056 461 1056 444 1164 c 1,21,-1
 440 1164 l 1,22,23
 445 1111 445 1111 445 832 c 2,24,-1
 445 0 l 1,25,-1
 165 0 l 1,26,-1
 165 1434 l 1,0,-1
EndSplineSet
EndChar

StartChar: N
Encoding: 78 78 58
Width: 1618
GlyphClass: 2
Flags: W
AnchorPoint: "Anchor-3" 0 0 basechar 0
AnchorPoint: "Anchor-2" 809 1384 basechar 0
AnchorPoint: "Anchor-1" 809 0 basechar 0
AnchorPoint: "Anchor-0" 0 0 basechar 0
LayerCount: 2
Back
Fore
SplineSet
164 1435 m 1,0,-1
 521 1435 l 1,1,-1
 1105 570 l 2,2,3
 1117 552 1117 552 1136.5 513.5 c 128,-1,4
 1156 475 1156 475 1166 454 c 1,5,-1
 1170 454 l 1,6,7
 1165 491 1165 491 1162 558 c 128,-1,8
 1159 625 1159 625 1159 684 c 2,9,-1
 1159 1434 l 1,10,-1
 1453 1434 l 1,11,-1
 1454 0 l 1,12,-1
 1110 0 l 1,13,-1
 509 895 l 2,14,15
 498 911 498 911 482.5 945 c 128,-1,16
 467 979 467 979 457 1005 c 1,17,-1
 451 1005 l 1,18,19
 455 984 455 984 457 916.5 c 128,-1,20
 459 849 459 849 459 787 c 2,21,-1
 459 0 l 1,22,-1
 164 0 l 1,23,-1
 164 1435 l 1,0,-1
EndSplineSet
EndChar

StartChar: Nacute
Encoding: 323 323 59
Width: 1618
GlyphClass: 2
Flags: W
AnchorPoint: "Anchor-3" 0 0 basechar 0
AnchorPoint: "Anchor-2" 868 1919 basechar 0
AnchorPoint: "Anchor-1" 809 0 basechar 0
AnchorPoint: "Anchor-0" 0 0 basechar 0
LayerCount: 2
Back
Fore
SplineSet
875 1829 m 1,0,-1
 1246 1829 l 1,1,-1
 963 1596 l 1,2,-1
 645 1596 l 1,3,-1
 875 1829 l 1,0,-1
164 1435 m 1,4,-1
 521 1435 l 1,5,-1
 1105 570 l 2,6,7
 1117 552 1117 552 1136.5 513.5 c 128,-1,8
 1156 475 1156 475 1166 454 c 1,9,-1
 1170 454 l 1,10,11
 1165 491 1165 491 1162 558 c 128,-1,12
 1159 625 1159 625 1159 684 c 2,13,-1
 1159 1434 l 1,14,-1
 1453 1434 l 1,15,-1
 1454 0 l 1,16,-1
 1110 0 l 1,17,-1
 509 895 l 2,18,19
 498 911 498 911 482.5 945 c 128,-1,20
 467 979 467 979 457 1005 c 1,21,-1
 451 1005 l 1,22,23
 455 984 455 984 457 916.5 c 128,-1,24
 459 849 459 849 459 787 c 2,25,-1
 459 0 l 1,26,-1
 164 0 l 1,27,-1
 164 1435 l 1,4,-1
EndSplineSet
EndChar

StartChar: Ncaron
Encoding: 327 327 60
Width: 1618
GlyphClass: 2
Flags: W
AnchorPoint: "Anchor-3" 0 0 basechar 0
AnchorPoint: "Anchor-2" 811 1921 basechar 0
AnchorPoint: "Anchor-1" 809 0 basechar 0
AnchorPoint: "Anchor-0" 0 0 basechar 0
LayerCount: 2
Back
Fore
SplineSet
388 1831 m 1,0,-1
 653 1831 l 1,1,-1
 808 1733 l 1,2,-1
 964 1831 l 1,3,-1
 1219 1831 l 1,4,-1
 931 1596 l 1,5,-1
 683 1596 l 1,6,-1
 388 1831 l 1,0,-1
164 1435 m 1,7,-1
 521 1435 l 1,8,-1
 1105 570 l 2,9,10
 1117 552 1117 552 1136.5 513.5 c 128,-1,11
 1156 475 1156 475 1166 454 c 1,12,-1
 1170 454 l 1,13,14
 1165 491 1165 491 1162 558 c 128,-1,15
 1159 625 1159 625 1159 684 c 2,16,-1
 1159 1434 l 1,17,-1
 1453 1434 l 1,18,-1
 1454 0 l 1,19,-1
 1110 0 l 1,20,-1
 509 895 l 2,21,22
 498 911 498 911 482.5 945 c 128,-1,23
 467 979 467 979 457 1005 c 1,24,-1
 451 1005 l 1,25,26
 455 984 455 984 457 916.5 c 128,-1,27
 459 849 459 849 459 787 c 2,28,-1
 459 0 l 1,29,-1
 164 0 l 1,30,-1
 164 1435 l 1,7,-1
EndSplineSet
EndChar

StartChar: uni0145
Encoding: 325 325 61
Width: 1618
GlyphClass: 2
Flags: W
AnchorPoint: "Anchor-3" 0 0 basechar 0
AnchorPoint: "Anchor-2" 809 1384 basechar 0
AnchorPoint: "Anchor-1" 746 -634 basechar 0
AnchorPoint: "Anchor-0" 0 0 basechar 0
LayerCount: 2
Back
Fore
SplineSet
164 1435 m 1,0,-1
 521 1435 l 1,1,-1
 1105 570 l 2,2,3
 1117 552 1117 552 1136.5 513.5 c 128,-1,4
 1156 475 1156 475 1166 454 c 1,5,-1
 1170 454 l 1,6,7
 1165 491 1165 491 1162 558 c 128,-1,8
 1159 625 1159 625 1159 684 c 2,9,-1
 1159 1434 l 1,10,-1
 1453 1434 l 1,11,-1
 1454 0 l 1,12,-1
 1110 0 l 1,13,-1
 509 895 l 2,14,15
 498 911 498 911 482.5 945 c 128,-1,16
 467 979 467 979 457 1005 c 1,17,-1
 451 1005 l 1,18,19
 455 984 455 984 457 916.5 c 128,-1,20
 459 849 459 849 459 787 c 2,21,-1
 459 0 l 1,22,-1
 164 0 l 1,23,-1
 164 1435 l 1,0,-1
580 -444 m 1,24,25
 621 -370 621 -370 645.5 -289 c 128,-1,26
 670 -208 670 -208 677 -132 c 1,27,-1
 947 -132 l 1,28,29
 946 -263 946 -263 910.5 -375.5 c 128,-1,30
 875 -488 875 -488 807 -564 c 1,31,-1
 580 -444 l 1,24,25
EndSplineSet
EndChar

StartChar: Eng
Encoding: 330 330 62
Width: 1618
GlyphClass: 2
Flags: W
LayerCount: 2
Back
Fore
SplineSet
1454 0 m 2,0,1
 1454 -243 1454 -243 1310.5 -357 c 128,-1,2
 1167 -471 1167 -471 921 -482 c 1,3,-1
 870 -192 l 1,4,5
 964 -182 964 -182 1019 -159 c 128,-1,6
 1074 -136 1074 -136 1101 -96.5 c 128,-1,7
 1128 -57 1128 -57 1135 6 c 1,8,-1
 519 875 l 2,9,10
 508 891 508 891 493 924 c 128,-1,11
 478 957 478 957 467 985 c 1,12,-1
 461 985 l 1,13,14
 465 964 465 964 467 896.5 c 128,-1,15
 469 829 469 829 469 767 c 2,16,-1
 469 0 l 1,17,-1
 164 0 l 1,18,-1
 164 1435 l 1,19,-1
 521 1435 l 1,20,-1
 1095 630 l 2,21,22
 1107 612 1107 612 1126.5 573.5 c 128,-1,23
 1146 535 1146 535 1156 514 c 1,24,-1
 1160 514 l 1,25,26
 1155 551 1155 551 1152 618 c 128,-1,27
 1149 685 1149 685 1149 744 c 2,28,-1
 1149 1434 l 1,29,-1
 1453 1434 l 1,30,-1
 1454 124 l 1,31,-1
 1454 0 l 2,0,1
EndSplineSet
EndChar

StartChar: Ntilde
Encoding: 209 209 63
Width: 1618
GlyphClass: 2
Flags: W
AnchorPoint: "Anchor-3" 0 0 basechar 0
AnchorPoint: "Anchor-2" 811 1907 basechar 0
AnchorPoint: "Anchor-1" 809 0 basechar 0
AnchorPoint: "Anchor-0" 0 0 basechar 0
LayerCount: 2
Back
Fore
SplineSet
904.5 1608 m 128,-1,1
 869 1622 869 1622 818 1647 c 0,2,3
 812 1650 812 1650 788 1661.5 c 128,-1,4
 764 1673 764 1673 747.5 1678.5 c 128,-1,5
 731 1684 731 1684 720 1684 c 0,6,7
 640 1684 640 1684 640 1596 c 1,8,-1
 459 1596 l 1,9,10
 459 1735 459 1735 514 1812 c 128,-1,11
 569 1889 569 1889 668 1889 c 0,12,13
 703 1889 703 1889 738.5 1875.5 c 128,-1,14
 774 1862 774 1862 822 1837 c 0,15,16
 866 1815 866 1815 889.5 1805.5 c 128,-1,17
 913 1796 913 1796 936 1796 c 0,18,19
 1004 1796 1004 1796 1004 1887 c 1,20,-1
 1178 1887 l 1,21,22
 1178 1748 1178 1748 1123 1671 c 128,-1,23
 1068 1594 1068 1594 971 1594 c 0,24,0
 940 1594 940 1594 904.5 1608 c 128,-1,1
164 1435 m 1,25,-1
 521 1435 l 1,26,-1
 1105 570 l 2,27,28
 1117 552 1117 552 1136.5 513.5 c 128,-1,29
 1156 475 1156 475 1166 454 c 1,30,-1
 1170 454 l 1,31,32
 1165 491 1165 491 1162 558 c 128,-1,33
 1159 625 1159 625 1159 684 c 2,34,-1
 1159 1434 l 1,35,-1
 1453 1434 l 1,36,-1
 1454 0 l 1,37,-1
 1110 0 l 1,38,-1
 509 895 l 2,39,40
 498 911 498 911 482.5 945 c 128,-1,41
 467 979 467 979 457 1005 c 1,42,-1
 451 1005 l 1,43,44
 455 984 455 984 457 916.5 c 128,-1,45
 459 849 459 849 459 787 c 2,46,-1
 459 0 l 1,47,-1
 164 0 l 1,48,-1
 164 1435 l 1,25,-1
EndSplineSet
EndChar

StartChar: O
Encoding: 79 79 64
Width: 1553
GlyphClass: 2
Flags: W
AnchorPoint: "Anchor-3" 1535 1434 basechar 0
AnchorPoint: "Anchor-2" 779 1384 basechar 0
AnchorPoint: "Anchor-1" 779 0 basechar 0
AnchorPoint: "Anchor-0" 0 0 basechar 0
LayerCount: 2
Back
Fore
SplineSet
405.5 66.5 m 128,-1,1
 247 158 247 158 160.5 325 c 128,-1,2
 74 492 74 492 74 712 c 0,3,4
 74 934 74 934 160.5 1103 c 128,-1,5
 247 1272 247 1272 405.5 1364.5 c 128,-1,6
 564 1457 564 1457 772 1457 c 0,7,8
 984 1457 984 1457 1145 1364.5 c 128,-1,9
 1306 1272 1306 1272 1393 1103 c 128,-1,10
 1480 934 1480 934 1479 712 c 0,11,12
 1479 492 1479 492 1391 325 c 128,-1,13
 1303 158 1303 158 1143 66.5 c 128,-1,14
 983 -25 983 -25 772 -25 c 0,15,0
 564 -25 564 -25 405.5 66.5 c 128,-1,1
968 302.5 m 128,-1,17
 1052 360 1052 360 1098 465 c 128,-1,18
 1144 570 1144 570 1144 709 c 0,19,20
 1144 851 1144 851 1098.5 959 c 128,-1,21
 1053 1067 1053 1067 969 1126.5 c 128,-1,22
 885 1186 885 1186 774 1186 c 0,23,24
 666 1186 666 1186 583.5 1127 c 128,-1,25
 501 1068 501 1068 455.5 961 c 128,-1,26
 410 854 410 854 410 712 c 0,27,28
 410 572 410 572 455.5 466.5 c 128,-1,29
 501 361 501 361 583.5 303 c 128,-1,30
 666 245 666 245 774 245 c 0,31,16
 884 245 884 245 968 302.5 c 128,-1,17
EndSplineSet
EndChar

StartChar: Oacute
Encoding: 211 211 65
Width: 1552
GlyphClass: 2
Flags: W
AnchorPoint: "Anchor-3" 1535 1434 basechar 0
AnchorPoint: "Anchor-2" 838 1919 basechar 0
AnchorPoint: "Anchor-1" 779 0 basechar 0
AnchorPoint: "Anchor-0" 0 0 basechar 0
LayerCount: 2
Back
Fore
SplineSet
845 1829 m 1,0,-1
 1216 1829 l 1,1,-1
 933 1596 l 1,2,-1
 615 1596 l 1,3,-1
 845 1829 l 1,0,-1
405.5 66.5 m 128,-1,5
 247 158 247 158 160.5 325 c 128,-1,6
 74 492 74 492 74 712 c 0,7,8
 74 934 74 934 160.5 1103 c 128,-1,9
 247 1272 247 1272 405.5 1364.5 c 128,-1,10
 564 1457 564 1457 772 1457 c 0,11,12
 984 1457 984 1457 1145 1364.5 c 128,-1,13
 1306 1272 1306 1272 1393 1103 c 128,-1,14
 1480 934 1480 934 1479 712 c 0,15,16
 1479 492 1479 492 1391 325 c 128,-1,17
 1303 158 1303 158 1143 66.5 c 128,-1,18
 983 -25 983 -25 772 -25 c 0,19,4
 564 -25 564 -25 405.5 66.5 c 128,-1,5
968 302.5 m 128,-1,21
 1052 360 1052 360 1098 465 c 128,-1,22
 1144 570 1144 570 1144 709 c 0,23,24
 1144 851 1144 851 1098.5 959 c 128,-1,25
 1053 1067 1053 1067 969 1126.5 c 128,-1,26
 885 1186 885 1186 774 1186 c 0,27,28
 666 1186 666 1186 583.5 1127 c 128,-1,29
 501 1068 501 1068 455.5 961 c 128,-1,30
 410 854 410 854 410 712 c 0,31,32
 410 572 410 572 455.5 466.5 c 128,-1,33
 501 361 501 361 583.5 303 c 128,-1,34
 666 245 666 245 774 245 c 0,35,20
 884 245 884 245 968 302.5 c 128,-1,21
EndSplineSet
EndChar

StartChar: Ocircumflex
Encoding: 212 212 66
Width: 1552
GlyphClass: 2
Flags: W
AnchorPoint: "Anchor-3" 1535 1434 basechar 0
AnchorPoint: "Anchor-2" 781 1921 basechar 0
AnchorPoint: "Anchor-1" 779 0 basechar 0
AnchorPoint: "Anchor-0" 0 0 basechar 0
LayerCount: 2
Back
Fore
SplineSet
652 1861 m 1,0,-1
 900 1861 l 1,1,-1
 1196 1596 l 1,2,-1
 939 1596 l 1,3,-1
 771 1734 l 1,4,-1
 624 1596 l 1,5,-1
 367 1596 l 1,6,-1
 652 1861 l 1,0,-1
405.5 66.5 m 128,-1,8
 247 158 247 158 160.5 325 c 128,-1,9
 74 492 74 492 74 712 c 0,10,11
 74 934 74 934 160.5 1103 c 128,-1,12
 247 1272 247 1272 405.5 1364.5 c 128,-1,13
 564 1457 564 1457 772 1457 c 0,14,15
 984 1457 984 1457 1145 1364.5 c 128,-1,16
 1306 1272 1306 1272 1393 1103 c 128,-1,17
 1480 934 1480 934 1479 712 c 0,18,19
 1479 492 1479 492 1391 325 c 128,-1,20
 1303 158 1303 158 1143 66.5 c 128,-1,21
 983 -25 983 -25 772 -25 c 0,22,7
 564 -25 564 -25 405.5 66.5 c 128,-1,8
968 302.5 m 128,-1,24
 1052 360 1052 360 1098 465 c 128,-1,25
 1144 570 1144 570 1144 709 c 0,26,27
 1144 851 1144 851 1098.5 959 c 128,-1,28
 1053 1067 1053 1067 969 1126.5 c 128,-1,29
 885 1186 885 1186 774 1186 c 0,30,31
 666 1186 666 1186 583.5 1127 c 128,-1,32
 501 1068 501 1068 455.5 961 c 128,-1,33
 410 854 410 854 410 712 c 0,34,35
 410 572 410 572 455.5 466.5 c 128,-1,36
 501 361 501 361 583.5 303 c 128,-1,37
 666 245 666 245 774 245 c 0,38,23
 884 245 884 245 968 302.5 c 128,-1,24
EndSplineSet
EndChar

StartChar: Odieresis
Encoding: 214 214 67
Width: 1552
GlyphClass: 2
Flags: W
AnchorPoint: "Anchor-3" 1535 1434 basechar 0
AnchorPoint: "Anchor-2" 781 1870 basechar 0
AnchorPoint: "Anchor-1" 779 0 basechar 0
AnchorPoint: "Anchor-0" 0 0 basechar 0
LayerCount: 2
Back
Fore
SplineSet
425.5 1621.5 m 128,-1,1
 381 1661 381 1661 381 1733 c 256,2,3
 381 1805 381 1805 425.5 1844.5 c 128,-1,4
 470 1884 470 1884 550 1884 c 256,5,6
 630 1884 630 1884 674 1844.5 c 128,-1,7
 718 1805 718 1805 718 1733 c 256,8,9
 718 1661 718 1661 674 1621.5 c 128,-1,10
 630 1582 630 1582 550 1582 c 256,11,0
 470 1582 470 1582 425.5 1621.5 c 128,-1,1
884 1621.5 m 128,-1,13
 840 1661 840 1661 840 1733 c 256,14,15
 840 1805 840 1805 884 1844.5 c 128,-1,16
 928 1884 928 1884 1008 1884 c 256,17,18
 1088 1884 1088 1884 1132.5 1844.5 c 128,-1,19
 1177 1805 1177 1805 1177 1733 c 256,20,21
 1177 1661 1177 1661 1132.5 1621.5 c 128,-1,22
 1088 1582 1088 1582 1008 1582 c 256,23,12
 928 1582 928 1582 884 1621.5 c 128,-1,13
405.5 66.5 m 128,-1,25
 247 158 247 158 160.5 325 c 128,-1,26
 74 492 74 492 74 712 c 0,27,28
 74 934 74 934 160.5 1103 c 128,-1,29
 247 1272 247 1272 405.5 1364.5 c 128,-1,30
 564 1457 564 1457 772 1457 c 0,31,32
 984 1457 984 1457 1145 1364.5 c 128,-1,33
 1306 1272 1306 1272 1393 1103 c 128,-1,34
 1480 934 1480 934 1479 712 c 0,35,36
 1479 492 1479 492 1391 325 c 128,-1,37
 1303 158 1303 158 1143 66.5 c 128,-1,38
 983 -25 983 -25 772 -25 c 0,39,24
 564 -25 564 -25 405.5 66.5 c 128,-1,25
968 302.5 m 128,-1,41
 1052 360 1052 360 1098 465 c 128,-1,42
 1144 570 1144 570 1144 709 c 0,43,44
 1144 851 1144 851 1098.5 959 c 128,-1,45
 1053 1067 1053 1067 969 1126.5 c 128,-1,46
 885 1186 885 1186 774 1186 c 0,47,48
 666 1186 666 1186 583.5 1127 c 128,-1,49
 501 1068 501 1068 455.5 961 c 128,-1,50
 410 854 410 854 410 712 c 0,51,52
 410 572 410 572 455.5 466.5 c 128,-1,53
 501 361 501 361 583.5 303 c 128,-1,54
 666 245 666 245 774 245 c 0,55,40
 884 245 884 245 968 302.5 c 128,-1,41
EndSplineSet
EndChar

StartChar: Ograve
Encoding: 210 210 68
Width: 1552
GlyphClass: 2
Flags: W
AnchorPoint: "Anchor-3" 1535 1434 basechar 0
AnchorPoint: "Anchor-2" 621 1919 basechar 0
AnchorPoint: "Anchor-1" 779 0 basechar 0
AnchorPoint: "Anchor-0" 0 0 basechar 0
LayerCount: 2
Back
Fore
SplineSet
388 1819 m 1,0,-1
 739 1819 l 1,1,-1
 929 1596 l 1,2,-1
 612 1596 l 1,3,-1
 388 1819 l 1,0,-1
405.5 66.5 m 128,-1,5
 247 158 247 158 160.5 325 c 128,-1,6
 74 492 74 492 74 712 c 0,7,8
 74 934 74 934 160.5 1103 c 128,-1,9
 247 1272 247 1272 405.5 1364.5 c 128,-1,10
 564 1457 564 1457 772 1457 c 0,11,12
 984 1457 984 1457 1145 1364.5 c 128,-1,13
 1306 1272 1306 1272 1393 1103 c 128,-1,14
 1480 934 1480 934 1479 712 c 0,15,16
 1479 492 1479 492 1391 325 c 128,-1,17
 1303 158 1303 158 1143 66.5 c 128,-1,18
 983 -25 983 -25 772 -25 c 0,19,4
 564 -25 564 -25 405.5 66.5 c 128,-1,5
968 302.5 m 128,-1,21
 1052 360 1052 360 1098 465 c 128,-1,22
 1144 570 1144 570 1144 709 c 0,23,24
 1144 851 1144 851 1098.5 959 c 128,-1,25
 1053 1067 1053 1067 969 1126.5 c 128,-1,26
 885 1186 885 1186 774 1186 c 0,27,28
 666 1186 666 1186 583.5 1127 c 128,-1,29
 501 1068 501 1068 455.5 961 c 128,-1,30
 410 854 410 854 410 712 c 0,31,32
 410 572 410 572 455.5 466.5 c 128,-1,33
 501 361 501 361 583.5 303 c 128,-1,34
 666 245 666 245 774 245 c 0,35,20
 884 245 884 245 968 302.5 c 128,-1,21
EndSplineSet
EndChar

StartChar: Ohungarumlaut
Encoding: 336 336 69
Width: 1553
GlyphClass: 2
Flags: W
AnchorPoint: "Anchor-3" 1535 1434 basechar 0
AnchorPoint: "Anchor-2" 779 1384 basechar 0
AnchorPoint: "Anchor-1" 779 0 basechar 0
AnchorPoint: "Anchor-0" 0 0 basechar 0
LayerCount: 2
Back
Fore
SplineSet
626 1805 m 1,0,-1
 904 1805 l 1,1,-1
 686 1596 l 1,2,-1
 445 1596 l 1,3,-1
 626 1805 l 1,0,-1
1023 1805 m 1,4,-1
 1302 1805 l 1,5,-1
 1080 1596 l 1,6,-1
 840 1596 l 1,7,-1
 1023 1805 l 1,4,-1
405.5 66.5 m 128,-1,9
 247 158 247 158 160.5 325 c 128,-1,10
 74 492 74 492 74 712 c 0,11,12
 74 934 74 934 160.5 1103 c 128,-1,13
 247 1272 247 1272 405.5 1364.5 c 128,-1,14
 564 1457 564 1457 772 1457 c 0,15,16
 984 1457 984 1457 1145 1364.5 c 128,-1,17
 1306 1272 1306 1272 1393 1103 c 128,-1,18
 1480 934 1480 934 1479 712 c 0,19,20
 1479 492 1479 492 1391 325 c 128,-1,21
 1303 158 1303 158 1143 66.5 c 128,-1,22
 983 -25 983 -25 772 -25 c 0,23,8
 564 -25 564 -25 405.5 66.5 c 128,-1,9
968 302.5 m 128,-1,25
 1052 360 1052 360 1098 465 c 128,-1,26
 1144 570 1144 570 1144 709 c 0,27,28
 1144 851 1144 851 1098.5 959 c 128,-1,29
 1053 1067 1053 1067 969 1126.5 c 128,-1,30
 885 1186 885 1186 774 1186 c 0,31,32
 666 1186 666 1186 583.5 1127 c 128,-1,33
 501 1068 501 1068 455.5 961 c 128,-1,34
 410 854 410 854 410 712 c 0,35,36
 410 572 410 572 455.5 466.5 c 128,-1,37
 501 361 501 361 583.5 303 c 128,-1,38
 666 245 666 245 774 245 c 0,39,24
 884 245 884 245 968 302.5 c 128,-1,25
EndSplineSet
EndChar

StartChar: Omacron
Encoding: 332 332 70
Width: 1553
GlyphClass: 2
Flags: W
AnchorPoint: "Anchor-3" 1535 1434 basechar 0
AnchorPoint: "Anchor-2" 781 1926 basechar 0
AnchorPoint: "Anchor-1" 779 0 basechar 0
AnchorPoint: "Anchor-0" 0 0 basechar 0
LayerCount: 2
Back
Fore
SplineSet
414 1819 m 1,0,-1
 1144 1819 l 1,1,-1
 1144 1599 l 1,2,-1
 414 1599 l 1,3,-1
 414 1819 l 1,0,-1
405.5 66.5 m 128,-1,5
 247 158 247 158 160.5 325 c 128,-1,6
 74 492 74 492 74 712 c 0,7,8
 74 934 74 934 160.5 1103 c 128,-1,9
 247 1272 247 1272 405.5 1364.5 c 128,-1,10
 564 1457 564 1457 772 1457 c 0,11,12
 984 1457 984 1457 1145 1364.5 c 128,-1,13
 1306 1272 1306 1272 1393 1103 c 128,-1,14
 1480 934 1480 934 1479 712 c 0,15,16
 1479 492 1479 492 1391 325 c 128,-1,17
 1303 158 1303 158 1143 66.5 c 128,-1,18
 983 -25 983 -25 772 -25 c 0,19,4
 564 -25 564 -25 405.5 66.5 c 128,-1,5
968 302.5 m 128,-1,21
 1052 360 1052 360 1098 465 c 128,-1,22
 1144 570 1144 570 1144 709 c 0,23,24
 1144 851 1144 851 1098.5 959 c 128,-1,25
 1053 1067 1053 1067 969 1126.5 c 128,-1,26
 885 1186 885 1186 774 1186 c 0,27,28
 666 1186 666 1186 583.5 1127 c 128,-1,29
 501 1068 501 1068 455.5 961 c 128,-1,30
 410 854 410 854 410 712 c 0,31,32
 410 572 410 572 455.5 466.5 c 128,-1,33
 501 361 501 361 583.5 303 c 128,-1,34
 666 245 666 245 774 245 c 0,35,20
 884 245 884 245 968 302.5 c 128,-1,21
EndSplineSet
EndChar

StartChar: Oslash
Encoding: 216 216 71
Width: 1553
GlyphClass: 2
Flags: W
AnchorPoint: "Anchor-3" 1535 1434 basechar 0
AnchorPoint: "Anchor-2" 779 1384 basechar 0
AnchorPoint: "Anchor-1" 779 0 basechar 0
AnchorPoint: "Anchor-0" 0 0 basechar 0
LayerCount: 2
Back
Fore
SplineSet
1437 998.5 m 128,-1,1
 1480 868 1480 868 1479 712 c 0,2,3
 1479 492 1479 492 1391 325 c 128,-1,4
 1303 158 1303 158 1143 66.5 c 128,-1,5
 983 -25 983 -25 772 -25 c 0,6,7
 648 -25 648 -25 540.5 8 c 128,-1,8
 433 41 433 41 347 105 c 1,9,-1
 205 -61 l 1,10,-1
 80 43 l 1,11,-1
 230 217 l 1,12,13
 154 313 154 313 114 438.5 c 128,-1,14
 74 564 74 564 74 712 c 0,15,16
 74 934 74 934 160.5 1103 c 128,-1,17
 247 1272 247 1272 405.5 1364.5 c 128,-1,18
 564 1457 564 1457 772 1457 c 0,19,20
 894 1457 894 1457 999.5 1426 c 128,-1,21
 1105 1395 1105 1395 1191 1336 c 1,22,-1
 1323 1489 l 1,23,-1
 1448 1386 l 1,24,-1
 1311 1227 l 1,25,0
 1394 1129 1394 1129 1437 998.5 c 128,-1,1
452 475 m 1,27,-1
 995 1107 l 1,28,29
 902 1186 902 1186 774 1186 c 0,30,31
 666 1186 666 1186 583.5 1127 c 128,-1,32
 501 1068 501 1068 455.5 961 c 128,-1,33
 410 854 410 854 410 712 c 0,34,26
 410 581 410 581 452 475 c 1,27,-1
968 302.5 m 128,-1,36
 1052 360 1052 360 1098 465 c 128,-1,37
 1144 570 1144 570 1144 709 c 0,38,39
 1144 859 1144 859 1093 973 c 1,40,-1
 545 334 l 1,41,42
 591 291 591 291 649 268 c 128,-1,43
 707 245 707 245 774 245 c 0,44,35
 884 245 884 245 968 302.5 c 128,-1,36
EndSplineSet
EndChar

StartChar: Otilde
Encoding: 213 213 72
Width: 1552
GlyphClass: 2
Flags: W
AnchorPoint: "Anchor-3" 1535 1434 basechar 0
AnchorPoint: "Anchor-2" 781 1907 basechar 0
AnchorPoint: "Anchor-1" 779 0 basechar 0
AnchorPoint: "Anchor-0" 0 0 basechar 0
LayerCount: 2
Back
Fore
SplineSet
874.5 1608 m 128,-1,1
 839 1622 839 1622 788 1647 c 0,2,3
 782 1650 782 1650 758 1661.5 c 128,-1,4
 734 1673 734 1673 717.5 1678.5 c 128,-1,5
 701 1684 701 1684 690 1684 c 0,6,7
 610 1684 610 1684 610 1596 c 1,8,-1
 429 1596 l 1,9,10
 429 1735 429 1735 484 1812 c 128,-1,11
 539 1889 539 1889 638 1889 c 0,12,13
 673 1889 673 1889 708.5 1875.5 c 128,-1,14
 744 1862 744 1862 792 1837 c 0,15,16
 836 1815 836 1815 859.5 1805.5 c 128,-1,17
 883 1796 883 1796 906 1796 c 0,18,19
 974 1796 974 1796 974 1887 c 1,20,-1
 1148 1887 l 1,21,22
 1148 1748 1148 1748 1093 1671 c 128,-1,23
 1038 1594 1038 1594 941 1594 c 0,24,0
 910 1594 910 1594 874.5 1608 c 128,-1,1
405.5 66.5 m 128,-1,26
 247 158 247 158 160.5 325 c 128,-1,27
 74 492 74 492 74 712 c 0,28,29
 74 934 74 934 160.5 1103 c 128,-1,30
 247 1272 247 1272 405.5 1364.5 c 128,-1,31
 564 1457 564 1457 772 1457 c 0,32,33
 984 1457 984 1457 1145 1364.5 c 128,-1,34
 1306 1272 1306 1272 1393 1103 c 128,-1,35
 1480 934 1480 934 1479 712 c 0,36,37
 1479 492 1479 492 1391 325 c 128,-1,38
 1303 158 1303 158 1143 66.5 c 128,-1,39
 983 -25 983 -25 772 -25 c 0,40,25
 564 -25 564 -25 405.5 66.5 c 128,-1,26
968 302.5 m 128,-1,42
 1052 360 1052 360 1098 465 c 128,-1,43
 1144 570 1144 570 1144 709 c 0,44,45
 1144 851 1144 851 1098.5 959 c 128,-1,46
 1053 1067 1053 1067 969 1126.5 c 128,-1,47
 885 1186 885 1186 774 1186 c 0,48,49
 666 1186 666 1186 583.5 1127 c 128,-1,50
 501 1068 501 1068 455.5 961 c 128,-1,51
 410 854 410 854 410 712 c 0,52,53
 410 572 410 572 455.5 466.5 c 128,-1,54
 501 361 501 361 583.5 303 c 128,-1,55
 666 245 666 245 774 245 c 0,56,41
 884 245 884 245 968 302.5 c 128,-1,42
EndSplineSet
EndChar

StartChar: OE
Encoding: 338 338 73
Width: 1925
GlyphClass: 2
Flags: W
AnchorPoint: "Anchor-3" 0 0 basechar 0
AnchorPoint: "Anchor-2" 1402 1384 basechar 0
AnchorPoint: "Anchor-1" 1372 0 basechar 0
AnchorPoint: "Anchor-0" 1762 10 basechar 0
LayerCount: 2
Back
Fore
SplineSet
1851 252 m 1,0,-1
 1851 0 l 1,1,-1
 1077 0 l 2,2,3
 1033 0 1033 0 941 -11 c 0,4,5
 821 -25 821 -25 750 -25 c 0,6,7
 548 -25 548 -25 394 66.5 c 128,-1,8
 240 158 240 158 156 325 c 128,-1,9
 72 492 72 492 72 712 c 0,10,11
 72 934 72 934 163.5 1103 c 128,-1,12
 255 1272 255 1272 422.5 1364.5 c 128,-1,13
 590 1457 590 1457 810 1457 c 0,14,15
 872 1457 872 1457 959 1444 c 0,16,17
 1043 1434 1043 1434 1077 1434 c 2,18,-1
 1819 1434 l 1,19,-1
 1819 1181 l 1,20,-1
 1305 1181 l 1,21,-1
 1305 853 l 1,22,-1
 1757 853 l 1,23,-1
 1757 597 l 1,24,-1
 1305 597 l 1,25,-1
 1305 252 l 1,26,-1
 1851 252 l 1,0,-1
459.5 471.5 m 128,-1,28
 501 368 501 368 576.5 311.5 c 128,-1,29
 652 255 652 255 752 255 c 0,30,31
 897 255 897 255 991 270 c 1,32,-1
 991 1152 l 1,33,34
 918 1176 918 1176 812 1176 c 0,35,36
 695 1176 695 1176 605.5 1118.5 c 128,-1,37
 516 1061 516 1061 467 956 c 128,-1,38
 418 851 418 851 418 712 c 0,39,27
 418 575 418 575 459.5 471.5 c 128,-1,28
EndSplineSet
EndChar

StartChar: P
Encoding: 80 80 74
Width: 1258
GlyphClass: 2
Flags: W
AnchorPoint: "Anchor-3" 0 0 basechar 0
AnchorPoint: "Anchor-2" 629 1434 basechar 0
AnchorPoint: "Anchor-1" 629 0 basechar 0
AnchorPoint: "Anchor-0" 0 0 basechar 0
LayerCount: 2
Back
Fore
SplineSet
164 1434 m 1,0,-1
 713 1434 l 2,1,2
 867 1434 867 1434 979 1379.5 c 128,-1,3
 1091 1325 1091 1325 1151.5 1218.5 c 128,-1,4
 1212 1112 1212 1112 1212 959 c 0,5,6
 1212 817 1212 817 1144.5 712 c 128,-1,7
 1077 607 1077 607 957.5 550.5 c 128,-1,8
 838 494 838 494 684 494 c 2,9,-1
 477 494 l 1,10,-1
 477 0 l 1,11,-1
 164 0 l 1,12,-1
 164 1434 l 1,0,-1
672 739 m 2,13,14
 770 739 770 739 825 792.5 c 128,-1,15
 880 846 880 846 880 951 c 0,16,17
 880 1187 880 1187 694 1187 c 2,18,-1
 476 1186 l 1,19,-1
 476 739 l 1,20,-1
 672 739 l 2,13,14
EndSplineSet
EndChar

StartChar: Thorn
Encoding: 222 222 75
Width: 1258
GlyphClass: 2
Flags: W
AnchorPoint: "Anchor-3" 0 0 basechar 0
AnchorPoint: "Anchor-2" 629 1434 basechar 0
AnchorPoint: "Anchor-1" 629 0 basechar 0
AnchorPoint: "Anchor-0" 0 0 basechar 0
LayerCount: 2
Back
Fore
SplineSet
979 1158.5 m 128,-1,1
 1091 1104 1091 1104 1151.5 997.5 c 128,-1,2
 1212 891 1212 891 1212 738 c 0,3,4
 1212 596 1212 596 1143.5 491 c 128,-1,5
 1075 386 1075 386 953 329.5 c 128,-1,6
 831 273 831 273 674 273 c 2,7,-1
 477 273 l 1,8,-1
 477 0 l 1,9,-1
 164 0 l 1,10,-1
 164 1213 l 1,11,-1
 165 1213 l 1,12,-1
 165 1434 l 1,13,-1
 476 1434 l 1,14,-1
 476 1213 l 1,15,-1
 713 1213 l 2,16,0
 867 1213 867 1213 979 1158.5 c 128,-1,1
822 571.5 m 128,-1,18
 880 625 880 625 880 730 c 0,19,20
 880 966 880 966 684 966 c 2,21,-1
 476 965 l 1,22,-1
 476 518 l 1,23,-1
 662 518 l 2,24,17
 764 518 764 518 822 571.5 c 128,-1,18
EndSplineSet
EndChar

StartChar: Q
Encoding: 81 81 76
Width: 1553
GlyphClass: 2
Flags: W
AnchorPoint: "Anchor-3" 1535 1434 basechar 0
AnchorPoint: "Anchor-2" 777 1434 basechar 0
AnchorPoint: "Anchor-1" 777 0 basechar 0
AnchorPoint: "Anchor-0" 0 0 basechar 0
LayerCount: 2
Back
Fore
SplineSet
1354.5 -30 m 128,-1,1
 1438 -91 1438 -91 1537 -123 c 1,2,-1
 1396 -371 l 1,3,4
 1260 -333 1260 -333 1143 -238 c 128,-1,5
 1026 -143 1026 -143 947 -7 c 1,6,7
 864 -25 864 -25 772 -25 c 0,8,9
 564 -25 564 -25 405.5 66.5 c 128,-1,10
 247 158 247 158 160.5 325 c 128,-1,11
 74 492 74 492 74 712 c 0,12,13
 74 934 74 934 160.5 1103 c 128,-1,14
 247 1272 247 1272 405.5 1364.5 c 128,-1,15
 564 1457 564 1457 772 1457 c 0,16,17
 983 1457 983 1457 1143.5 1365.5 c 128,-1,18
 1304 1274 1304 1274 1391.5 1106.5 c 128,-1,19
 1479 939 1479 939 1479 719 c 0,20,21
 1479 521 1479 521 1410 366 c 128,-1,22
 1341 211 1341 211 1213 113 c 1,23,0
 1271 31 1271 31 1354.5 -30 c 128,-1,1
455.5 466.5 m 128,-1,25
 501 361 501 361 583.5 303 c 128,-1,26
 666 245 666 245 774 245 c 0,27,28
 884 245 884 245 968 302.5 c 128,-1,29
 1052 360 1052 360 1098 465 c 128,-1,30
 1144 570 1144 570 1144 709 c 0,31,32
 1144 851 1144 851 1098.5 959 c 128,-1,33
 1053 1067 1053 1067 969 1126.5 c 128,-1,34
 885 1186 885 1186 774 1186 c 0,35,36
 666 1186 666 1186 583.5 1127 c 128,-1,37
 501 1068 501 1068 455.5 961 c 128,-1,38
 410 854 410 854 410 712 c 0,39,24
 410 572 410 572 455.5 466.5 c 128,-1,25
EndSplineSet
EndChar

StartChar: R
Encoding: 82 82 77
Width: 1337
GlyphClass: 2
Flags: W
AnchorPoint: "Anchor-3" 0 0 basechar 0
AnchorPoint: "Anchor-2" 639 1374 basechar 0
AnchorPoint: "Anchor-1" 669 0 basechar 0
AnchorPoint: "Anchor-0" 0 0 basechar 0
LayerCount: 2
Back
Fore
SplineSet
1000 0 m 1,0,-1
 609 612 l 1,1,-1
 479 612 l 1,2,-1
 479 0 l 1,3,-1
 164 0 l 1,4,-1
 164 1434 l 1,5,-1
 726 1434 l 2,6,7
 867 1434 867 1434 973.5 1385.5 c 128,-1,8
 1080 1337 1080 1337 1139 1242.5 c 128,-1,9
 1198 1148 1198 1148 1198 1013 c 0,10,11
 1198 890 1198 890 1128.5 798 c 128,-1,12
 1059 706 1059 706 939 657 c 1,13,-1
 1367 0 l 1,14,-1
 1000 0 l 1,0,-1
603 783 m 2,15,16
 731 783 731 783 801 837.5 c 128,-1,17
 871 892 871 892 871 991 c 0,18,19
 871 1095 871 1095 806.5 1150 c 128,-1,20
 742 1205 742 1205 625 1202 c 2,21,-1
 478 1201 l 1,22,-1
 478 783 l 1,23,-1
 603 783 l 2,15,16
EndSplineSet
EndChar

StartChar: Racute
Encoding: 340 340 78
Width: 1337
GlyphClass: 2
Flags: W
AnchorPoint: "Anchor-3" 0 0 basechar 0
AnchorPoint: "Anchor-2" 698 1909 basechar 0
AnchorPoint: "Anchor-1" 669 0 basechar 0
AnchorPoint: "Anchor-0" 0 0 basechar 0
LayerCount: 2
Back
Fore
SplineSet
793 1586 m 1,0,-1
 475 1586 l 1,1,-1
 705 1819 l 1,2,-1
 1076 1819 l 1,3,-1
 793 1586 l 1,0,-1
1000 0 m 1,4,-1
 609 612 l 1,5,-1
 479 612 l 1,6,-1
 479 0 l 1,7,-1
 164 0 l 1,8,-1
 164 1434 l 1,9,-1
 726 1434 l 2,10,11
 867 1434 867 1434 973.5 1385.5 c 128,-1,12
 1080 1337 1080 1337 1139 1242.5 c 128,-1,13
 1198 1148 1198 1148 1198 1013 c 0,14,15
 1198 890 1198 890 1128.5 798 c 128,-1,16
 1059 706 1059 706 939 657 c 1,17,-1
 1367 0 l 1,18,-1
 1000 0 l 1,4,-1
603 783 m 2,19,20
 731 783 731 783 801 837.5 c 128,-1,21
 871 892 871 892 871 991 c 0,22,23
 871 1095 871 1095 806.5 1150 c 128,-1,24
 742 1205 742 1205 625 1202 c 2,25,-1
 478 1201 l 1,26,-1
 478 783 l 1,27,-1
 603 783 l 2,19,20
EndSplineSet
EndChar

StartChar: Rcaron
Encoding: 344 344 79
Width: 1337
GlyphClass: 2
Flags: W
AnchorPoint: "Anchor-3" 0 0 basechar 0
AnchorPoint: "Anchor-2" 641 1911 basechar 0
AnchorPoint: "Anchor-1" 669 0 basechar 0
AnchorPoint: "Anchor-0" 0 0 basechar 0
LayerCount: 2
Back
Fore
SplineSet
513 1586 m 1,0,-1
 218 1821 l 1,1,-1
 483 1821 l 1,2,-1
 638 1723 l 1,3,-1
 794 1821 l 1,4,-1
 1049 1821 l 1,5,-1
 761 1586 l 1,6,-1
 513 1586 l 1,0,-1
1000 0 m 1,7,-1
 609 612 l 1,8,-1
 479 612 l 1,9,-1
 479 0 l 1,10,-1
 164 0 l 1,11,-1
 164 1434 l 1,12,-1
 726 1434 l 2,13,14
 867 1434 867 1434 973.5 1385.5 c 128,-1,15
 1080 1337 1080 1337 1139 1242.5 c 128,-1,16
 1198 1148 1198 1148 1198 1013 c 0,17,18
 1198 890 1198 890 1128.5 798 c 128,-1,19
 1059 706 1059 706 939 657 c 1,20,-1
 1367 0 l 1,21,-1
 1000 0 l 1,7,-1
603 783 m 2,22,23
 731 783 731 783 801 837.5 c 128,-1,24
 871 892 871 892 871 991 c 0,25,26
 871 1095 871 1095 806.5 1150 c 128,-1,27
 742 1205 742 1205 625 1202 c 2,28,-1
 478 1201 l 1,29,-1
 478 783 l 1,30,-1
 603 783 l 2,22,23
EndSplineSet
EndChar

StartChar: uni0156
Encoding: 342 342 80
Width: 1337
GlyphClass: 2
Flags: W
AnchorPoint: "Anchor-3" 0 0 basechar 0
AnchorPoint: "Anchor-2" 639 1374 basechar 0
AnchorPoint: "Anchor-1" 606 -634 basechar 0
AnchorPoint: "Anchor-0" 0 0 basechar 0
LayerCount: 2
Back
Fore
SplineSet
1367 0 m 1,0,-1
 1000 0 l 1,1,-1
 609 612 l 1,2,-1
 479 612 l 1,3,-1
 479 0 l 1,4,-1
 164 0 l 1,5,-1
 164 1434 l 1,6,-1
 726 1434 l 2,7,8
 867 1434 867 1434 973.5 1385.5 c 128,-1,9
 1080 1337 1080 1337 1139 1242.5 c 128,-1,10
 1198 1148 1198 1148 1198 1013 c 0,11,12
 1198 890 1198 890 1128.5 798 c 128,-1,13
 1059 706 1059 706 939 657 c 1,14,-1
 1367 0 l 1,0,-1
603 783 m 2,15,16
 731 783 731 783 801 837.5 c 128,-1,17
 871 892 871 892 871 991 c 0,18,19
 871 1095 871 1095 806.5 1150 c 128,-1,20
 742 1205 742 1205 625 1202 c 2,21,-1
 478 1201 l 1,22,-1
 478 783 l 1,23,-1
 603 783 l 2,15,16
505.5 -289 m 128,-1,25
 530 -208 530 -208 537 -132 c 1,26,-1
 807 -132 l 1,27,28
 806 -263 806 -263 770.5 -375.5 c 128,-1,29
 735 -488 735 -488 667 -564 c 1,30,-1
 440 -444 l 1,31,24
 481 -370 481 -370 505.5 -289 c 128,-1,25
EndSplineSet
EndChar

StartChar: S
Encoding: 83 83 81
Width: 1148
GlyphClass: 2
Flags: W
AnchorPoint: "Anchor-3" 0 0 basechar 0
AnchorPoint: "Anchor-2" 579 1384 basechar 0
AnchorPoint: "Anchor-1" 574 0 basechar 0
AnchorPoint: "Anchor-0" 0 0 basechar 0
LayerCount: 2
Back
Fore
SplineSet
326.5 6.5 m 128,-1,1
 219 34 219 34 80 98 c 1,2,-1
 185 377 l 1,3,4
 305 318 305 318 384 296 c 128,-1,5
 463 274 463 274 551 274 c 0,6,7
 671 274 671 274 726 315.5 c 128,-1,8
 781 357 781 357 781 426 c 0,9,10
 781 463 781 463 751.5 490 c 128,-1,11
 722 517 722 517 677 536.5 c 128,-1,12
 632 556 632 556 548 587 c 0,13,14
 414 635 414 635 327.5 679.5 c 128,-1,15
 241 724 241 724 178.5 805 c 128,-1,16
 116 886 116 886 116 1010 c 0,17,18
 116 1161 116 1161 191 1261.5 c 128,-1,19
 266 1362 266 1362 387 1409.5 c 128,-1,20
 508 1457 508 1457 649 1457 c 0,21,22
 754 1457 754 1457 846 1437 c 128,-1,23
 938 1417 938 1417 1028 1380 c 1,24,-1
 933 1113 l 1,25,-1
 908 1122 l 2,26,27
 846 1146 846 1146 792 1159 c 128,-1,28
 738 1172 738 1172 662 1172 c 0,29,30
 579 1172 579 1172 517.5 1137.5 c 128,-1,31
 456 1103 456 1103 456 1029 c 0,32,33
 456 995 456 995 482 970 c 128,-1,34
 508 945 508 945 548 926.5 c 128,-1,35
 588 908 588 908 663 880 c 0,36,37
 789 834 789 834 873 788 c 128,-1,38
 957 742 957 742 1018.5 656 c 128,-1,39
 1080 570 1080 570 1080 436 c 0,40,41
 1080 296 1080 296 1018 193 c 128,-1,42
 956 90 956 90 838 34.5 c 128,-1,43
 720 -21 720 -21 554 -21 c 0,44,0
 434 -21 434 -21 326.5 6.5 c 128,-1,1
EndSplineSet
EndChar

StartChar: Sacute
Encoding: 346 346 82
Width: 1148
GlyphClass: 2
Flags: W
AnchorPoint: "Anchor-3" 0 0 basechar 0
AnchorPoint: "Anchor-2" 638 1919 basechar 0
AnchorPoint: "Anchor-1" 574 0 basechar 0
AnchorPoint: "Anchor-0" 0 0 basechar 0
LayerCount: 2
Back
Fore
SplineSet
645 1829 m 1,0,-1
 1016 1829 l 1,1,-1
 733 1596 l 1,2,-1
 415 1596 l 1,3,-1
 645 1829 l 1,0,-1
326.5 6.5 m 128,-1,5
 219 34 219 34 80 98 c 1,6,-1
 185 377 l 1,7,8
 305 318 305 318 384 296 c 128,-1,9
 463 274 463 274 551 274 c 0,10,11
 671 274 671 274 726 315.5 c 128,-1,12
 781 357 781 357 781 426 c 0,13,14
 781 463 781 463 751.5 490 c 128,-1,15
 722 517 722 517 677 536.5 c 128,-1,16
 632 556 632 556 548 587 c 0,17,18
 414 635 414 635 327.5 679.5 c 128,-1,19
 241 724 241 724 178.5 805 c 128,-1,20
 116 886 116 886 116 1010 c 0,21,22
 116 1161 116 1161 191 1261.5 c 128,-1,23
 266 1362 266 1362 387 1409.5 c 128,-1,24
 508 1457 508 1457 649 1457 c 0,25,26
 754 1457 754 1457 846 1437 c 128,-1,27
 938 1417 938 1417 1028 1380 c 1,28,-1
 933 1113 l 1,29,-1
 908 1122 l 2,30,31
 846 1146 846 1146 792 1159 c 128,-1,32
 738 1172 738 1172 662 1172 c 0,33,34
 579 1172 579 1172 517.5 1137.5 c 128,-1,35
 456 1103 456 1103 456 1029 c 0,36,37
 456 995 456 995 482 970 c 128,-1,38
 508 945 508 945 548 926.5 c 128,-1,39
 588 908 588 908 663 880 c 0,40,41
 789 834 789 834 873 788 c 128,-1,42
 957 742 957 742 1018.5 656 c 128,-1,43
 1080 570 1080 570 1080 436 c 0,44,45
 1080 296 1080 296 1018 193 c 128,-1,46
 956 90 956 90 838 34.5 c 128,-1,47
 720 -21 720 -21 554 -21 c 0,48,4
 434 -21 434 -21 326.5 6.5 c 128,-1,5
EndSplineSet
EndChar

StartChar: Scaron
Encoding: 352 352 83
Width: 1148
GlyphClass: 2
Flags: W
AnchorPoint: "Anchor-3" 0 0 basechar 0
AnchorPoint: "Anchor-2" 581 1921 basechar 0
AnchorPoint: "Anchor-1" 574 0 basechar 0
AnchorPoint: "Anchor-0" 0 0 basechar 0
LayerCount: 2
Back
Fore
SplineSet
158 1831 m 1,0,-1
 423 1831 l 1,1,-1
 578 1733 l 1,2,-1
 734 1831 l 1,3,-1
 989 1831 l 1,4,-1
 701 1596 l 1,5,-1
 453 1596 l 1,6,-1
 158 1831 l 1,0,-1
326.5 6.5 m 128,-1,8
 219 34 219 34 80 98 c 1,9,-1
 185 377 l 1,10,11
 305 318 305 318 384 296 c 128,-1,12
 463 274 463 274 551 274 c 0,13,14
 671 274 671 274 726 315.5 c 128,-1,15
 781 357 781 357 781 426 c 0,16,17
 781 463 781 463 751.5 490 c 128,-1,18
 722 517 722 517 677 536.5 c 128,-1,19
 632 556 632 556 548 587 c 0,20,21
 414 635 414 635 327.5 679.5 c 128,-1,22
 241 724 241 724 178.5 805 c 128,-1,23
 116 886 116 886 116 1010 c 0,24,25
 116 1161 116 1161 191 1261.5 c 128,-1,26
 266 1362 266 1362 387 1409.5 c 128,-1,27
 508 1457 508 1457 649 1457 c 0,28,29
 754 1457 754 1457 846 1437 c 128,-1,30
 938 1417 938 1417 1028 1380 c 1,31,-1
 933 1113 l 1,32,-1
 908 1122 l 2,33,34
 846 1146 846 1146 792 1159 c 128,-1,35
 738 1172 738 1172 662 1172 c 0,36,37
 579 1172 579 1172 517.5 1137.5 c 128,-1,38
 456 1103 456 1103 456 1029 c 0,39,40
 456 995 456 995 482 970 c 128,-1,41
 508 945 508 945 548 926.5 c 128,-1,42
 588 908 588 908 663 880 c 0,43,44
 789 834 789 834 873 788 c 128,-1,45
 957 742 957 742 1018.5 656 c 128,-1,46
 1080 570 1080 570 1080 436 c 0,47,48
 1080 296 1080 296 1018 193 c 128,-1,49
 956 90 956 90 838 34.5 c 128,-1,50
 720 -21 720 -21 554 -21 c 0,51,7
 434 -21 434 -21 326.5 6.5 c 128,-1,8
EndSplineSet
EndChar

StartChar: Scedilla
Encoding: 350 350 84
Width: 1148
GlyphClass: 2
Flags: W
AnchorPoint: "Anchor-3" 0 0 basechar 0
AnchorPoint: "Anchor-2" 579 1384 basechar 0
AnchorPoint: "Anchor-1" 646 -455 basechar 0
AnchorPoint: "Anchor-0" 0 0 basechar 0
LayerCount: 2
Back
Fore
SplineSet
482 970 m 128,-1,1
 508 945 508 945 548 926.5 c 128,-1,2
 588 908 588 908 663 880 c 0,3,4
 789 834 789 834 873 788 c 128,-1,5
 957 742 957 742 1018.5 656 c 128,-1,6
 1080 570 1080 570 1080 436 c 0,7,8
 1080 310 1080 310 1029.5 213 c 128,-1,9
 979 116 979 116 882 57 c 128,-1,10
 785 -2 785 -2 648 -16 c 1,11,-1
 648 -62 l 1,12,13
 888 -71 888 -71 888 -248 c 0,14,15
 888 -455 888 -455 530 -455 c 0,16,17
 479 -455 479 -455 442 -451 c 1,18,-1
 442 -273 l 1,19,20
 477 -279 477 -279 514 -279 c 0,21,22
 564 -279 564 -279 590.5 -264 c 128,-1,23
 617 -249 617 -249 617 -226 c 0,24,25
 617 -160 617 -160 526 -160 c 1,26,-1
 505 -162 l 1,27,-1
 505 -20 l 1,28,29
 402 -15 402 -15 303.5 13 c 128,-1,30
 205 41 205 41 80 98 c 1,31,-1
 185 377 l 1,32,33
 305 318 305 318 384 296 c 128,-1,34
 463 274 463 274 551 274 c 0,35,36
 671 274 671 274 726 315.5 c 128,-1,37
 781 357 781 357 781 426 c 0,38,39
 781 463 781 463 751.5 490 c 128,-1,40
 722 517 722 517 677 536.5 c 128,-1,41
 632 556 632 556 548 587 c 0,42,43
 414 635 414 635 327.5 679.5 c 128,-1,44
 241 724 241 724 178.5 805 c 128,-1,45
 116 886 116 886 116 1010 c 0,46,47
 116 1161 116 1161 191 1261.5 c 128,-1,48
 266 1362 266 1362 387 1409.5 c 128,-1,49
 508 1457 508 1457 649 1457 c 0,50,51
 754 1457 754 1457 846 1437 c 128,-1,52
 938 1417 938 1417 1028 1380 c 1,53,-1
 933 1113 l 1,54,-1
 908 1122 l 2,55,56
 846 1146 846 1146 792 1159 c 128,-1,57
 738 1172 738 1172 662 1172 c 0,58,59
 579 1172 579 1172 517.5 1137.5 c 128,-1,60
 456 1103 456 1103 456 1029 c 0,61,0
 456 995 456 995 482 970 c 128,-1,1
EndSplineSet
Substitution2: "'locl' Localized Forms in Latin lookup 5 subtable" uni0218
Substitution2: "'locl' Localized Forms in Latin lookup 4 subtable" uni0218
Substitution2: "'aalt' Access All Alternates in Latin lookup 0 subtable" uni0218
EndChar

StartChar: uni0218
Encoding: 536 536 85
Width: 1148
GlyphClass: 2
Flags: W
AnchorPoint: "Anchor-3" 0 0 basechar 0
AnchorPoint: "Anchor-2" 579 1384 basechar 0
AnchorPoint: "Anchor-1" 511 -634 basechar 0
AnchorPoint: "Anchor-0" 0 0 basechar 0
LayerCount: 2
Back
Fore
SplineSet
326.5 6.5 m 128,-1,1
 219 34 219 34 80 98 c 1,2,-1
 185 377 l 1,3,4
 305 318 305 318 384 296 c 128,-1,5
 463 274 463 274 551 274 c 0,6,7
 671 274 671 274 726 315.5 c 128,-1,8
 781 357 781 357 781 426 c 0,9,10
 781 463 781 463 751.5 490 c 128,-1,11
 722 517 722 517 677 536.5 c 128,-1,12
 632 556 632 556 548 587 c 0,13,14
 414 635 414 635 327.5 679.5 c 128,-1,15
 241 724 241 724 178.5 805 c 128,-1,16
 116 886 116 886 116 1010 c 0,17,18
 116 1161 116 1161 191 1261.5 c 128,-1,19
 266 1362 266 1362 387 1409.5 c 128,-1,20
 508 1457 508 1457 649 1457 c 0,21,22
 754 1457 754 1457 846 1437 c 128,-1,23
 938 1417 938 1417 1028 1380 c 1,24,-1
 933 1113 l 1,25,-1
 908 1122 l 2,26,27
 846 1146 846 1146 792 1159 c 128,-1,28
 738 1172 738 1172 662 1172 c 0,29,30
 579 1172 579 1172 517.5 1137.5 c 128,-1,31
 456 1103 456 1103 456 1029 c 0,32,33
 456 995 456 995 482 970 c 128,-1,34
 508 945 508 945 548 926.5 c 128,-1,35
 588 908 588 908 663 880 c 0,36,37
 789 834 789 834 873 788 c 128,-1,38
 957 742 957 742 1018.5 656 c 128,-1,39
 1080 570 1080 570 1080 436 c 0,40,41
 1080 296 1080 296 1018 193 c 128,-1,42
 956 90 956 90 838 34.5 c 128,-1,43
 720 -21 720 -21 554 -21 c 0,44,0
 434 -21 434 -21 326.5 6.5 c 128,-1,1
345 -444 m 1,45,46
 386 -370 386 -370 410.5 -289 c 128,-1,47
 435 -208 435 -208 442 -132 c 1,48,-1
 712 -132 l 1,49,50
 711 -263 711 -263 675.5 -375.5 c 128,-1,51
 640 -488 640 -488 572 -564 c 1,52,-1
 345 -444 l 1,45,46
EndSplineSet
EndChar

StartChar: T
Encoding: 84 84 86
Width: 1200
GlyphClass: 2
Flags: W
AnchorPoint: "Anchor-3" 0 0 basechar 0
AnchorPoint: "Anchor-2" 600 1384 basechar 0
AnchorPoint: "Anchor-1" 603 0 basechar 0
AnchorPoint: "Anchor-0" 0 0 basechar 0
LayerCount: 2
Back
Fore
SplineSet
444 1176 m 1,0,-1
 31 1176 l 1,1,-1
 31 1434 l 1,2,-1
 1171 1434 l 1,3,-1
 1171 1176 l 1,4,-1
 757 1176 l 1,5,-1
 757 0 l 1,6,-1
 444 0 l 1,7,-1
 444 1176 l 1,0,-1
EndSplineSet
EndChar

StartChar: Tbar
Encoding: 358 358 87
Width: 1200
GlyphClass: 2
Flags: W
AnchorPoint: "Anchor-3" 0 0 basechar 0
AnchorPoint: "Anchor-2" 600 1384 basechar 0
AnchorPoint: "Anchor-1" 603 0 basechar 0
AnchorPoint: "Anchor-0" 0 0 basechar 0
LayerCount: 2
Back
Fore
SplineSet
757 1176 m 1,0,-1
 757 852 l 1,1,-1
 951 852 l 1,2,-1
 951 620 l 1,3,-1
 757 620 l 1,4,-1
 757 0 l 1,5,-1
 444 0 l 1,6,-1
 444 620 l 1,7,-1
 243 620 l 1,8,-1
 243 852 l 1,9,-1
 444 852 l 1,10,-1
 444 1176 l 1,11,-1
 31 1176 l 1,12,-1
 31 1434 l 1,13,-1
 1171 1434 l 1,14,-1
 1171 1176 l 1,15,-1
 757 1176 l 1,0,-1
EndSplineSet
EndChar

StartChar: Tcaron
Encoding: 356 356 88
Width: 1200
GlyphClass: 2
Flags: W
AnchorPoint: "Anchor-3" 0 0 basechar 0
AnchorPoint: "Anchor-2" 602 1921 basechar 0
AnchorPoint: "Anchor-1" 603 0 basechar 0
AnchorPoint: "Anchor-0" 0 0 basechar 0
LayerCount: 2
Back
Fore
SplineSet
179 1831 m 1,0,-1
 444 1831 l 1,1,-1
 599 1733 l 1,2,-1
 755 1831 l 1,3,-1
 1010 1831 l 1,4,-1
 722 1596 l 1,5,-1
 474 1596 l 1,6,-1
 179 1831 l 1,0,-1
444 1176 m 1,7,-1
 31 1176 l 1,8,-1
 31 1434 l 1,9,-1
 1171 1434 l 1,10,-1
 1171 1176 l 1,11,-1
 757 1176 l 1,12,-1
 757 0 l 1,13,-1
 444 0 l 1,14,-1
 444 1176 l 1,7,-1
EndSplineSet
EndChar

StartChar: uni0162
Encoding: 354 354 89
Width: 1200
GlyphClass: 2
Flags: W
AnchorPoint: "Anchor-3" 0 0 basechar 0
AnchorPoint: "Anchor-2" 600 1384 basechar 0
AnchorPoint: "Anchor-1" 675 -455 basechar 0
AnchorPoint: "Anchor-0" 0 0 basechar 0
LayerCount: 2
Back
Fore
SplineSet
677 0 m 1,0,-1
 677 -62 l 1,1,2
 917 -71 917 -71 917 -248 c 0,3,4
 917 -455 917 -455 559 -455 c 0,5,6
 508 -455 508 -455 471 -451 c 1,7,-1
 471 -273 l 1,8,9
 506 -279 506 -279 543 -279 c 0,10,11
 593 -279 593 -279 619.5 -264 c 128,-1,12
 646 -249 646 -249 646 -226 c 0,13,14
 646 -160 646 -160 555 -160 c 1,15,-1
 534 -162 l 1,16,-1
 534 0 l 1,17,-1
 444 0 l 1,18,-1
 444 1176 l 1,19,-1
 31 1176 l 1,20,-1
 31 1434 l 1,21,-1
 1171 1434 l 1,22,-1
 1171 1176 l 1,23,-1
 757 1176 l 1,24,-1
 757 0 l 1,25,-1
 677 0 l 1,0,-1
EndSplineSet
Substitution2: "'locl' Localized Forms in Latin lookup 5 subtable" uni021A
Substitution2: "'locl' Localized Forms in Latin lookup 4 subtable" uni021A
Substitution2: "'aalt' Access All Alternates in Latin lookup 0 subtable" uni021A
EndChar

StartChar: uni021A
Encoding: 538 538 90
Width: 1200
GlyphClass: 2
Flags: W
AnchorPoint: "Anchor-3" 0 0 basechar 0
AnchorPoint: "Anchor-2" 600 1384 basechar 0
AnchorPoint: "Anchor-1" 540 -634 basechar 0
AnchorPoint: "Anchor-0" 0 0 basechar 0
LayerCount: 2
Back
Fore
SplineSet
444 1176 m 1,0,-1
 31 1176 l 1,1,-1
 31 1434 l 1,2,-1
 1171 1434 l 1,3,-1
 1171 1176 l 1,4,-1
 757 1176 l 1,5,-1
 757 0 l 1,6,-1
 444 0 l 1,7,-1
 444 1176 l 1,0,-1
374 -444 m 1,8,9
 415 -370 415 -370 439.5 -289 c 128,-1,10
 464 -208 464 -208 471 -132 c 1,11,-1
 741 -132 l 1,12,13
 740 -263 740 -263 704.5 -375.5 c 128,-1,14
 669 -488 669 -488 601 -564 c 1,15,-1
 374 -444 l 1,8,9
EndSplineSet
EndChar

StartChar: U
Encoding: 85 85 91
Width: 1481
GlyphClass: 2
Flags: W
AnchorPoint: "Anchor-3" 1461 1434 basechar 0
AnchorPoint: "Anchor-2" 741 1384 basechar 0
AnchorPoint: "Anchor-1" 741 0 basechar 0
AnchorPoint: "Anchor-0" 833 10 basechar 0
LayerCount: 2
Back
Fore
SplineSet
290.5 125 m 128,-1,1
 147 274 147 274 147 557 c 2,2,-1
 147 1434 l 1,3,-1
 461 1434 l 1,4,-1
 461 578 l 2,5,6
 461 256 461 256 749 256 c 0,7,8
 1020 256 1020 256 1020 563 c 2,9,-1
 1020 1434 l 1,10,-1
 1333 1434 l 1,11,-1
 1333 580 l 2,12,13
 1333 -24 1333 -24 732 -24 c 0,14,0
 434 -24 434 -24 290.5 125 c 128,-1,1
EndSplineSet
EndChar

StartChar: Uacute
Encoding: 218 218 92
Width: 1481
GlyphClass: 2
Flags: W
AnchorPoint: "Anchor-3" 1461 1434 basechar 0
AnchorPoint: "Anchor-2" 800 1919 basechar 0
AnchorPoint: "Anchor-1" 741 0 basechar 0
AnchorPoint: "Anchor-0" 833 10 basechar 0
LayerCount: 2
Back
Fore
SplineSet
807 1829 m 1,0,-1
 1178 1829 l 1,1,-1
 895 1596 l 1,2,-1
 577 1596 l 1,3,-1
 807 1829 l 1,0,-1
290.5 125 m 128,-1,5
 147 274 147 274 147 557 c 2,6,-1
 147 1434 l 1,7,-1
 461 1434 l 1,8,-1
 461 578 l 2,9,10
 461 256 461 256 749 256 c 0,11,12
 1020 256 1020 256 1020 563 c 2,13,-1
 1020 1434 l 1,14,-1
 1333 1434 l 1,15,-1
 1333 580 l 2,16,17
 1333 -24 1333 -24 732 -24 c 0,18,4
 434 -24 434 -24 290.5 125 c 128,-1,5
EndSplineSet
EndChar

StartChar: Ucircumflex
Encoding: 219 219 93
Width: 1481
GlyphClass: 2
Flags: W
AnchorPoint: "Anchor-3" 1461 1434 basechar 0
AnchorPoint: "Anchor-2" 743 1921 basechar 0
AnchorPoint: "Anchor-1" 741 0 basechar 0
AnchorPoint: "Anchor-0" 833 10 basechar 0
LayerCount: 2
Back
Fore
SplineSet
614 1861 m 1,0,-1
 862 1861 l 1,1,-1
 1158 1596 l 1,2,-1
 901 1596 l 1,3,-1
 733 1734 l 1,4,-1
 586 1596 l 1,5,-1
 329 1596 l 1,6,-1
 614 1861 l 1,0,-1
290.5 125 m 128,-1,8
 147 274 147 274 147 557 c 2,9,-1
 147 1434 l 1,10,-1
 461 1434 l 1,11,-1
 461 578 l 2,12,13
 461 256 461 256 749 256 c 0,14,15
 1020 256 1020 256 1020 563 c 2,16,-1
 1020 1434 l 1,17,-1
 1333 1434 l 1,18,-1
 1333 580 l 2,19,20
 1333 -24 1333 -24 732 -24 c 0,21,7
 434 -24 434 -24 290.5 125 c 128,-1,8
EndSplineSet
EndChar

StartChar: Udieresis
Encoding: 220 220 94
Width: 1481
GlyphClass: 2
Flags: W
AnchorPoint: "Anchor-3" 1461 1434 basechar 0
AnchorPoint: "Anchor-2" 743 1870 basechar 0
AnchorPoint: "Anchor-1" 741 0 basechar 0
AnchorPoint: "Anchor-0" 833 10 basechar 0
LayerCount: 2
Back
Fore
SplineSet
387.5 1621.5 m 128,-1,1
 343 1661 343 1661 343 1733 c 256,2,3
 343 1805 343 1805 387.5 1844.5 c 128,-1,4
 432 1884 432 1884 512 1884 c 256,5,6
 592 1884 592 1884 636 1844.5 c 128,-1,7
 680 1805 680 1805 680 1733 c 256,8,9
 680 1661 680 1661 636 1621.5 c 128,-1,10
 592 1582 592 1582 512 1582 c 256,11,0
 432 1582 432 1582 387.5 1621.5 c 128,-1,1
846 1621.5 m 128,-1,13
 802 1661 802 1661 802 1733 c 256,14,15
 802 1805 802 1805 846 1844.5 c 128,-1,16
 890 1884 890 1884 970 1884 c 256,17,18
 1050 1884 1050 1884 1094.5 1844.5 c 128,-1,19
 1139 1805 1139 1805 1139 1733 c 256,20,21
 1139 1661 1139 1661 1094.5 1621.5 c 128,-1,22
 1050 1582 1050 1582 970 1582 c 256,23,12
 890 1582 890 1582 846 1621.5 c 128,-1,13
290.5 125 m 128,-1,25
 147 274 147 274 147 557 c 2,26,-1
 147 1434 l 1,27,-1
 461 1434 l 1,28,-1
 461 578 l 2,29,30
 461 256 461 256 749 256 c 0,31,32
 1020 256 1020 256 1020 563 c 2,33,-1
 1020 1434 l 1,34,-1
 1333 1434 l 1,35,-1
 1333 580 l 2,36,37
 1333 -24 1333 -24 732 -24 c 0,38,24
 434 -24 434 -24 290.5 125 c 128,-1,25
EndSplineSet
EndChar

StartChar: Ugrave
Encoding: 217 217 95
Width: 1481
GlyphClass: 2
Flags: W
AnchorPoint: "Anchor-3" 1461 1434 basechar 0
AnchorPoint: "Anchor-2" 583 1919 basechar 0
AnchorPoint: "Anchor-1" 741 0 basechar 0
AnchorPoint: "Anchor-0" 833 10 basechar 0
LayerCount: 2
Back
Fore
SplineSet
350 1819 m 1,0,-1
 701 1819 l 1,1,-1
 891 1596 l 1,2,-1
 574 1596 l 1,3,-1
 350 1819 l 1,0,-1
290.5 125 m 128,-1,5
 147 274 147 274 147 557 c 2,6,-1
 147 1434 l 1,7,-1
 461 1434 l 1,8,-1
 461 578 l 2,9,10
 461 256 461 256 749 256 c 0,11,12
 1020 256 1020 256 1020 563 c 2,13,-1
 1020 1434 l 1,14,-1
 1333 1434 l 1,15,-1
 1333 580 l 2,16,17
 1333 -24 1333 -24 732 -24 c 0,18,4
 434 -24 434 -24 290.5 125 c 128,-1,5
EndSplineSet
EndChar

StartChar: Uhungarumlaut
Encoding: 368 368 96
Width: 1481
GlyphClass: 2
Flags: W
AnchorPoint: "Anchor-3" 1461 1434 basechar 0
AnchorPoint: "Anchor-2" 741 1384 basechar 0
AnchorPoint: "Anchor-1" 741 0 basechar 0
AnchorPoint: "Anchor-0" 833 10 basechar 0
LayerCount: 2
Back
Fore
SplineSet
588 1805 m 1,0,-1
 866 1805 l 1,1,-1
 648 1596 l 1,2,-1
 407 1596 l 1,3,-1
 588 1805 l 1,0,-1
985 1805 m 1,4,-1
 1264 1805 l 1,5,-1
 1042 1596 l 1,6,-1
 802 1596 l 1,7,-1
 985 1805 l 1,4,-1
290.5 125 m 128,-1,9
 147 274 147 274 147 557 c 2,10,-1
 147 1434 l 1,11,-1
 461 1434 l 1,12,-1
 461 578 l 2,13,14
 461 256 461 256 749 256 c 0,15,16
 1020 256 1020 256 1020 563 c 2,17,-1
 1020 1434 l 1,18,-1
 1333 1434 l 1,19,-1
 1333 580 l 2,20,21
 1333 -24 1333 -24 732 -24 c 0,22,8
 434 -24 434 -24 290.5 125 c 128,-1,9
EndSplineSet
EndChar

StartChar: Umacron
Encoding: 362 362 97
Width: 1481
GlyphClass: 2
Flags: W
AnchorPoint: "Anchor-3" 1461 1434 basechar 0
AnchorPoint: "Anchor-2" 743 1926 basechar 0
AnchorPoint: "Anchor-1" 741 0 basechar 0
AnchorPoint: "Anchor-0" 833 10 basechar 0
LayerCount: 2
Back
Fore
SplineSet
376 1819 m 1,0,-1
 1106 1819 l 1,1,-1
 1106 1599 l 1,2,-1
 376 1599 l 1,3,-1
 376 1819 l 1,0,-1
290.5 125 m 128,-1,5
 147 274 147 274 147 557 c 2,6,-1
 147 1434 l 1,7,-1
 461 1434 l 1,8,-1
 461 578 l 2,9,10
 461 256 461 256 749 256 c 0,11,12
 1020 256 1020 256 1020 563 c 2,13,-1
 1020 1434 l 1,14,-1
 1333 1434 l 1,15,-1
 1333 580 l 2,16,17
 1333 -24 1333 -24 732 -24 c 0,18,4
 434 -24 434 -24 290.5 125 c 128,-1,5
EndSplineSet
EndChar

StartChar: Uogonek
Encoding: 370 370 98
Width: 1481
GlyphClass: 2
Flags: W
AnchorPoint: "Anchor-3" 1461 1434 basechar 0
AnchorPoint: "Anchor-2" 741 1384 basechar 0
AnchorPoint: "Anchor-1" 741 0 basechar 0
AnchorPoint: "Anchor-0" 833 10 basechar 0
LayerCount: 2
Back
Fore
SplineSet
1333 1434 m 1,0,-1
 1333 580 l 2,1,2
 1333 67 1333 67 901 -10 c 1,3,4
 743 -88 743 -88 743 -148 c 0,5,6
 743 -187 743 -187 765.5 -205.5 c 128,-1,7
 788 -224 788 -224 836 -224 c 0,8,9
 865 -224 865 -224 898 -212 c 1,10,-1
 928 -400 l 1,11,12
 830 -419 830 -419 712 -419 c 0,13,14
 515 -419 515 -419 515 -235 c 0,15,16
 515 -165 515 -165 547.5 -113.5 c 128,-1,17
 580 -62 580 -62 643 -20 c 1,18,19
 391 1 391 1 269 148.5 c 128,-1,20
 147 296 147 296 147 557 c 2,21,-1
 147 1434 l 1,22,-1
 461 1434 l 1,23,-1
 461 578 l 2,24,25
 461 256 461 256 749 256 c 0,26,27
 1020 256 1020 256 1020 563 c 2,28,-1
 1020 1434 l 1,29,-1
 1333 1434 l 1,0,-1
EndSplineSet
EndChar

StartChar: Uring
Encoding: 366 366 99
Width: 1481
GlyphClass: 2
Flags: W
AnchorPoint: "Anchor-3" 1461 1434 basechar 0
AnchorPoint: "Anchor-2" 742 1919 basechar 0
AnchorPoint: "Anchor-1" 741 0 basechar 0
AnchorPoint: "Anchor-0" 833 10 basechar 0
LayerCount: 2
Back
Fore
SplineSet
616 1605 m 128,-1,1
 562 1633 562 1633 531.5 1682 c 128,-1,2
 501 1731 501 1731 501 1792 c 0,3,4
 501 1854 501 1854 532.5 1904.5 c 128,-1,5
 564 1955 564 1955 618.5 1984 c 128,-1,6
 673 2013 673 2013 741 2013 c 0,7,8
 808 2013 808 2013 862.5 1985 c 128,-1,9
 917 1957 917 1957 948.5 1908 c 128,-1,10
 980 1859 980 1859 980 1798 c 0,11,12
 980 1736 980 1736 948 1685.5 c 128,-1,13
 916 1635 916 1635 860.5 1606 c 128,-1,14
 805 1577 805 1577 736 1577 c 0,15,0
 670 1577 670 1577 616 1605 c 128,-1,1
797 1743 m 128,-1,17
 819 1764 819 1764 819 1796 c 256,18,19
 819 1828 819 1828 797 1849 c 128,-1,20
 775 1870 775 1870 742 1870 c 0,21,22
 707 1870 707 1870 683.5 1849 c 128,-1,23
 660 1828 660 1828 660 1796 c 256,24,25
 660 1764 660 1764 683.5 1743 c 128,-1,26
 707 1722 707 1722 742 1722 c 0,27,16
 775 1722 775 1722 797 1743 c 128,-1,17
290.5 125 m 128,-1,29
 147 274 147 274 147 557 c 2,30,-1
 147 1434 l 1,31,-1
 461 1434 l 1,32,-1
 461 578 l 2,33,34
 461 256 461 256 749 256 c 0,35,36
 1020 256 1020 256 1020 563 c 2,37,-1
 1020 1434 l 1,38,-1
 1333 1434 l 1,39,-1
 1333 580 l 2,40,41
 1333 -24 1333 -24 732 -24 c 0,42,28
 434 -24 434 -24 290.5 125 c 128,-1,29
EndSplineSet
EndChar

StartChar: V
Encoding: 86 86 100
Width: 1366
GlyphClass: 2
Flags: W
AnchorPoint: "Anchor-3" 0 0 basechar 0
AnchorPoint: "Anchor-2" 683 1384 basechar 0
AnchorPoint: "Anchor-1" 683 0 basechar 0
AnchorPoint: "Anchor-0" 0 0 basechar 0
LayerCount: 2
Back
Fore
SplineSet
10 1433 m 1,0,-1
 350 1433 l 1,1,-1
 651 424 l 2,2,3
 676 341 676 341 681 297 c 1,4,-1
 685 297 l 1,5,6
 689 325 689 325 698.5 359.5 c 128,-1,7
 708 394 708 394 719 427 c 2,8,-1
 1031 1434 l 1,9,-1
 1360 1433 l 1,10,-1
 863 -1 l 1,11,-1
 501 -1 l 1,12,-1
 10 1433 l 1,0,-1
EndSplineSet
EndChar

StartChar: W
Encoding: 87 87 101
Width: 2058
GlyphClass: 2
Flags: W
AnchorPoint: "Anchor-3" 0 0 basechar 0
AnchorPoint: "Anchor-2" 1049 1384 basechar 0
AnchorPoint: "Anchor-1" 1029 0 basechar 0
AnchorPoint: "Anchor-0" 0 0 basechar 0
LayerCount: 2
Back
Fore
SplineSet
18 1434 m 1,0,-1
 361 1434 l 1,1,-1
 567 479 l 2,2,3
 589 382 589 382 591 335 c 1,4,-1
 596 335 l 1,5,6
 599 359 599 359 608.5 401 c 128,-1,7
 618 443 618 443 628 479 c 2,8,-1
 897 1434 l 1,9,-1
 1224 1434 l 1,10,-1
 1466 471 l 2,11,12
 1483 400 1483 400 1490 337 c 1,13,-1
 1494 337 l 1,14,15
 1495 366 1495 366 1513 437 c 2,16,-1
 1521 475 l 1,17,-1
 1724 1434 l 1,18,-1
 2040 1434 l 1,19,-1
 1661 0 l 1,20,-1
 1314 0 l 1,21,-1
 1070 943 l 2,22,23
 1062 976 1062 976 1055 1017 c 128,-1,24
 1048 1058 1048 1058 1047 1089 c 1,25,-1
 1043 1089 l 1,26,27
 1037 1018 1037 1018 1017 945 c 2,28,-1
 758 0 l 1,29,-1
 395 0 l 1,30,-1
 18 1434 l 1,0,-1
EndSplineSet
EndChar

StartChar: Wacute
Encoding: 7810 7810 102
Width: 2058
GlyphClass: 2
Flags: W
AnchorPoint: "Anchor-3" 0 0 basechar 0
AnchorPoint: "Anchor-2" 1108 1919 basechar 0
AnchorPoint: "Anchor-1" 1029 0 basechar 0
AnchorPoint: "Anchor-0" 0 0 basechar 0
LayerCount: 2
Back
Fore
SplineSet
1115 1829 m 1,0,-1
 1486 1829 l 1,1,-1
 1203 1596 l 1,2,-1
 885 1596 l 1,3,-1
 1115 1829 l 1,0,-1
18 1434 m 1,4,-1
 361 1434 l 1,5,-1
 567 479 l 2,6,7
 589 382 589 382 591 335 c 1,8,-1
 596 335 l 1,9,10
 599 359 599 359 608.5 401 c 128,-1,11
 618 443 618 443 628 479 c 2,12,-1
 897 1434 l 1,13,-1
 1224 1434 l 1,14,-1
 1466 471 l 2,15,16
 1483 400 1483 400 1490 337 c 1,17,-1
 1494 337 l 1,18,19
 1495 366 1495 366 1513 437 c 2,20,-1
 1521 475 l 1,21,-1
 1724 1434 l 1,22,-1
 2040 1434 l 1,23,-1
 1661 0 l 1,24,-1
 1314 0 l 1,25,-1
 1070 943 l 2,26,27
 1062 976 1062 976 1055 1017 c 128,-1,28
 1048 1058 1048 1058 1047 1089 c 1,29,-1
 1043 1089 l 1,30,31
 1037 1018 1037 1018 1017 945 c 2,32,-1
 758 0 l 1,33,-1
 395 0 l 1,34,-1
 18 1434 l 1,4,-1
EndSplineSet
EndChar

StartChar: Wcircumflex
Encoding: 372 372 103
Width: 2058
GlyphClass: 2
Flags: W
AnchorPoint: "Anchor-3" 0 0 basechar 0
AnchorPoint: "Anchor-2" 1051 1921 basechar 0
AnchorPoint: "Anchor-1" 1029 0 basechar 0
AnchorPoint: "Anchor-0" 0 0 basechar 0
LayerCount: 2
Back
Fore
SplineSet
922 1861 m 1,0,-1
 1170 1861 l 1,1,-1
 1466 1596 l 1,2,-1
 1209 1596 l 1,3,-1
 1041 1734 l 1,4,-1
 894 1596 l 1,5,-1
 637 1596 l 1,6,-1
 922 1861 l 1,0,-1
18 1434 m 1,7,-1
 361 1434 l 1,8,-1
 567 479 l 2,9,10
 589 382 589 382 591 335 c 1,11,-1
 596 335 l 1,12,13
 599 359 599 359 608.5 401 c 128,-1,14
 618 443 618 443 628 479 c 2,15,-1
 897 1434 l 1,16,-1
 1224 1434 l 1,17,-1
 1466 471 l 2,18,19
 1483 400 1483 400 1490 337 c 1,20,-1
 1494 337 l 1,21,22
 1495 366 1495 366 1513 437 c 2,23,-1
 1521 475 l 1,24,-1
 1724 1434 l 1,25,-1
 2040 1434 l 1,26,-1
 1661 0 l 1,27,-1
 1314 0 l 1,28,-1
 1070 943 l 2,29,30
 1062 976 1062 976 1055 1017 c 128,-1,31
 1048 1058 1048 1058 1047 1089 c 1,32,-1
 1043 1089 l 1,33,34
 1037 1018 1037 1018 1017 945 c 2,35,-1
 758 0 l 1,36,-1
 395 0 l 1,37,-1
 18 1434 l 1,7,-1
EndSplineSet
EndChar

StartChar: Wdieresis
Encoding: 7812 7812 104
Width: 2058
GlyphClass: 2
Flags: W
AnchorPoint: "Anchor-3" 0 0 basechar 0
AnchorPoint: "Anchor-2" 1051 1870 basechar 0
AnchorPoint: "Anchor-1" 1029 0 basechar 0
AnchorPoint: "Anchor-0" 0 0 basechar 0
LayerCount: 2
Back
Fore
SplineSet
695.5 1621.5 m 128,-1,1
 651 1661 651 1661 651 1733 c 256,2,3
 651 1805 651 1805 695.5 1844.5 c 128,-1,4
 740 1884 740 1884 820 1884 c 256,5,6
 900 1884 900 1884 944 1844.5 c 128,-1,7
 988 1805 988 1805 988 1733 c 256,8,9
 988 1661 988 1661 944 1621.5 c 128,-1,10
 900 1582 900 1582 820 1582 c 256,11,0
 740 1582 740 1582 695.5 1621.5 c 128,-1,1
1154 1621.5 m 128,-1,13
 1110 1661 1110 1661 1110 1733 c 256,14,15
 1110 1805 1110 1805 1154 1844.5 c 128,-1,16
 1198 1884 1198 1884 1278 1884 c 256,17,18
 1358 1884 1358 1884 1402.5 1844.5 c 128,-1,19
 1447 1805 1447 1805 1447 1733 c 256,20,21
 1447 1661 1447 1661 1402.5 1621.5 c 128,-1,22
 1358 1582 1358 1582 1278 1582 c 256,23,12
 1198 1582 1198 1582 1154 1621.5 c 128,-1,13
18 1434 m 1,24,-1
 361 1434 l 1,25,-1
 567 479 l 2,26,27
 589 382 589 382 591 335 c 1,28,-1
 596 335 l 1,29,30
 599 359 599 359 608.5 401 c 128,-1,31
 618 443 618 443 628 479 c 2,32,-1
 897 1434 l 1,33,-1
 1224 1434 l 1,34,-1
 1466 471 l 2,35,36
 1483 400 1483 400 1490 337 c 1,37,-1
 1494 337 l 1,38,39
 1495 366 1495 366 1513 437 c 2,40,-1
 1521 475 l 1,41,-1
 1724 1434 l 1,42,-1
 2040 1434 l 1,43,-1
 1661 0 l 1,44,-1
 1314 0 l 1,45,-1
 1070 943 l 2,46,47
 1062 976 1062 976 1055 1017 c 128,-1,48
 1048 1058 1048 1058 1047 1089 c 1,49,-1
 1043 1089 l 1,50,51
 1037 1018 1037 1018 1017 945 c 2,52,-1
 758 0 l 1,53,-1
 395 0 l 1,54,-1
 18 1434 l 1,24,-1
EndSplineSet
EndChar

StartChar: Wgrave
Encoding: 7808 7808 105
Width: 2058
GlyphClass: 2
Flags: W
AnchorPoint: "Anchor-3" 0 0 basechar 0
AnchorPoint: "Anchor-2" 891 1919 basechar 0
AnchorPoint: "Anchor-1" 1029 0 basechar 0
AnchorPoint: "Anchor-0" 0 0 basechar 0
LayerCount: 2
Back
Fore
SplineSet
658 1819 m 1,0,-1
 1009 1819 l 1,1,-1
 1199 1596 l 1,2,-1
 882 1596 l 1,3,-1
 658 1819 l 1,0,-1
18 1434 m 1,4,-1
 361 1434 l 1,5,-1
 567 479 l 2,6,7
 589 382 589 382 591 335 c 1,8,-1
 596 335 l 1,9,10
 599 359 599 359 608.5 401 c 128,-1,11
 618 443 618 443 628 479 c 2,12,-1
 897 1434 l 1,13,-1
 1224 1434 l 1,14,-1
 1466 471 l 2,15,16
 1483 400 1483 400 1490 337 c 1,17,-1
 1494 337 l 1,18,19
 1495 366 1495 366 1513 437 c 2,20,-1
 1521 475 l 1,21,-1
 1724 1434 l 1,22,-1
 2040 1434 l 1,23,-1
 1661 0 l 1,24,-1
 1314 0 l 1,25,-1
 1070 943 l 2,26,27
 1062 976 1062 976 1055 1017 c 128,-1,28
 1048 1058 1048 1058 1047 1089 c 1,29,-1
 1043 1089 l 1,30,31
 1037 1018 1037 1018 1017 945 c 2,32,-1
 758 0 l 1,33,-1
 395 0 l 1,34,-1
 18 1434 l 1,4,-1
EndSplineSet
EndChar

StartChar: X
Encoding: 88 88 106
Width: 1342
GlyphClass: 2
Flags: W
AnchorPoint: "Anchor-3" 0 0 basechar 0
AnchorPoint: "Anchor-2" 671 1434 basechar 0
AnchorPoint: "Anchor-1" 671 0 basechar 0
AnchorPoint: "Anchor-0" 0 0 basechar 0
LayerCount: 2
Back
Fore
SplineSet
465 723 m 1,0,-1
 34 1435 l 1,1,-1
 418 1434 l 1,2,-1
 623 1000 l 1,3,-1
 640 966 l 2,4,5
 668 909 668 909 673 898 c 1,6,-1
 677 898 l 1,7,8
 685 913 685 913 701 947 c 0,9,10
 719 986 719 986 733 1012 c 2,11,-1
 961 1434 l 1,12,-1
 1313 1434 l 1,13,-1
 894 723 l 1,14,-1
 1337 0 l 1,15,-1
 963 0 l 1,16,-1
 715 482 l 2,17,18
 687 537 687 537 681 554 c 1,19,-1
 677 554 l 1,20,-1
 642 483 l 1,21,-1
 382 0 l 1,22,-1
 6 0 l 1,23,-1
 465 723 l 1,0,-1
EndSplineSet
EndChar

StartChar: Y
Encoding: 89 89 107
Width: 1243
GlyphClass: 2
Flags: W
AnchorPoint: "Anchor-3" 0 0 basechar 0
AnchorPoint: "Anchor-2" 622 1384 basechar 0
AnchorPoint: "Anchor-1" 622 0 basechar 0
AnchorPoint: "Anchor-0" 0 0 basechar 0
LayerCount: 2
Back
Fore
SplineSet
460 486 m 1,0,-1
 0 1434 l 1,1,-1
 375 1434 l 1,2,-1
 588 911 l 2,3,4
 597 888 597 888 623 803 c 1,5,-1
 626 803 l 1,6,7
 630 822 630 822 641 853.5 c 128,-1,8
 652 885 652 885 663 911 c 2,9,-1
 888 1434 l 1,10,-1
 1245 1434 l 1,11,-1
 774 490 l 1,12,-1
 774 0 l 1,13,-1
 460 0 l 1,14,-1
 460 486 l 1,0,-1
EndSplineSet
EndChar

StartChar: Yacute
Encoding: 221 221 108
Width: 1243
GlyphClass: 2
Flags: W
AnchorPoint: "Anchor-3" 0 0 basechar 0
AnchorPoint: "Anchor-2" 681 1919 basechar 0
AnchorPoint: "Anchor-1" 622 0 basechar 0
AnchorPoint: "Anchor-0" 0 0 basechar 0
LayerCount: 2
Back
Fore
SplineSet
688 1829 m 1,0,-1
 1059 1829 l 1,1,-1
 776 1596 l 1,2,-1
 458 1596 l 1,3,-1
 688 1829 l 1,0,-1
460 486 m 1,4,-1
 0 1434 l 1,5,-1
 375 1434 l 1,6,-1
 588 911 l 2,7,8
 597 888 597 888 623 803 c 1,9,-1
 626 803 l 1,10,11
 630 822 630 822 641 853.5 c 128,-1,12
 652 885 652 885 663 911 c 2,13,-1
 888 1434 l 1,14,-1
 1245 1434 l 1,15,-1
 774 490 l 1,16,-1
 774 0 l 1,17,-1
 460 0 l 1,18,-1
 460 486 l 1,4,-1
EndSplineSet
EndChar

StartChar: Ycircumflex
Encoding: 374 374 109
Width: 1243
GlyphClass: 2
Flags: W
AnchorPoint: "Anchor-3" 0 0 basechar 0
AnchorPoint: "Anchor-2" 624 1921 basechar 0
AnchorPoint: "Anchor-1" 622 0 basechar 0
AnchorPoint: "Anchor-0" 0 0 basechar 0
LayerCount: 2
Back
Fore
SplineSet
495 1861 m 1,0,-1
 743 1861 l 1,1,-1
 1039 1596 l 1,2,-1
 782 1596 l 1,3,-1
 614 1734 l 1,4,-1
 467 1596 l 1,5,-1
 210 1596 l 1,6,-1
 495 1861 l 1,0,-1
460 486 m 1,7,-1
 0 1434 l 1,8,-1
 375 1434 l 1,9,-1
 588 911 l 2,10,11
 597 888 597 888 623 803 c 1,12,-1
 626 803 l 1,13,14
 630 822 630 822 641 853.5 c 128,-1,15
 652 885 652 885 663 911 c 2,16,-1
 888 1434 l 1,17,-1
 1245 1434 l 1,18,-1
 774 490 l 1,19,-1
 774 0 l 1,20,-1
 460 0 l 1,21,-1
 460 486 l 1,7,-1
EndSplineSet
EndChar

StartChar: Ydieresis
Encoding: 376 376 110
Width: 1243
GlyphClass: 2
Flags: W
AnchorPoint: "Anchor-3" 0 0 basechar 0
AnchorPoint: "Anchor-2" 624 1870 basechar 0
AnchorPoint: "Anchor-1" 622 0 basechar 0
AnchorPoint: "Anchor-0" 0 0 basechar 0
LayerCount: 2
Back
Fore
SplineSet
268.5 1621.5 m 128,-1,1
 224 1661 224 1661 224 1733 c 256,2,3
 224 1805 224 1805 268.5 1844.5 c 128,-1,4
 313 1884 313 1884 393 1884 c 256,5,6
 473 1884 473 1884 517 1844.5 c 128,-1,7
 561 1805 561 1805 561 1733 c 256,8,9
 561 1661 561 1661 517 1621.5 c 128,-1,10
 473 1582 473 1582 393 1582 c 256,11,0
 313 1582 313 1582 268.5 1621.5 c 128,-1,1
727 1621.5 m 128,-1,13
 683 1661 683 1661 683 1733 c 256,14,15
 683 1805 683 1805 727 1844.5 c 128,-1,16
 771 1884 771 1884 851 1884 c 256,17,18
 931 1884 931 1884 975.5 1844.5 c 128,-1,19
 1020 1805 1020 1805 1020 1733 c 256,20,21
 1020 1661 1020 1661 975.5 1621.5 c 128,-1,22
 931 1582 931 1582 851 1582 c 256,23,12
 771 1582 771 1582 727 1621.5 c 128,-1,13
460 486 m 1,24,-1
 0 1434 l 1,25,-1
 375 1434 l 1,26,-1
 588 911 l 2,27,28
 597 888 597 888 623 803 c 1,29,-1
 626 803 l 1,30,31
 630 822 630 822 641 853.5 c 128,-1,32
 652 885 652 885 663 911 c 2,33,-1
 888 1434 l 1,34,-1
 1245 1434 l 1,35,-1
 774 490 l 1,36,-1
 774 0 l 1,37,-1
 460 0 l 1,38,-1
 460 486 l 1,24,-1
EndSplineSet
EndChar

StartChar: Ygrave
Encoding: 7922 7922 111
Width: 1243
GlyphClass: 2
Flags: W
AnchorPoint: "Anchor-3" 0 0 basechar 0
AnchorPoint: "Anchor-2" 464 1919 basechar 0
AnchorPoint: "Anchor-1" 622 0 basechar 0
AnchorPoint: "Anchor-0" 0 0 basechar 0
LayerCount: 2
Back
Fore
SplineSet
231 1819 m 1,0,-1
 582 1819 l 1,1,-1
 772 1596 l 1,2,-1
 455 1596 l 1,3,-1
 231 1819 l 1,0,-1
460 486 m 1,4,-1
 0 1434 l 1,5,-1
 375 1434 l 1,6,-1
 588 911 l 2,7,8
 597 888 597 888 623 803 c 1,9,-1
 626 803 l 1,10,11
 630 822 630 822 641 853.5 c 128,-1,12
 652 885 652 885 663 911 c 2,13,-1
 888 1434 l 1,14,-1
 1245 1434 l 1,15,-1
 774 490 l 1,16,-1
 774 0 l 1,17,-1
 460 0 l 1,18,-1
 460 486 l 1,4,-1
EndSplineSet
EndChar

StartChar: Z
Encoding: 90 90 112
Width: 1243
GlyphClass: 2
Flags: W
AnchorPoint: "Anchor-3" 0 0 basechar 0
AnchorPoint: "Anchor-2" 622 1384 basechar 0
AnchorPoint: "Anchor-1" 622 0 basechar 0
AnchorPoint: "Anchor-0" 0 0 basechar 0
LayerCount: 2
Back
Fore
SplineSet
43 47 m 1,0,-1
 696 1152 l 1,1,-1
 80 1152 l 1,2,-1
 80 1434 l 1,3,-1
 1196 1434 l 1,4,-1
 1196 1394 l 1,5,-1
 554 292 l 1,6,-1
 1196 292 l 1,7,-1
 1196 0 l 1,8,-1
 43 0 l 1,9,-1
 43 47 l 1,0,-1
EndSplineSet
EndChar

StartChar: Zacute
Encoding: 377 377 113
Width: 1243
GlyphClass: 2
Flags: W
AnchorPoint: "Anchor-3" 0 0 basechar 0
AnchorPoint: "Anchor-2" 681 1919 basechar 0
AnchorPoint: "Anchor-1" 622 0 basechar 0
AnchorPoint: "Anchor-0" 0 0 basechar 0
LayerCount: 2
Back
Fore
SplineSet
688 1829 m 1,0,-1
 1059 1829 l 1,1,-1
 776 1596 l 1,2,-1
 458 1596 l 1,3,-1
 688 1829 l 1,0,-1
43 47 m 1,4,-1
 696 1152 l 1,5,-1
 80 1152 l 1,6,-1
 80 1434 l 1,7,-1
 1196 1434 l 1,8,-1
 1196 1394 l 1,9,-1
 554 292 l 1,10,-1
 1196 292 l 1,11,-1
 1196 0 l 1,12,-1
 43 0 l 1,13,-1
 43 47 l 1,4,-1
EndSplineSet
EndChar

StartChar: Zcaron
Encoding: 381 381 114
Width: 1243
GlyphClass: 2
Flags: W
AnchorPoint: "Anchor-3" 0 0 basechar 0
AnchorPoint: "Anchor-2" 624 1921 basechar 0
AnchorPoint: "Anchor-1" 622 0 basechar 0
AnchorPoint: "Anchor-0" 0 0 basechar 0
LayerCount: 2
Back
Fore
SplineSet
201 1831 m 1,0,-1
 466 1831 l 1,1,-1
 621 1733 l 1,2,-1
 777 1831 l 1,3,-1
 1032 1831 l 1,4,-1
 744 1596 l 1,5,-1
 496 1596 l 1,6,-1
 201 1831 l 1,0,-1
43 47 m 1,7,-1
 696 1152 l 1,8,-1
 80 1152 l 1,9,-1
 80 1434 l 1,10,-1
 1196 1434 l 1,11,-1
 1196 1394 l 1,12,-1
 554 292 l 1,13,-1
 1196 292 l 1,14,-1
 1196 0 l 1,15,-1
 43 0 l 1,16,-1
 43 47 l 1,7,-1
EndSplineSet
EndChar

StartChar: Zdotaccent
Encoding: 379 379 115
Width: 1243
GlyphClass: 2
Flags: W
AnchorPoint: "Anchor-3" 0 0 basechar 0
AnchorPoint: "Anchor-2" 624 1868 basechar 0
AnchorPoint: "Anchor-1" 622 0 basechar 0
AnchorPoint: "Anchor-0" 0 0 basechar 0
LayerCount: 2
Back
Fore
SplineSet
528 1589 m 128,-1,1
 485 1611 485 1611 461 1649 c 128,-1,2
 437 1687 437 1687 437 1733 c 0,3,4
 437 1781 437 1781 461.5 1818 c 128,-1,5
 486 1855 486 1855 528 1876 c 128,-1,6
 570 1897 570 1897 623 1897 c 256,7,8
 676 1897 676 1897 718 1876 c 128,-1,9
 760 1855 760 1855 783.5 1817.5 c 128,-1,10
 807 1780 807 1780 807 1733 c 256,11,12
 807 1686 807 1686 783.5 1648 c 128,-1,13
 760 1610 760 1610 718 1588.5 c 128,-1,14
 676 1567 676 1567 623 1567 c 0,15,0
 571 1567 571 1567 528 1589 c 128,-1,1
43 47 m 1,16,-1
 696 1152 l 1,17,-1
 80 1152 l 1,18,-1
 80 1434 l 1,19,-1
 1196 1434 l 1,20,-1
 1196 1394 l 1,21,-1
 554 292 l 1,22,-1
 1196 292 l 1,23,-1
 1196 0 l 1,24,-1
 43 0 l 1,25,-1
 43 47 l 1,16,-1
EndSplineSet
EndChar

StartChar: a
Encoding: 97 97 116
Width: 1102
GlyphClass: 2
Flags: W
AnchorPoint: "Anchor-3" 0 0 basechar 0
AnchorPoint: "Anchor-2" 551 974 basechar 0
AnchorPoint: "Anchor-1" 551 0 basechar 0
AnchorPoint: "Anchor-0" 992 10 basechar 0
LayerCount: 2
Back
Fore
SplineSet
772 -39 m 1,0,1
 725 65 725 65 704 162 c 1,2,3
 685 112 685 112 640 69.5 c 128,-1,4
 595 27 595 27 536.5 2 c 128,-1,5
 478 -23 478 -23 418 -23 c 0,6,7
 314 -23 314 -23 232.5 8 c 128,-1,8
 151 39 151 39 103.5 104 c 128,-1,9
 56 169 56 169 56 266 c 0,10,11
 56 370 56 370 108 446 c 128,-1,12
 160 522 160 522 256.5 562.5 c 128,-1,13
 353 603 353 603 483 603 c 0,14,15
 585 603 585 603 686 557 c 1,16,-1
 686 604 l 2,17,18
 686 682 686 682 642.5 718 c 128,-1,19
 599 754 599 754 514 754 c 0,20,21
 461 754 461 754 361.5 742 c 128,-1,22
 262 730 262 730 177 710 c 1,23,-1
 149 954 l 1,24,25
 303 979 303 979 386.5 989.5 c 128,-1,26
 470 1000 470 1000 527 1000 c 0,27,28
 753 1000 753 1000 870 904 c 128,-1,29
 987 808 987 808 988 618 c 2,30,-1
 990 330 l 2,31,32
 991 182 991 182 1057 28 c 1,33,-1
 772 -39 l 1,0,1
586.5 221.5 m 128,-1,35
 631 243 631 243 657 280 c 128,-1,36
 683 317 683 317 686 360 c 1,37,38
 603 377 603 377 508 377 c 0,39,40
 435 377 435 377 393.5 350 c 128,-1,41
 352 323 352 323 353 275 c 0,42,43
 353 242 353 242 390 221 c 128,-1,44
 427 200 427 200 485 200 c 0,45,34
 542 200 542 200 586.5 221.5 c 128,-1,35
EndSplineSet
EndChar

StartChar: aogonek
Encoding: 261 261 123
Width: 1102
GlyphClass: 2
Flags: W
AnchorPoint: "Anchor-3" 0 0 basechar 0
AnchorPoint: "Anchor-2" 551 974 basechar 0
AnchorPoint: "Anchor-1" 551 0 basechar 0
AnchorPoint: "Anchor-0" 992 10 basechar 0
LayerCount: 2
Back
Fore
SplineSet
1034 -222 m 1,1,-1
 1044 -400 l 1,2,3
 984 -419 984 -419 918 -419 c 0,4,5
 805 -419 805 -419 743 -373.5 c 128,-1,6
 681 -328 681 -328 681 -245 c 0,7,8
 681 -190 681 -190 704.5 -137.5 c 128,-1,9
 728 -85 728 -85 772 -38 c 1,10,11
 724 67 724 67 704 162 c 1,12,13
 685 112 685 112 640 69.5 c 128,-1,14
 595 27 595 27 536.5 2 c 128,-1,15
 478 -23 478 -23 418 -23 c 0,16,17
 314 -23 314 -23 232.5 8 c 128,-1,18
 151 39 151 39 103.5 104 c 128,-1,19
 56 169 56 169 56 266 c 0,20,21
 56 370 56 370 108 446 c 128,-1,22
 160 522 160 522 256.5 562.5 c 128,-1,23
 353 603 353 603 483 603 c 0,24,25
 585 603 585 603 686 557 c 1,26,-1
 686 604 l 2,27,28
 686 682 686 682 642.5 718 c 128,-1,29
 599 754 599 754 514 754 c 0,30,31
 461 754 461 754 361.5 742 c 128,-1,32
 262 730 262 730 177 710 c 1,33,-1
 149 954 l 1,34,35
 303 979 303 979 386.5 989.5 c 128,-1,36
 470 1000 470 1000 527 1000 c 0,37,38
 753 1000 753 1000 870 904 c 128,-1,39
 987 808 987 808 988 618 c 2,40,-1
 990 330 l 2,41,42
 991 182 991 182 1057 28 c 1,43,44
 987 -20 987 -20 948 -68.5 c 128,-1,45
 909 -117 909 -117 909 -158 c 0,46,47
 909 -194 909 -194 925.5 -214 c 128,-1,48
 942 -234 942 -234 972 -234 c 0,49,0
 1007 -234 1007 -234 1034 -222 c 1,1,-1
586.5 221.5 m 128,-1,51
 631 243 631 243 657 280 c 128,-1,52
 683 317 683 317 686 360 c 1,53,54
 603 377 603 377 508 377 c 0,55,56
 435 377 435 377 393.5 350 c 128,-1,57
 352 323 352 323 353 275 c 0,58,59
 353 242 353 242 390 221 c 128,-1,60
 427 200 427 200 485 200 c 0,61,50
 542 200 542 200 586.5 221.5 c 128,-1,51
EndSplineSet
EndChar

StartChar: ae
Encoding: 230 230 126
Width: 1696
GlyphClass: 2
Flags: W
AnchorPoint: "Anchor-3" 0 0 basechar 0
AnchorPoint: "Anchor-2" 862 974 basechar 0
AnchorPoint: "Anchor-1" 862 0 basechar 0
AnchorPoint: "Anchor-0" -107 10 basechar 0
LayerCount: 2
Back
Fore
SplineSet
1456 941 m 128,-1,1
 1561 879 1561 879 1611.5 777.5 c 128,-1,2
 1662 676 1662 676 1662 557 c 0,3,4
 1662 474 1662 474 1637 390 c 1,5,-1
 1001 385 l 1,6,7
 1027 312 1027 312 1087.5 270 c 128,-1,8
 1148 228 1148 228 1239 228 c 0,9,10
 1306 228 1306 228 1381 243 c 128,-1,11
 1456 258 1456 258 1531 287 c 1,12,-1
 1582 47 l 1,13,14
 1511 17 1511 17 1402 -3 c 128,-1,15
 1293 -23 1293 -23 1204 -23 c 0,16,17
 1052 -23 1052 -23 940.5 25 c 128,-1,18
 829 73 829 73 765 171 c 1,19,20
 744 120 744 120 690.5 75 c 128,-1,21
 637 30 637 30 564 3.5 c 128,-1,22
 491 -23 491 -23 417 -23 c 0,23,24
 313 -23 313 -23 231.5 8 c 128,-1,25
 150 39 150 39 102.5 104 c 128,-1,26
 55 169 55 169 55 266 c 0,27,28
 55 361 55 361 107 430 c 128,-1,29
 159 499 159 499 255.5 536 c 128,-1,30
 352 573 352 573 482 573 c 0,31,32
 583 573 583 573 685 528 c 1,33,-1
 685 534 l 1,34,-1
 685 604 l 2,35,36
 685 671 685 671 641.5 702.5 c 128,-1,37
 598 734 598 734 513 734 c 0,38,39
 460 734 460 734 360.5 722 c 128,-1,40
 261 710 261 710 176 690 c 1,41,-1
 148 954 l 1,42,43
 302 979 302 979 385.5 989.5 c 128,-1,44
 469 1000 469 1000 526 1000 c 0,45,46
 747 1000 747 1000 863 909 c 1,47,48
 990 1003 990 1003 1194 1003 c 0,49,0
 1351 1003 1351 1003 1456 941 c 128,-1,1
1368 607 m 0,51,52
 1368 672 1368 672 1326 714.5 c 128,-1,53
 1284 757 1284 757 1192 757 c 0,54,55
 1105 757 1105 757 1056.5 710 c 128,-1,56
 1008 663 1008 663 992 580 c 1,57,-1
 1367 584 l 1,58,50
 1368 592 1368 592 1368 607 c 0,51,52
619.5 223 m 128,-1,60
 679 246 679 246 712 285 c 1,61,62
 700 323 700 323 695 358 c 1,63,64
 605 377 605 377 507 377 c 0,65,66
 434 377 434 377 392.5 350 c 128,-1,67
 351 323 351 323 352 275 c 0,68,69
 352 242 352 242 389 221 c 128,-1,70
 426 200 426 200 484 200 c 0,71,59
 560 200 560 200 619.5 223 c 128,-1,60
EndSplineSet
EndChar

StartChar: b
Encoding: 98 98 127
Width: 1270
GlyphClass: 2
Flags: W
AnchorPoint: "Anchor-3" 0 0 basechar 0
AnchorPoint: "Anchor-2" 635 974 basechar 0
AnchorPoint: "Anchor-1" 635 0 basechar 0
AnchorPoint: "Anchor-0" 0 0 basechar 0
LayerCount: 2
Back
Fore
SplineSet
984.5 939 m 128,-1,1
 1087 878 1087 878 1142.5 766.5 c 128,-1,2
 1198 655 1198 655 1198 509 c 0,3,4
 1198 346 1198 346 1143 226.5 c 128,-1,5
 1088 107 1088 107 979.5 42 c 128,-1,6
 871 -23 871 -23 715 -23 c 0,7,8
 512 -23 512 -23 454 152 c 1,9,-1
 405 0 l 1,10,-1
 135 0 l 1,11,-1
 133 1516 l 1,12,-1
 449 1516 l 1,13,-1
 449 865 l 1,14,15
 496 920 496 920 575 960 c 128,-1,16
 654 1000 654 1000 746 1000 c 0,17,0
 882 1000 882 1000 984.5 939 c 128,-1,1
822 296 m 128,-1,19
 873 372 873 372 873 511 c 0,20,21
 873 628 873 628 815 692 c 128,-1,22
 757 756 757 756 651 756 c 0,23,24
 534 756 534 756 449 671 c 1,25,-1
 449 618 l 1,26,-1
 450 508 l 2,27,28
 450 371 450 371 509.5 295.5 c 128,-1,29
 569 220 569 220 677 220 c 0,30,18
 771 220 771 220 822 296 c 128,-1,19
EndSplineSet
EndChar

StartChar: c
Encoding: 99 99 128
Width: 983
GlyphClass: 2
Flags: W
AnchorPoint: "Anchor-3" 0 0 basechar 0
AnchorPoint: "Anchor-2" 582 974 basechar 0
AnchorPoint: "Anchor-1" 542 0 basechar 0
AnchorPoint: "Anchor-0" 0 0 basechar 0
LayerCount: 2
Back
Fore
SplineSet
302 38 m 128,-1,1
 191 99 191 99 132.5 213.5 c 128,-1,2
 74 328 74 328 74 485 c 0,3,4
 74 641 74 641 133.5 757 c 128,-1,5
 193 873 193 873 307.5 936 c 128,-1,6
 422 999 422 999 582 998 c 0,7,8
 678 999 678 999 770.5 983.5 c 128,-1,9
 863 968 863 968 927 942 c 1,10,-1
 877 696 l 1,11,12
 774 731 774 731 665 731 c 0,13,14
 523 731 523 731 459.5 670.5 c 128,-1,15
 396 610 396 610 396 490 c 0,16,17
 396 362 396 362 462 300 c 128,-1,18
 528 238 528 238 653 238 c 0,19,20
 706 238 706 238 748 247 c 128,-1,21
 790 256 790 256 859 277 c 1,22,-1
 930 35 l 1,23,24
 841 8 841 8 746 -7.5 c 128,-1,25
 651 -23 651 -23 568 -23 c 0,26,0
 413 -23 413 -23 302 38 c 128,-1,1
EndSplineSet
EndChar

StartChar: ccedilla
Encoding: 231 231 131
Width: 983
GlyphClass: 2
Flags: W
AnchorPoint: "Anchor-3" 0 0 basechar 0
AnchorPoint: "Anchor-2" 582 974 basechar 0
AnchorPoint: "Anchor-1" 614 -455 basechar 0
AnchorPoint: "Anchor-0" 0 0 basechar 0
LayerCount: 2
Back
Fore
SplineSet
810 -248 m 0,1,2
 810 -455 810 -455 492 -455 c 0,3,4
 441 -455 441 -455 404 -451 c 1,5,-1
 404 -313 l 1,6,7
 438 -319 438 -319 476 -319 c 0,8,9
 599 -319 599 -319 599 -246 c 0,10,11
 599 -180 599 -180 488 -180 c 1,12,-1
 451 -182 l 1,13,-1
 451 -13 l 1,14,15
 271 19 271 19 172.5 149.5 c 128,-1,16
 74 280 74 280 74 485 c 0,17,18
 74 641 74 641 133.5 757 c 128,-1,19
 193 873 193 873 307.5 936 c 128,-1,20
 422 999 422 999 582 998 c 0,21,22
 678 999 678 999 770.5 983.5 c 128,-1,23
 863 968 863 968 927 942 c 1,24,-1
 877 696 l 1,25,26
 774 731 774 731 665 731 c 0,27,28
 523 731 523 731 459.5 670.5 c 128,-1,29
 396 610 396 610 396 490 c 0,30,31
 396 362 396 362 462 300 c 128,-1,32
 528 238 528 238 653 238 c 0,33,34
 706 238 706 238 748 247 c 128,-1,35
 790 256 790 256 859 277 c 1,36,-1
 930 35 l 1,37,38
 774 -12 774 -12 628 -21 c 1,39,-1
 628 -82 l 1,40,0
 810 -89 810 -89 810 -248 c 0,1,2
EndSplineSet
EndChar

StartChar: d
Encoding: 100 100 133
Width: 1268
GlyphClass: 2
Flags: W
AnchorPoint: "Anchor-3" 1248 974 basechar 0
AnchorPoint: "Anchor-2" 634 974 basechar 0
AnchorPoint: "Anchor-1" 634 0 basechar 0
AnchorPoint: "Anchor-0" 0 0 basechar 0
LayerCount: 2
Back
Fore
SplineSet
912 -39 m 1,0,1
 865 64 865 64 844 162 c 1,2,3
 765 -23 765 -23 537 -23 c 0,4,5
 304 -23 304 -23 188 108.5 c 128,-1,6
 72 240 72 240 72 472 c 0,7,8
 72 629 72 629 136.5 748.5 c 128,-1,9
 201 868 201 868 318.5 933.5 c 128,-1,10
 436 999 436 999 591 999 c 0,11,12
 715 999 715 999 826 930 c 1,13,-1
 826 1517 l 1,14,-1
 1135 1517 l 1,15,-1
 1135 450 l 2,16,17
 1135 346 1135 346 1147 276 c 128,-1,18
 1159 206 1159 206 1177 160 c 128,-1,19
 1195 114 1195 114 1232 38 c 1,20,-1
 912 -39 l 1,0,1
761.5 294.5 m 128,-1,22
 825 365 825 365 825 493 c 1,23,-1
 826 491 l 1,24,-1
 826 693 l 1,25,26
 727 755 727 755 604 755 c 0,27,28
 504 755 504 755 449.5 684 c 128,-1,29
 395 613 395 613 395 483 c 0,30,31
 395 359 395 359 442.5 291.5 c 128,-1,32
 490 224 490 224 577 224 c 0,33,21
 698 224 698 224 761.5 294.5 c 128,-1,22
EndSplineSet
EndChar

StartChar: eth
Encoding: 240 240 134
Width: 1215
GlyphClass: 2
Flags: W
LayerCount: 2
Back
Fore
SplineSet
315.5 40 m 128,-1,1
 197 105 197 105 134.5 226.5 c 128,-1,2
 72 348 72 348 72 514 c 0,3,4
 72 667 72 667 132.5 786.5 c 128,-1,5
 193 906 193 906 301.5 973 c 128,-1,6
 410 1040 410 1040 551 1040 c 0,7,8
 668 1040 668 1040 756 965 c 1,9,-1
 760 967 l 1,10,11
 676 1114 676 1114 565 1204 c 1,12,-1
 274 1061 l 1,13,-1
 193 1202 l 1,14,-1
 434 1317 l 1,15,-1
 407 1338 l 1,16,-1
 285 1434 l 1,17,-1
 478 1549 l 2,18,19
 482 1547 482 1547 540 1501 c 0,20,21
 570 1478 570 1478 597.5 1457 c 128,-1,22
 625 1436 625 1436 647 1419 c 1,23,-1
 920 1552 l 1,24,-1
 997 1415 l 1,25,-1
 782 1311 l 1,26,27
 1143 1020 1143 1020 1143 563 c 0,28,29
 1143 391 1143 391 1075 257.5 c 128,-1,30
 1007 124 1007 124 883 49.5 c 128,-1,31
 759 -25 759 -25 598 -25 c 0,32,0
 434 -25 434 -25 315.5 40 c 128,-1,1
721 253.5 m 128,-1,34
 769 290 769 290 795 358.5 c 128,-1,35
 821 427 821 427 821 520 c 0,36,37
 821 807 821 807 612 807 c 0,38,39
 510 807 510 807 451.5 728.5 c 128,-1,40
 393 650 393 650 393 514 c 0,41,42
 393 374 393 374 450 295.5 c 128,-1,43
 507 217 507 217 608 217 c 0,44,33
 673 217 673 217 721 253.5 c 128,-1,34
EndSplineSet
EndChar

StartChar: dcroat
Encoding: 273 273 136
Width: 1295
GlyphClass: 2
Flags: W
AnchorPoint: "Anchor-3" 1248 974 basechar 0
AnchorPoint: "Anchor-2" 634 974 basechar 0
AnchorPoint: "Anchor-1" 634 0 basechar 0
AnchorPoint: "Anchor-0" 0 0 basechar 0
LayerCount: 2
Back
Fore
SplineSet
1135 1141 m 1,0,-1
 1135 450 l 2,1,2
 1135 346 1135 346 1147 276 c 128,-1,3
 1159 206 1159 206 1177 160 c 128,-1,4
 1195 114 1195 114 1232 38 c 1,5,-1
 912 -39 l 1,6,7
 865 64 865 64 844 162 c 1,8,9
 765 -23 765 -23 537 -23 c 0,10,11
 304 -23 304 -23 188 108.5 c 128,-1,12
 72 240 72 240 72 472 c 0,13,14
 72 629 72 629 136.5 748.5 c 128,-1,15
 201 868 201 868 318.5 933.5 c 128,-1,16
 436 999 436 999 591 999 c 0,17,18
 715 999 715 999 826 930 c 1,19,-1
 826 1141 l 1,20,-1
 570 1141 l 1,21,-1
 570 1373 l 1,22,-1
 826 1373 l 1,23,-1
 826 1517 l 1,24,-1
 1135 1517 l 1,25,-1
 1135 1373 l 1,26,-1
 1278 1373 l 1,27,-1
 1278 1141 l 1,28,-1
 1135 1141 l 1,0,-1
761.5 294.5 m 128,-1,30
 825 365 825 365 825 493 c 1,31,-1
 826 491 l 1,32,-1
 826 693 l 1,33,34
 727 755 727 755 604 755 c 0,35,36
 504 755 504 755 449.5 684 c 128,-1,37
 395 613 395 613 395 483 c 0,38,39
 395 359 395 359 442.5 291.5 c 128,-1,40
 490 224 490 224 577 224 c 0,41,29
 698 224 698 224 761.5 294.5 c 128,-1,30
EndSplineSet
EndChar

StartChar: e
Encoding: 101 101 137
Width: 1108
GlyphClass: 2
Flags: W
AnchorPoint: "Anchor-3" 0 0 basechar 0
AnchorPoint: "Anchor-2" 574 974 basechar 0
AnchorPoint: "Anchor-1" 554 0 basechar 0
AnchorPoint: "Anchor-0" 997 10 basechar 0
LayerCount: 2
Back
Fore
SplineSet
844 941 m 128,-1,1
 949 879 949 879 999.5 777.5 c 128,-1,2
 1050 676 1050 676 1050 557 c 0,3,4
 1050 474 1050 474 1025 390 c 1,5,-1
 389 385 l 1,6,7
 415 312 415 312 475.5 270 c 128,-1,8
 536 228 536 228 627 228 c 0,9,10
 694 228 694 228 769 243 c 128,-1,11
 844 258 844 258 919 287 c 1,12,-1
 970 47 l 1,13,14
 899 17 899 17 790 -3 c 128,-1,15
 681 -23 681 -23 592 -23 c 0,16,17
 345 -23 345 -23 208.5 103.5 c 128,-1,18
 72 230 72 230 72 493 c 0,19,20
 72 657 72 657 132.5 771.5 c 128,-1,21
 193 886 193 886 307.5 944.5 c 128,-1,22
 422 1003 422 1003 582 1003 c 0,23,0
 739 1003 739 1003 844 941 c 128,-1,1
756 607 m 0,25,26
 756 672 756 672 714 714.5 c 128,-1,27
 672 757 672 757 580 757 c 0,28,29
 493 757 493 757 444.5 710 c 128,-1,30
 396 663 396 663 380 580 c 1,31,-1
 755 584 l 1,32,24
 756 592 756 592 756 607 c 0,25,26
EndSplineSet
EndChar

StartChar: eogonek
Encoding: 281 281 145
Width: 1108
GlyphClass: 2
Flags: W
AnchorPoint: "Anchor-3" 0 0 basechar 0
AnchorPoint: "Anchor-2" 574 974 basechar 0
AnchorPoint: "Anchor-1" 554 0 basechar 0
AnchorPoint: "Anchor-0" 997 10 basechar 0
LayerCount: 2
Back
Fore
SplineSet
844 941 m 128,-1,1
 949 879 949 879 999.5 777.5 c 128,-1,2
 1050 676 1050 676 1050 557 c 0,3,4
 1050 474 1050 474 1025 390 c 1,5,-1
 389 385 l 1,6,7
 415 312 415 312 475.5 270 c 128,-1,8
 536 228 536 228 627 228 c 0,9,10
 694 228 694 228 769 243 c 128,-1,11
 844 258 844 258 919 287 c 1,12,-1
 970 48 l 1,13,-1
 970 47 l 1,14,-1
 967 46 l 1,15,16
 898 -7 898 -7 860 -60.5 c 128,-1,17
 822 -114 822 -114 822 -158 c 0,18,19
 822 -194 822 -194 838.5 -214 c 128,-1,20
 855 -234 855 -234 885 -234 c 0,21,22
 922 -234 922 -234 947 -222 c 1,23,-1
 984 -400 l 1,24,25
 911 -419 911 -419 831 -419 c 0,26,27
 718 -419 718 -419 656 -373.5 c 128,-1,28
 594 -328 594 -328 594 -245 c 0,29,30
 594 -185 594 -185 618.5 -126.5 c 128,-1,31
 643 -68 643 -68 690 -17 c 1,32,33
 639 -23 639 -23 592 -23 c 0,34,35
 345 -23 345 -23 208.5 103.5 c 128,-1,36
 72 230 72 230 72 493 c 0,37,38
 72 657 72 657 132.5 771.5 c 128,-1,39
 193 886 193 886 307.5 944.5 c 128,-1,40
 422 1003 422 1003 582 1003 c 0,41,0
 739 1003 739 1003 844 941 c 128,-1,1
756 607 m 0,43,44
 756 672 756 672 714 714.5 c 128,-1,45
 672 757 672 757 580 757 c 0,46,47
 493 757 493 757 444.5 710 c 128,-1,48
 396 663 396 663 380 580 c 1,49,-1
 755 584 l 1,50,42
 756 592 756 592 756 607 c 0,43,44
EndSplineSet
EndChar

StartChar: f
Encoding: 102 102 146
Width: 785
GlyphClass: 2
Flags: W
AnchorPoint: "Anchor-3" 0 0 basechar 0
AnchorPoint: "Anchor-2" 393 974 basechar 0
AnchorPoint: "Anchor-1" 393 0 basechar 0
AnchorPoint: "Anchor-0" 0 0 basechar 0
LayerCount: 2
Back
Fore
SplineSet
583.5 1256.5 m 128,-1,1
 554 1242 554 1242 543 1214.5 c 128,-1,2
 532 1187 532 1187 532 1141 c 2,3,-1
 532 975 l 1,4,-1
 765 976 l 1,5,-1
 765 742 l 1,6,-1
 532 742 l 1,7,-1
 532 2 l 1,8,-1
 218 2 l 1,9,-1
 218 742 l 1,10,-1
 48 742 l 1,11,-1
 48 974 l 1,12,-1
 218 974 l 1,13,-1
 218 1131 l 2,14,15
 218 1319 218 1319 314 1426.5 c 128,-1,16
 410 1534 410 1534 655 1534 c 0,17,18
 689 1534 689 1534 783 1524 c 2,19,-1
 825 1519 l 1,20,-1
 782 1265 l 1,21,-1
 728 1268 l 2,22,23
 694 1271 694 1271 668 1271 c 0,24,0
 613 1271 613 1271 583.5 1256.5 c 128,-1,1
EndSplineSet
EndChar

StartChar: g
Encoding: 103 103 147
Width: 1268
GlyphClass: 2
Flags: W
AnchorPoint: "Anchor-3" 0 0 basechar 0
AnchorPoint: "Anchor-2" 634 974 basechar 0
AnchorPoint: "Anchor-1" 634 0 basechar 0
AnchorPoint: "Anchor-0" 0 0 basechar 0
LayerCount: 2
Back
Fore
SplineSet
1137 974 m 1,0,-1
 1136 0 l 2,1,2
 1136 -246 1136 -246 936.5 -363 c 128,-1,3
 737 -480 737 -480 375 -482 c 1,4,-1
 356 -213 l 1,5,6
 528 -207 528 -207 631 -176.5 c 128,-1,7
 734 -146 734 -146 780 -90 c 128,-1,8
 826 -34 826 -34 826 55 c 2,9,-1
 826 111 l 1,10,11
 741 -23 741 -23 537 -23 c 0,12,13
 397 -23 397 -23 291 38.5 c 128,-1,14
 185 100 185 100 127 212 c 128,-1,15
 69 324 69 324 69 472 c 0,16,17
 69 629 69 629 134 748.5 c 128,-1,18
 199 868 199 868 317 934 c 128,-1,19
 435 1000 435 1000 591 1000 c 0,20,21
 727 1000 727 1000 853 913 c 1,22,-1
 867 974 l 1,23,-1
 1137 974 l 1,0,-1
827 452 m 1,24,-1
 827 716 l 1,25,26
 777 740 777 740 724 750.5 c 128,-1,27
 671 761 671 761 624 761 c 0,28,29
 518 761 518 761 456.5 686.5 c 128,-1,30
 395 612 395 612 395 483 c 0,31,32
 395 419 395 419 416.5 359.5 c 128,-1,33
 438 300 438 300 483.5 262 c 128,-1,34
 529 224 529 224 597 224 c 0,35,36
 708 224 708 224 767 284 c 128,-1,37
 826 344 826 344 826 453 c 1,38,-1
 827 452 l 1,24,-1
EndSplineSet
EndChar

StartChar: h
Encoding: 104 104 151
Width: 1233
GlyphClass: 2
Flags: W
AnchorPoint: "Anchor-3" 0 0 basechar 0
AnchorPoint: "Anchor-2" 617 974 basechar 0
AnchorPoint: "Anchor-1" 617 0 basechar 0
AnchorPoint: "Anchor-0" 0 0 basechar 0
LayerCount: 2
Back
Fore
SplineSet
946.5 950 m 128,-1,1
 1032 900 1032 900 1074 812 c 128,-1,2
 1116 724 1116 724 1116 610 c 2,3,-1
 1116 0 l 1,4,-1
 802 0 l 1,5,-1
 802 524 l 2,6,7
 802 625 802 625 758.5 689 c 128,-1,8
 715 753 715 753 616 753 c 0,9,10
 523 753 523 753 449 687 c 1,11,-1
 449 0 l 1,12,-1
 133 0 l 1,13,-1
 133 1517 l 1,14,-1
 449 1517 l 1,15,-1
 449 897 l 1,16,17
 561 1000 561 1000 737 1000 c 0,18,0
 861 1000 861 1000 946.5 950 c 128,-1,1
EndSplineSet
EndChar

StartChar: hbar
Encoding: 295 295 152
Width: 1262
GlyphClass: 2
Flags: W
AnchorPoint: "Anchor-3" 0 0 basechar 0
AnchorPoint: "Anchor-2" 650 974 basechar 0
AnchorPoint: "Anchor-1" 650 0 basechar 0
AnchorPoint: "Anchor-0" 0 0 basechar 0
LayerCount: 2
Back
Fore
SplineSet
979.5 950 m 128,-1,1
 1065 900 1065 900 1107 812 c 128,-1,2
 1149 724 1149 724 1149 610 c 2,3,-1
 1149 0 l 1,4,-1
 835 0 l 1,5,-1
 835 524 l 2,6,7
 835 625 835 625 791.5 689 c 128,-1,8
 748 753 748 753 649 753 c 0,9,10
 556 753 556 753 482 687 c 1,11,-1
 482 0 l 1,12,-1
 166 0 l 1,13,-1
 166 1160 l 1,14,-1
 27 1160 l 1,15,-1
 27 1392 l 1,16,-1
 166 1392 l 1,17,-1
 166 1517 l 1,18,-1
 482 1517 l 1,19,-1
 482 1392 l 1,20,-1
 735 1392 l 1,21,-1
 735 1160 l 1,22,-1
 482 1160 l 1,23,-1
 482 897 l 1,24,25
 594 1000 594 1000 770 1000 c 0,26,0
 894 1000 894 1000 979.5 950 c 128,-1,1
EndSplineSet
EndChar

StartChar: i
Encoding: 105 105 153
Width: 582
GlyphClass: 2
Flags: W
AnchorPoint: "Anchor-3" 0 0 basechar 0
AnchorPoint: "Anchor-2" 291 974 basechar 0
AnchorPoint: "Anchor-1" 291 0 basechar 0
AnchorPoint: "Anchor-0" 360 10 basechar 0
LayerCount: 2
Back
Fore
SplineSet
204 1211.5 m 128,-1,1
 165 1234 165 1234 142.5 1273.5 c 128,-1,2
 120 1313 120 1313 120 1361 c 0,3,4
 120 1408 120 1408 142.5 1447 c 128,-1,5
 165 1486 165 1486 204 1508.5 c 128,-1,6
 243 1531 243 1531 291 1531 c 256,7,8
 339 1531 339 1531 377.5 1508.5 c 128,-1,9
 416 1486 416 1486 438.5 1447 c 128,-1,10
 461 1408 461 1408 461 1361 c 0,11,12
 461 1313 461 1313 439 1273.5 c 128,-1,13
 417 1234 417 1234 378 1211.5 c 128,-1,14
 339 1189 339 1189 291 1189 c 256,15,0
 243 1189 243 1189 204 1211.5 c 128,-1,1
133 974 m 1,16,-1
 449 974 l 1,17,-1
 449 0 l 1,18,-1
 133 0 l 1,19,-1
 133 974 l 1,16,-1
EndSplineSet
Substitution2: "Single Substitution lookup 13 subtable" dotlessi
Substitution2: "'locl' Localized Forms in Latin lookup 10 subtable" i.locl
Substitution2: "'locl' Localized Forms in Latin lookup 9 subtable" i.locl
Substitution2: "'locl' Localized Forms in Latin lookup 8 subtable" i.locl
Substitution2: "'locl' Localized Forms in Latin lookup 7 subtable" i.locl
Substitution2: "'locl' Localized Forms in Latin lookup 6 subtable" i.locl
AlternateSubs2: "'aalt' Access All Alternates in Latin lookup 1 subtable" dotlessi i.locl
EndChar

StartChar: dotlessi
Encoding: 305 305 154
Width: 582
GlyphClass: 2
Flags: W
AnchorPoint: "Anchor-3" 0 0 basechar 0
AnchorPoint: "Anchor-2" 291 974 basechar 0
AnchorPoint: "Anchor-1" 291 0 basechar 0
AnchorPoint: "Anchor-0" 360 10 basechar 0
LayerCount: 2
Back
Fore
SplineSet
133 974 m 1,0,-1
 449 974 l 1,1,-1
 449 0 l 1,2,-1
 133 0 l 1,3,-1
 133 974 l 1,0,-1
EndSplineSet
EndChar

StartChar: j
Encoding: 106 106 163
Width: 582
GlyphClass: 2
Flags: W
AnchorPoint: "Anchor-3" 0 0 basechar 0
AnchorPoint: "Anchor-2" 291 974 basechar 0
AnchorPoint: "Anchor-1" 291 0 basechar 0
AnchorPoint: "Anchor-0" 0 0 basechar 0
LayerCount: 2
Back
Fore
SplineSet
204 1211.5 m 128,-1,1
 165 1234 165 1234 142.5 1273.5 c 128,-1,2
 120 1313 120 1313 120 1361 c 0,3,4
 120 1408 120 1408 142.5 1447 c 128,-1,5
 165 1486 165 1486 204 1508.5 c 128,-1,6
 243 1531 243 1531 291 1531 c 256,7,8
 339 1531 339 1531 377.5 1508.5 c 128,-1,9
 416 1486 416 1486 438.5 1447 c 128,-1,10
 461 1408 461 1408 461 1361 c 0,11,12
 461 1313 461 1313 439 1273.5 c 128,-1,13
 417 1234 417 1234 378 1211.5 c 128,-1,14
 339 1189 339 1189 291 1189 c 256,15,0
 243 1189 243 1189 204 1211.5 c 128,-1,1
-133 -192 m 1,16,17
 -27 -181 -27 -181 30.5 -153 c 128,-1,18
 88 -125 88 -125 111 -75 c 128,-1,19
 134 -25 134 -25 134 58 c 2,20,-1
 134 974 l 1,21,-1
 450 974 l 1,22,-1
 450 20 l 2,23,24
 450 -233 450 -233 306.5 -351.5 c 128,-1,25
 163 -470 163 -470 -82 -482 c 1,26,-1
 -133 -192 l 1,16,17
EndSplineSet
Substitution2: "Single Substitution lookup 13 subtable" uni0237
Substitution2: "'aalt' Access All Alternates in Latin lookup 0 subtable" uni0237
EndChar

StartChar: uni0237
Encoding: 567 567 164
Width: 582
GlyphClass: 2
Flags: W
AnchorPoint: "Anchor-3" 0 0 basechar 0
AnchorPoint: "Anchor-2" 291 974 basechar 0
AnchorPoint: "Anchor-1" 291 0 basechar 0
AnchorPoint: "Anchor-0" 0 0 basechar 0
LayerCount: 2
Back
Fore
SplineSet
-133 -192 m 1,0,1
 -27 -181 -27 -181 30.5 -153 c 128,-1,2
 88 -125 88 -125 111 -75 c 128,-1,3
 134 -25 134 -25 134 58 c 2,4,-1
 134 974 l 1,5,-1
 450 974 l 1,6,-1
 450 20 l 2,7,8
 450 -233 450 -233 306.5 -351.5 c 128,-1,9
 163 -470 163 -470 -82 -482 c 1,10,-1
 -133 -192 l 1,0,1
EndSplineSet
EndChar

StartChar: k
Encoding: 107 107 165
Width: 1145
GlyphClass: 2
Flags: W
AnchorPoint: "Anchor-3" 0 0 basechar 0
AnchorPoint: "Anchor-2" 573 974 basechar 0
AnchorPoint: "Anchor-1" 573 0 basechar 0
AnchorPoint: "Anchor-0" 0 0 basechar 0
LayerCount: 2
Back
Fore
SplineSet
582 374 m 1,0,-1
 450 227 l 1,1,-1
 450 0 l 1,2,-1
 133 0 l 1,3,-1
 133 1516 l 1,4,-1
 450 1516 l 1,5,-1
 450 550 l 1,6,7
 503 698 503 698 562 757 c 2,8,-1
 804 1000 l 1,9,-1
 1119 974 l 1,10,-1
 783 598 l 1,11,-1
 1142 -2 l 1,12,-1
 810 -2 l 1,13,-1
 582 374 l 1,0,-1
EndSplineSet
EndChar

StartChar: l
Encoding: 108 108 167
Width: 582
GlyphClass: 2
Flags: W
AnchorPoint: "Anchor-3" 662 1022 basechar 0
AnchorPoint: "Anchor-2" 295 1394 basechar 0
AnchorPoint: "Anchor-1" 291 0 basechar 0
AnchorPoint: "Anchor-0" 0 0 basechar 0
LayerCount: 2
Back
Fore
SplineSet
133 1516 m 1,0,-1
 449 1516 l 1,1,-1
 449 0 l 1,2,-1
 133 0 l 1,3,-1
 133 1516 l 1,0,-1
EndSplineSet
EndChar

StartChar: lslash
Encoding: 322 322 172
Width: 643
GlyphClass: 2
Flags: W
AnchorPoint: "Anchor-3" 691 1022 basechar 0
AnchorPoint: "Anchor-2" 324 1394 basechar 0
AnchorPoint: "Anchor-1" 320 0 basechar 0
AnchorPoint: "Anchor-0" 0 0 basechar 0
LayerCount: 2
Back
Fore
SplineSet
610 754 m 1,0,-1
 478 671 l 1,1,-1
 478 0 l 1,2,-1
 162 0 l 1,3,-1
 162 473 l 1,4,-1
 29 389 l 1,5,-1
 29 647 l 1,6,-1
 162 730 l 1,7,-1
 162 1516 l 1,8,-1
 478 1516 l 1,9,-1
 478 928 l 1,10,-1
 610 1010 l 1,11,-1
 610 754 l 1,0,-1
EndSplineSet
EndChar

StartChar: m
Encoding: 109 109 173
Width: 1876
GlyphClass: 2
Flags: W
AnchorPoint: "Anchor-3" 0 0 basechar 0
AnchorPoint: "Anchor-2" 938 974 basechar 0
AnchorPoint: "Anchor-1" 938 0 basechar 0
AnchorPoint: "Anchor-0" 0 0 basechar 0
LayerCount: 2
Back
Fore
SplineSet
1589 950 m 128,-1,1
 1674 900 1674 900 1716 812 c 128,-1,2
 1758 724 1758 724 1759 610 c 2,3,-1
 1759 0 l 1,4,-1
 1445 0 l 1,5,-1
 1445 564 l 1,6,7
 1450 646 1450 646 1413 699.5 c 128,-1,8
 1376 753 1376 753 1289 753 c 0,9,10
 1230 753 1230 753 1183 740.5 c 128,-1,11
 1136 728 1136 728 1096 702 c 1,12,13
 1103 651 1103 651 1103 610 c 2,14,-1
 1103 0 l 1,15,-1
 789 0 l 1,16,-1
 789 564 l 2,17,18
 788 648 788 648 752.5 700.5 c 128,-1,19
 717 753 717 753 636 753 c 0,20,21
 579 753 579 753 536 730 c 128,-1,22
 493 707 493 707 451 656 c 1,23,-1
 449 0 l 1,24,-1
 133 0 l 1,25,-1
 135 974 l 1,26,-1
 408 974 l 1,27,-1
 443 865 l 1,28,29
 519 937 519 937 585 968.5 c 128,-1,30
 651 1000 651 1000 747 1000 c 0,31,32
 835 1000 835 1000 902.5 970.5 c 128,-1,33
 970 941 970 941 1016 887 c 1,34,35
 1099 941 1099 941 1184.5 970.5 c 128,-1,36
 1270 1000 1270 1000 1380 1000 c 0,37,0
 1504 1000 1504 1000 1589 950 c 128,-1,1
EndSplineSet
EndChar

StartChar: n
Encoding: 110 110 174
Width: 1239
GlyphClass: 2
Flags: W
AnchorPoint: "Anchor-3" 0 0 basechar 0
AnchorPoint: "Anchor-2" 620 974 basechar 0
AnchorPoint: "Anchor-1" 620 0 basechar 0
AnchorPoint: "Anchor-0" 0 0 basechar 0
LayerCount: 2
Back
Fore
SplineSet
946.5 950 m 128,-1,1
 1032 900 1032 900 1074 812 c 128,-1,2
 1116 724 1116 724 1116 610 c 2,3,-1
 1116 0 l 1,4,-1
 802 0 l 1,5,-1
 802 524 l 2,6,7
 802 625 802 625 758.5 689 c 128,-1,8
 715 753 715 753 616 753 c 0,9,10
 524 753 524 753 451 688 c 1,11,-1
 449 0 l 1,12,-1
 133 0 l 1,13,-1
 135 974 l 1,14,-1
 408 974 l 1,15,-1
 437 884 l 1,16,17
 551 1000 551 1000 737 1000 c 0,18,0
 861 1000 861 1000 946.5 950 c 128,-1,1
EndSplineSet
EndChar

StartChar: eng
Encoding: 331 331 178
Width: 1239
GlyphClass: 2
Flags: W
AnchorPoint: "Anchor-3" 0 0 basechar 0
AnchorPoint: "Anchor-2" 620 974 basechar 0
AnchorPoint: "Anchor-1" 620 0 basechar 0
AnchorPoint: "Anchor-0" 0 0 basechar 0
LayerCount: 2
Back
Fore
SplineSet
946.5 950 m 128,-1,1
 1032 900 1032 900 1074 812 c 128,-1,2
 1116 724 1116 724 1116 610 c 2,3,-1
 1116 0 l 2,4,5
 1116 -243 1116 -243 972.5 -357 c 128,-1,6
 829 -471 829 -471 584 -482 c 1,7,-1
 533 -192 l 1,8,9
 632 -181 632 -181 689 -156.5 c 128,-1,10
 746 -132 746 -132 772 -89 c 128,-1,11
 798 -46 798 -46 802 23 c 1,12,-1
 802 524 l 2,13,14
 802 625 802 625 758.5 689 c 128,-1,15
 715 753 715 753 616 753 c 0,16,17
 524 753 524 753 451 688 c 1,18,-1
 449 0 l 1,19,-1
 133 0 l 1,20,-1
 135 974 l 1,21,-1
 408 974 l 1,22,-1
 437 884 l 1,23,24
 551 1000 551 1000 737 1000 c 0,25,0
 861 1000 861 1000 946.5 950 c 128,-1,1
EndSplineSet
EndChar

StartChar: o
Encoding: 111 111 180
Width: 1252
GlyphClass: 2
Flags: W
AnchorPoint: "Anchor-3" 1232 974 basechar 0
AnchorPoint: "Anchor-2" 626 974 basechar 0
AnchorPoint: "Anchor-1" 626 0 basechar 0
AnchorPoint: "Anchor-0" 0 0 basechar 0
LayerCount: 2
Back
Fore
SplineSet
335 38 m 128,-1,1
 210 101 210 101 141.5 216 c 128,-1,2
 73 331 73 331 73 482 c 0,3,4
 73 636 73 636 141.5 753 c 128,-1,5
 210 870 210 870 335 934 c 128,-1,6
 460 998 460 998 624 998 c 0,7,8
 791 998 791 998 917.5 934 c 128,-1,9
 1044 870 1044 870 1112 753 c 128,-1,10
 1180 636 1180 636 1179 482 c 0,11,12
 1179 330 1179 330 1110 215.5 c 128,-1,13
 1041 101 1041 101 915.5 38 c 128,-1,14
 790 -25 790 -25 624 -25 c 0,15,0
 460 -25 460 -25 335 38 c 128,-1,1
753 264 m 128,-1,17
 807 295 807 295 838 351.5 c 128,-1,18
 869 408 869 408 870 482 c 0,19,20
 868 556 868 556 837 612.5 c 128,-1,21
 806 669 806 669 752 699.5 c 128,-1,22
 698 730 698 730 628 730 c 0,23,24
 555 730 555 730 499 699 c 128,-1,25
 443 668 443 668 412.5 611.5 c 128,-1,26
 382 555 382 555 382 480 c 0,27,28
 382 406 382 406 412.5 350 c 128,-1,29
 443 294 443 294 499 263.5 c 128,-1,30
 555 233 555 233 628 233 c 0,31,16
 699 233 699 233 753 264 c 128,-1,17
EndSplineSet
EndChar

StartChar: oslash
Encoding: 248 248 187
Width: 1252
GlyphClass: 2
Flags: W
AnchorPoint: "Anchor-3" 1232 974 basechar 0
AnchorPoint: "Anchor-2" 626 974 basechar 0
AnchorPoint: "Anchor-1" 626 0 basechar 0
AnchorPoint: "Anchor-0" 0 0 basechar 0
LayerCount: 2
Back
Fore
SplineSet
1077 805 m 1,0,1
 1128 741 1128 741 1154 659 c 128,-1,2
 1180 577 1180 577 1179 482 c 0,3,4
 1179 330 1179 330 1110 215.5 c 128,-1,5
 1041 101 1041 101 915.5 38 c 128,-1,6
 790 -25 790 -25 624 -25 c 0,7,8
 453 -25 453 -25 322 45 c 1,9,-1
 181 -91 l 1,10,-1
 -18 101 l 1,11,-1
 128 241 l 1,12,13
 73 348 73 348 73 482 c 0,14,15
 73 636 73 636 141.5 753 c 128,-1,16
 210 870 210 870 335 934 c 128,-1,17
 460 998 460 998 624 998 c 0,18,19
 744 998 744 998 846 964 c 1,20,-1
 1011 1135 l 1,21,-1
 1215 947 l 1,22,-1
 1077 805 l 1,0,1
753 264 m 128,-1,24
 807 295 807 295 838 351.5 c 128,-1,25
 869 408 869 408 870 482 c 0,26,27
 868 556 868 556 837 612.5 c 128,-1,28
 806 669 806 669 752 699.5 c 128,-1,29
 698 730 698 730 628 730 c 0,30,31
 555 730 555 730 499 699 c 128,-1,32
 443 668 443 668 412.5 611.5 c 128,-1,33
 382 555 382 555 382 480 c 0,34,35
 382 406 382 406 412.5 350 c 128,-1,36
 443 294 443 294 499 263.5 c 128,-1,37
 555 233 555 233 628 233 c 0,38,23
 699 233 699 233 753 264 c 128,-1,24
EndSplineSet
EndChar

StartChar: oe
Encoding: 339 339 189
Width: 1893
GlyphClass: 2
Flags: W
AnchorPoint: "Anchor-3" 1227 974 basechar 0
AnchorPoint: "Anchor-2" 1387 974 basechar 0
AnchorPoint: "Anchor-1" 1367 0 basechar 0
AnchorPoint: "Anchor-0" 1810 10 basechar 0
LayerCount: 2
Back
Fore
SplineSet
1657 941 m 128,-1,1
 1762 879 1762 879 1812.5 777.5 c 128,-1,2
 1863 676 1863 676 1863 557 c 0,3,4
 1863 474 1863 474 1838 390 c 1,5,-1
 1202 385 l 1,6,7
 1228 312 1228 312 1288.5 270 c 128,-1,8
 1349 228 1349 228 1440 228 c 0,9,10
 1507 228 1507 228 1582 243 c 128,-1,11
 1657 258 1657 258 1732 287 c 1,12,-1
 1783 47 l 1,13,14
 1712 17 1712 17 1603 -3 c 128,-1,15
 1494 -23 1494 -23 1405 -23 c 0,16,17
 1149 -23 1149 -23 1016 109 c 1,18,19
 943 44 943 44 842 9.5 c 128,-1,20
 741 -25 741 -25 619 -25 c 0,21,22
 455 -25 455 -25 330 38 c 128,-1,23
 205 101 205 101 136.5 216 c 128,-1,24
 68 331 68 331 68 482 c 0,25,26
 68 636 68 636 136.5 753 c 128,-1,27
 205 870 205 870 330 934 c 128,-1,28
 455 998 455 998 619 998 c 0,29,30
 740 998 740 998 840.5 964 c 128,-1,31
 941 930 941 930 1014 866 c 1,32,33
 1080 934 1080 934 1176 968.5 c 128,-1,34
 1272 1003 1272 1003 1395 1003 c 0,35,0
 1552 1003 1552 1003 1657 941 c 128,-1,1
1569 607 m 0,37,38
 1569 672 1569 672 1527 714.5 c 128,-1,39
 1485 757 1485 757 1393 757 c 0,40,41
 1306 757 1306 757 1257.5 710 c 128,-1,42
 1209 663 1209 663 1193 580 c 1,43,-1
 1568 584 l 1,44,36
 1569 592 1569 592 1569 607 c 0,37,38
748 264 m 128,-1,46
 802 295 802 295 833 351.5 c 128,-1,47
 864 408 864 408 865 482 c 0,48,49
 863 556 863 556 832 612.5 c 128,-1,50
 801 669 801 669 747 699.5 c 128,-1,51
 693 730 693 730 623 730 c 0,52,53
 550 730 550 730 494 699 c 128,-1,54
 438 668 438 668 407.5 611.5 c 128,-1,55
 377 555 377 555 377 480 c 0,56,57
 377 406 377 406 407.5 350 c 128,-1,58
 438 294 438 294 494 263.5 c 128,-1,59
 550 233 550 233 623 233 c 0,60,45
 694 233 694 233 748 264 c 128,-1,46
EndSplineSet
EndChar

StartChar: p
Encoding: 112 112 190
Width: 1270
GlyphClass: 2
Flags: W
AnchorPoint: "Anchor-3" 0 0 basechar 0
AnchorPoint: "Anchor-2" 635 974 basechar 0
AnchorPoint: "Anchor-1" 635 0 basechar 0
AnchorPoint: "Anchor-0" 0 0 basechar 0
LayerCount: 2
Back
Fore
SplineSet
990.5 942.5 m 128,-1,1
 1092 885 1092 885 1145 774.5 c 128,-1,2
 1198 664 1198 664 1198 509 c 0,3,4
 1198 346 1198 346 1143 226.5 c 128,-1,5
 1088 107 1088 107 979.5 42 c 128,-1,6
 871 -23 871 -23 715 -23 c 0,7,8
 502 -23 502 -23 449 168 c 1,9,-1
 449 -470 l 1,10,-1
 133 -470 l 1,11,-1
 135 974 l 1,12,-1
 406 974 l 1,13,-1
 442 860 l 1,14,15
 489 927 489 927 567.5 963.5 c 128,-1,16
 646 1000 646 1000 746 1000 c 0,17,0
 889 1000 889 1000 990.5 942.5 c 128,-1,1
822 296 m 128,-1,19
 873 372 873 372 873 511 c 0,20,21
 873 628 873 628 815 692 c 128,-1,22
 757 756 757 756 651 756 c 0,23,24
 586 756 586 756 534 737 c 128,-1,25
 482 718 482 718 449 682 c 1,26,-1
 449 618 l 1,27,-1
 450 508 l 2,28,29
 450 371 450 371 509.5 295.5 c 128,-1,30
 569 220 569 220 677 220 c 0,31,18
 771 220 771 220 822 296 c 128,-1,19
EndSplineSet
EndChar

StartChar: thorn
Encoding: 254 254 191
Width: 1270
GlyphClass: 2
Flags: W
AnchorPoint: "Anchor-3" 0 0 basechar 0
AnchorPoint: "Anchor-2" 635 974 basechar 0
AnchorPoint: "Anchor-1" 635 0 basechar 0
AnchorPoint: "Anchor-0" 0 0 basechar 0
LayerCount: 2
Back
Fore
SplineSet
990.5 942.5 m 128,-1,1
 1092 885 1092 885 1145 774.5 c 128,-1,2
 1198 664 1198 664 1198 509 c 0,3,4
 1198 346 1198 346 1143 226.5 c 128,-1,5
 1088 107 1088 107 979.5 42 c 128,-1,6
 871 -23 871 -23 715 -23 c 0,7,8
 502 -23 502 -23 449 168 c 1,9,-1
 449 -470 l 1,10,-1
 133 -470 l 1,11,-1
 135 974 l 1,12,-1
 135 1434 l 1,13,-1
 449 1434 l 1,14,-1
 449 869 l 1,15,16
 496 932 496 932 573 966 c 128,-1,17
 650 1000 650 1000 746 1000 c 0,18,0
 889 1000 889 1000 990.5 942.5 c 128,-1,1
822 296 m 128,-1,20
 873 372 873 372 873 511 c 0,21,22
 873 628 873 628 815 692 c 128,-1,23
 757 756 757 756 651 756 c 0,24,25
 586 756 586 756 534 737 c 128,-1,26
 482 718 482 718 449 682 c 1,27,-1
 449 618 l 1,28,-1
 450 508 l 2,29,30
 450 371 450 371 509.5 295.5 c 128,-1,31
 569 220 569 220 677 220 c 0,32,19
 771 220 771 220 822 296 c 128,-1,20
EndSplineSet
EndChar

StartChar: q
Encoding: 113 113 192
Width: 1268
GlyphClass: 2
Flags: W
AnchorPoint: "Anchor-3" 0 0 basechar 0
AnchorPoint: "Anchor-2" 634 974 basechar 0
AnchorPoint: "Anchor-1" 634 0 basechar 0
AnchorPoint: "Anchor-0" 0 0 basechar 0
LayerCount: 2
Back
Fore
SplineSet
1135 975 m 1,0,-1
 1135 -471 l 1,1,-1
 825 -472 l 1,2,-1
 825 124 l 1,3,4
 740 -23 740 -23 537 -23 c 0,5,6
 304 -23 304 -23 188 108.5 c 128,-1,7
 72 240 72 240 72 472 c 0,8,9
 72 639 72 639 133 757.5 c 128,-1,10
 194 876 194 876 310.5 938 c 128,-1,11
 427 1000 427 1000 591 1000 c 0,12,13
 656 1000 656 1000 722.5 977.5 c 128,-1,14
 789 955 789 955 851 913 c 1,15,-1
 865 974 l 1,16,-1
 1135 975 l 1,0,-1
761.5 294.5 m 128,-1,18
 825 365 825 365 825 493 c 2,19,-1
 825 695 l 1,20,21
 777 725 777 725 720.5 740.5 c 128,-1,22
 664 756 664 756 604 756 c 0,23,24
 504 756 504 756 449.5 684.5 c 128,-1,25
 395 613 395 613 395 483 c 0,26,27
 395 359 395 359 442.5 291.5 c 128,-1,28
 490 224 490 224 577 224 c 0,29,17
 698 224 698 224 761.5 294.5 c 128,-1,18
EndSplineSet
EndChar

StartChar: r
Encoding: 114 114 193
Width: 815
GlyphClass: 2
Flags: W
AnchorPoint: "Anchor-3" 0 0 basechar 0
AnchorPoint: "Anchor-2" 458 974 basechar 0
AnchorPoint: "Anchor-1" 293 0 basechar 0
AnchorPoint: "Anchor-0" 0 0 basechar 0
LayerCount: 2
Back
Fore
SplineSet
713 1007 m 0,1,2
 761 1007 761 1007 821 990 c 1,3,-1
 793 684 l 1,4,5
 765 687 765 687 738 687 c 0,6,7
 557 687 557 687 451 558 c 1,8,-1
 449 0 l 1,9,-1
 133 0 l 1,10,-1
 135 974 l 1,11,-1
 408 974 l 1,12,-1
 446 766 l 1,13,0
 526 1007 526 1007 713 1007 c 0,1,2
EndSplineSet
EndChar

StartChar: s
Encoding: 115 115 197
Width: 901
GlyphClass: 2
Flags: W
AnchorPoint: "Anchor-3" 0 0 basechar 0
AnchorPoint: "Anchor-2" 451 974 basechar 0
AnchorPoint: "Anchor-1" 411 0 basechar 0
AnchorPoint: "Anchor-0" 0 0 basechar 0
LayerCount: 2
Back
Fore
SplineSet
66 53 m 1,1,-1
 140 300 l 1,2,3
 301 228 301 228 415 226 c 0,4,5
 553 227 553 227 554 308 c 0,6,7
 554 337 554 337 533 354.5 c 128,-1,8
 512 372 512 372 481.5 381.5 c 128,-1,9
 451 391 451 391 393 404 c 0,10,11
 302 424 302 424 242.5 447 c 128,-1,12
 183 470 183 470 139.5 525.5 c 128,-1,13
 96 581 96 581 96 679 c 0,14,15
 99 999 99 999 478 999 c 0,16,17
 680 999 680 999 828 936 c 1,18,-1
 771 683 l 1,19,20
 630 738 630 738 508 738 c 0,21,22
 452 737 452 737 428 727.5 c 128,-1,23
 404 718 404 718 402 689 c 0,24,25
 403 661 403 661 435.5 645.5 c 128,-1,26
 468 630 468 630 540 611 c 0,27,28
 634 585 634 585 696 558 c 128,-1,29
 758 531 758 531 805 473 c 128,-1,30
 852 415 852 415 852 318 c 0,31,32
 852 -25 852 -25 415 -25 c 0,33,0
 248 -24 248 -24 66 53 c 1,1,-1
EndSplineSet
EndChar

StartChar: scedilla
Encoding: 351 351 200
Width: 901
GlyphClass: 2
Flags: W
AnchorPoint: "Anchor-3" 0 0 basechar 0
AnchorPoint: "Anchor-2" 451 974 basechar 0
AnchorPoint: "Anchor-1" 483 -455 basechar 0
AnchorPoint: "Anchor-0" 0 0 basechar 0
LayerCount: 2
Back
Fore
SplineSet
497 -22 m 1,1,-1
 497 -82 l 1,2,3
 679 -89 679 -89 679 -248 c 0,4,5
 679 -455 679 -455 361 -455 c 0,6,7
 310 -455 310 -455 273 -451 c 1,8,-1
 273 -313 l 1,9,10
 308 -319 308 -319 345 -319 c 0,11,12
 468 -319 468 -319 468 -246 c 0,13,14
 468 -180 468 -180 357 -180 c 1,15,-1
 320 -182 l 1,16,-1
 320 -18 l 1,17,18
 193 -1 193 -1 66 53 c 1,19,-1
 140 300 l 1,20,21
 301 228 301 228 415 226 c 0,22,23
 553 227 553 227 554 308 c 0,24,25
 554 337 554 337 533 354.5 c 128,-1,26
 512 372 512 372 481.5 381.5 c 128,-1,27
 451 391 451 391 393 404 c 0,28,29
 302 424 302 424 242.5 447 c 128,-1,30
 183 470 183 470 139.5 525.5 c 128,-1,31
 96 581 96 581 96 679 c 0,32,33
 99 999 99 999 478 999 c 0,34,35
 680 999 680 999 828 936 c 1,36,-1
 771 683 l 1,37,38
 630 738 630 738 508 738 c 0,39,40
 452 737 452 737 428 727.5 c 128,-1,41
 404 718 404 718 402 689 c 0,42,43
 403 661 403 661 435.5 645.5 c 128,-1,44
 468 630 468 630 540 611 c 0,45,46
 634 585 634 585 696 558 c 128,-1,47
 758 531 758 531 805 473 c 128,-1,48
 852 415 852 415 852 318 c 0,49,0
 852 9 852 9 497 -22 c 1,1,-1
EndSplineSet
Substitution2: "'locl' Localized Forms in Latin lookup 5 subtable" uni0219
Substitution2: "'locl' Localized Forms in Latin lookup 4 subtable" uni0219
Substitution2: "'aalt' Access All Alternates in Latin lookup 0 subtable" uni0219
EndChar

StartChar: germandbls
Encoding: 223 223 202
Width: 1286
GlyphClass: 2
Flags: W
LayerCount: 2
Back
Fore
SplineSet
846 714 m 128,-1,1
 862 698 862 698 886 687.5 c 128,-1,2
 910 677 910 677 954 662 c 0,3,4
 1035 635 1035 635 1090 604.5 c 128,-1,5
 1145 574 1145 574 1186 506 c 128,-1,6
 1227 438 1227 438 1227 323 c 0,7,8
 1227 157 1227 157 1137 66 c 128,-1,9
 1047 -25 1047 -25 883 -25 c 0,10,11
 730 -23 730 -23 530 15 c 1,12,-1
 582 269 l 1,13,14
 632 253 632 253 690 242.5 c 128,-1,15
 748 232 748 232 783 232 c 0,16,17
 950 232 950 232 950 313 c 0,18,19
 950 347 950 347 917.5 369.5 c 128,-1,20
 885 392 885 392 815 421 c 0,21,22
 730 456 730 456 673.5 491 c 128,-1,23
 617 526 617 526 576 591.5 c 128,-1,24
 535 657 535 657 535 758 c 0,25,26
 535 827 535 827 557 873.5 c 128,-1,27
 579 920 579 920 611 947.5 c 128,-1,28
 643 975 643 975 694 1007 c 0,29,30
 740 1036 740 1036 766 1057.5 c 128,-1,31
 792 1079 792 1079 809.5 1112.5 c 128,-1,32
 827 1146 827 1146 827 1194 c 0,33,34
 827 1237 827 1237 778 1262.5 c 128,-1,35
 729 1288 729 1288 649 1288 c 0,36,37
 554 1288 554 1288 496.5 1234.5 c 128,-1,38
 439 1181 439 1181 439 1092 c 2,39,-1
 439 2 l 1,40,-1
 133 2 l 1,41,-1
 133 1116 l 2,42,43
 133 1240 133 1240 196 1334.5 c 128,-1,44
 259 1429 259 1429 373 1480.5 c 128,-1,45
 487 1532 487 1532 638 1532 c 0,46,47
 783 1532 783 1532 892.5 1489 c 128,-1,48
 1002 1446 1002 1446 1062.5 1368 c 128,-1,49
 1123 1290 1123 1290 1123 1188 c 0,50,51
 1123 1079 1123 1079 1094 1012.5 c 128,-1,52
 1065 946 1065 946 1025 914.5 c 128,-1,53
 985 883 985 883 925 854 c 0,54,55
 876 830 876 830 853.5 810 c 128,-1,56
 831 790 831 790 830 754 c 0,57,0
 830 730 830 730 846 714 c 128,-1,1
EndSplineSet
EndChar

StartChar: t
Encoding: 116 116 203
Width: 797
GlyphClass: 2
Flags: W
AnchorPoint: "Anchor-3" 747 884 basechar 0
AnchorPoint: "Anchor-2" 369 1205 basechar 0
AnchorPoint: "Anchor-1" 399 0 basechar 0
AnchorPoint: "Anchor-0" 0 0 basechar 0
LayerCount: 2
Back
Fore
SplineSet
661 252 m 0,1,2
 701 252 701 252 752 259 c 1,3,-1
 752 -18 l 1,4,5
 688 -24 688 -24 620 -24 c 0,6,7
 405 -24 405 -24 306.5 51.5 c 128,-1,8
 208 127 208 127 208 273 c 2,9,-1
 208 741 l 1,10,-1
 41 741 l 1,11,-1
 43 973 l 1,12,-1
 208 973 l 1,13,-1
 208 1323 l 1,14,-1
 515 1323 l 1,15,-1
 515 974 l 1,16,-1
 752 974 l 1,17,-1
 750 742 l 1,18,-1
 515 742 l 1,19,-1
 515 422 l 2,20,0
 515 252 515 252 661 252 c 0,1,2
EndSplineSet
EndChar

StartChar: tbar
Encoding: 359 359 204
Width: 797
GlyphClass: 2
Flags: W
AnchorPoint: "Anchor-3" 747 884 basechar 0
AnchorPoint: "Anchor-2" 369 1205 basechar 0
AnchorPoint: "Anchor-1" 399 0 basechar 0
AnchorPoint: "Anchor-0" 0 0 basechar 0
LayerCount: 2
Back
Fore
SplineSet
549.5 296 m 128,-1,1
 581 252 581 252 661 252 c 0,2,3
 701 252 701 252 752 259 c 1,4,-1
 752 -18 l 1,5,6
 688 -24 688 -24 620 -24 c 0,7,8
 405 -24 405 -24 306.5 51.5 c 128,-1,9
 208 127 208 127 208 273 c 2,10,-1
 208 409 l 1,11,-1
 42 409 l 1,12,-1
 42 641 l 1,13,-1
 208 641 l 1,14,-1
 208 741 l 1,15,-1
 41 741 l 1,16,-1
 43 973 l 1,17,-1
 208 973 l 1,18,-1
 208 1323 l 1,19,-1
 515 1323 l 1,20,-1
 515 974 l 1,21,-1
 752 974 l 1,22,-1
 750 742 l 1,23,-1
 515 742 l 1,24,-1
 515 641 l 1,25,-1
 750 641 l 1,26,-1
 750 409 l 1,27,-1
 515 409 l 1,28,0
 518 340 518 340 549.5 296 c 128,-1,1
EndSplineSet
EndChar

StartChar: uni0163
Encoding: 355 355 206
Width: 797
GlyphClass: 2
Flags: W
AnchorPoint: "Anchor-3" 747 884 basechar 0
AnchorPoint: "Anchor-2" 369 1205 basechar 0
AnchorPoint: "Anchor-1" 471 -455 basechar 0
AnchorPoint: "Anchor-0" 0 0 basechar 0
LayerCount: 2
Back
Fore
SplineSet
661 252 m 0,1,2
 701 252 701 252 752 259 c 1,3,-1
 752 -18 l 1,4,5
 688 -24 688 -24 620 -24 c 0,6,7
 545 -24 545 -24 485 -15 c 1,8,-1
 485 -82 l 1,9,10
 667 -89 667 -89 667 -248 c 0,11,12
 667 -455 667 -455 349 -455 c 0,13,14
 298 -455 298 -455 261 -451 c 1,15,-1
 261 -313 l 1,16,17
 295 -319 295 -319 333 -319 c 0,18,19
 456 -319 456 -319 456 -246 c 0,20,21
 456 -180 456 -180 345 -180 c 1,22,-1
 308 -182 l 1,23,-1
 308 50 l 1,24,25
 208 124 208 124 208 273 c 2,26,-1
 208 741 l 1,27,-1
 41 741 l 1,28,-1
 43 973 l 1,29,-1
 208 973 l 1,30,-1
 208 1323 l 1,31,-1
 515 1323 l 1,32,-1
 515 974 l 1,33,-1
 752 974 l 1,34,-1
 750 742 l 1,35,-1
 515 742 l 1,36,-1
 515 422 l 2,37,0
 515 252 515 252 661 252 c 0,1,2
EndSplineSet
Substitution2: "'locl' Localized Forms in Latin lookup 5 subtable" uni021B
Substitution2: "'locl' Localized Forms in Latin lookup 4 subtable" uni021B
Substitution2: "'aalt' Access All Alternates in Latin lookup 0 subtable" uni021B
EndChar

StartChar: u
Encoding: 117 117 208
Width: 1239
GlyphClass: 2
Flags: W
AnchorPoint: "Anchor-3" 1219 974 basechar 0
AnchorPoint: "Anchor-2" 620 974 basechar 0
AnchorPoint: "Anchor-1" 620 0 basechar 0
AnchorPoint: "Anchor-0" 1115 10 basechar 0
LayerCount: 2
Back
Fore
SplineSet
883 -39 m 1,0,1
 843 47 843 47 821 135 c 1,2,3
 808 102 808 102 770.5 66 c 128,-1,4
 733 30 733 30 667.5 4 c 128,-1,5
 602 -22 602 -22 513 -22 c 0,6,7
 369 -22 369 -22 280.5 32.5 c 128,-1,8
 192 87 192 87 154.5 175 c 128,-1,9
 117 263 117 263 117 368 c 2,10,-1
 117 973 l 1,11,-1
 433 973 l 1,12,-1
 433 419 l 2,13,14
 433 324 433 324 470 267 c 128,-1,15
 507 210 507 210 609 210 c 0,16,17
 662 210 662 210 705 242 c 128,-1,18
 748 274 748 274 772.5 329.5 c 128,-1,19
 797 385 797 385 797 452 c 2,20,-1
 797 974 l 1,21,-1
 1106 974 l 1,22,-1
 1106 450 l 2,23,24
 1106 346 1106 346 1118 276 c 128,-1,25
 1130 206 1130 206 1148 160 c 128,-1,26
 1166 114 1166 114 1203 38 c 1,27,-1
 883 -39 l 1,0,1
EndSplineSet
EndChar

StartChar: uogonek
Encoding: 371 371 215
Width: 1239
GlyphClass: 2
Flags: W
AnchorPoint: "Anchor-3" 1219 974 basechar 0
AnchorPoint: "Anchor-2" 620 974 basechar 0
AnchorPoint: "Anchor-1" 620 0 basechar 0
AnchorPoint: "Anchor-0" 1115 10 basechar 0
LayerCount: 2
Back
Fore
SplineSet
1157 -222 m 1,1,-1
 1187 -400 l 1,2,3
 1117 -419 1117 -419 1041 -419 c 0,4,5
 928 -419 928 -419 866 -373.5 c 128,-1,6
 804 -328 804 -328 804 -245 c 0,7,8
 804 -191 804 -191 824.5 -138.5 c 128,-1,9
 845 -86 845 -86 884 -39 c 1,10,-1
 883 -39 l 1,11,12
 843 47 843 47 821 135 c 1,13,14
 808 102 808 102 770.5 66 c 128,-1,15
 733 30 733 30 667.5 4 c 128,-1,16
 602 -22 602 -22 513 -22 c 0,17,18
 369 -22 369 -22 280.5 32.5 c 128,-1,19
 192 87 192 87 154.5 175 c 128,-1,20
 117 263 117 263 117 368 c 2,21,-1
 117 973 l 1,22,-1
 433 973 l 1,23,-1
 433 419 l 2,24,25
 433 324 433 324 470 267 c 128,-1,26
 507 210 507 210 609 210 c 0,27,28
 662 210 662 210 705 242 c 128,-1,29
 748 274 748 274 772.5 329.5 c 128,-1,30
 797 385 797 385 797 452 c 2,31,-1
 797 974 l 1,32,-1
 1106 974 l 1,33,-1
 1106 450 l 2,34,35
 1106 346 1106 346 1118 276 c 128,-1,36
 1130 206 1130 206 1148 160 c 128,-1,37
 1166 114 1166 114 1203 38 c 1,38,39
 1121 -13 1121 -13 1076.5 -64 c 128,-1,40
 1032 -115 1032 -115 1032 -158 c 0,41,42
 1032 -194 1032 -194 1048.5 -214 c 128,-1,43
 1065 -234 1065 -234 1095 -234 c 0,44,0
 1132 -234 1132 -234 1157 -222 c 1,1,-1
EndSplineSet
EndChar

StartChar: v
Encoding: 118 118 217
Width: 1110
GlyphClass: 2
Flags: W
AnchorPoint: "Anchor-3" 0 0 basechar 0
AnchorPoint: "Anchor-2" 555 974 basechar 0
AnchorPoint: "Anchor-1" 555 0 basechar 0
AnchorPoint: "Anchor-0" 0 0 basechar 0
LayerCount: 2
Back
Fore
SplineSet
4 974 m 1,0,-1
 341 974 l 1,1,-1
 525 365 l 2,2,3
 531 345 531 345 543 286 c 128,-1,4
 555 227 555 227 557 211 c 1,5,-1
 561 211 l 1,6,7
 563 230 563 230 574.5 287.5 c 128,-1,8
 586 345 586 345 591 361 c 2,9,-1
 780 974 l 1,10,-1
 1108 974 l 1,11,-1
 726 -5 l 1,12,-1
 365 -5 l 1,13,-1
 4 974 l 1,0,-1
EndSplineSet
EndChar

StartChar: w
Encoding: 119 119 218
Width: 1633
GlyphClass: 2
Flags: W
AnchorPoint: "Anchor-3" 0 0 basechar 0
AnchorPoint: "Anchor-2" 817 974 basechar 0
AnchorPoint: "Anchor-1" 817 0 basechar 0
AnchorPoint: "Anchor-0" 0 0 basechar 0
LayerCount: 2
Back
Fore
SplineSet
16 974 m 1,0,-1
 338 974 l 1,1,-1
 479 352 l 2,2,3
 482 332 482 332 486 297 c 128,-1,4
 490 262 490 262 492 238 c 1,5,-1
 500 238 l 1,6,7
 502 261 502 261 508.5 303 c 128,-1,8
 515 345 515 345 518 357 c 2,9,-1
 696 974 l 1,10,-1
 996 974 l 1,11,-1
 1154 339 l 2,12,13
 1158 321 1158 321 1161.5 290 c 128,-1,14
 1165 259 1165 259 1167 237 c 1,15,-1
 1175 237 l 1,16,17
 1177 256 1177 256 1180.5 291 c 128,-1,18
 1184 326 1184 326 1187 337 c 2,19,-1
 1323 974 l 1,20,-1
 1616 975 l 1,21,-1
 1321 -5 l 1,22,-1
 989 -5 l 1,23,-1
 833 573 l 2,24,25
 827 596 827 596 820 683 c 1,26,-1
 816 683 l 1,27,28
 814 664 814 664 808.5 625.5 c 128,-1,29
 803 587 803 587 800 574 c 2,30,-1
 633 -5 l 1,31,-1
 306 -5 l 1,32,-1
 16 974 l 1,0,-1
EndSplineSet
EndChar

StartChar: x
Encoding: 120 120 223
Width: 1131
GlyphClass: 2
Flags: W
AnchorPoint: "Anchor-3" 0 0 basechar 0
AnchorPoint: "Anchor-2" 566 974 basechar 0
AnchorPoint: "Anchor-1" 566 0 basechar 0
AnchorPoint: "Anchor-0" 0 0 basechar 0
LayerCount: 2
Back
Fore
SplineSet
406 492 m 1,0,-1
 42 974 l 1,1,-1
 376 974 l 1,2,-1
 576 674 l 1,3,-1
 580 674 l 1,4,-1
 786 974 l 1,5,-1
 1122 974 l 1,6,-1
 748 506 l 1,7,-1
 1126 0 l 1,8,-1
 778 0 l 1,9,-1
 571 300 l 1,10,-1
 567 300 l 1,11,-1
 365 0 l 1,12,-1
 17 0 l 1,13,-1
 406 492 l 1,0,-1
EndSplineSet
EndChar

StartChar: y
Encoding: 121 121 224
Width: 1102
GlyphClass: 2
Flags: W
AnchorPoint: "Anchor-3" 0 0 basechar 0
AnchorPoint: "Anchor-2" 551 974 basechar 0
AnchorPoint: "Anchor-1" 551 0 basechar 0
AnchorPoint: "Anchor-0" 0 0 basechar 0
LayerCount: 2
Back
Fore
SplineSet
73 -199 m 1,0,1
 200 -183 200 -183 271 -148 c 128,-1,2
 342 -113 342 -113 389 -42 c 1,3,-1
 407 5 l 1,4,-1
 -4 974 l 1,5,-1
 347 974 l 1,6,-1
 541 386 l 1,7,-1
 561 308 l 1,8,-1
 567 308 l 1,9,-1
 587 384 l 1,10,-1
 793 974 l 1,11,-1
 1108 976 l 1,12,-1
 653 -138 l 1,13,14
 587 -269 587 -269 505 -338 c 128,-1,15
 423 -407 423 -407 342.5 -432.5 c 128,-1,16
 262 -458 262 -458 137 -478 c 2,17,-1
 110 -482 l 1,18,-1
 73 -199 l 1,0,1
EndSplineSet
EndChar

StartChar: z
Encoding: 122 122 229
Width: 981
GlyphClass: 2
Flags: W
AnchorPoint: "Anchor-3" 0 0 basechar 0
AnchorPoint: "Anchor-2" 501 974 basechar 0
AnchorPoint: "Anchor-1" 491 0 basechar 0
AnchorPoint: "Anchor-0" 0 0 basechar 0
LayerCount: 2
Back
Fore
SplineSet
33 51 m 1,0,-1
 521 725 l 1,1,-1
 80 725 l 1,2,-1
 80 974 l 1,3,-1
 942 974 l 1,4,-1
 942 927 l 1,5,-1
 482 230 l 1,6,-1
 944 230 l 1,7,-1
 944 0 l 1,8,-1
 33 0 l 1,9,-1
 33 51 l 1,0,-1
EndSplineSet
EndChar

StartChar: zero
Encoding: 48 48 233
Width: 1178
Flags: W
LayerCount: 2
Back
Fore
SplineSet
317.5 57 m 128,-1,1
 210 141 210 141 154 301 c 128,-1,2
 98 461 98 461 98 687 c 0,3,4
 98 931 98 931 157.5 1104 c 128,-1,5
 217 1277 217 1277 331.5 1367.5 c 128,-1,6
 446 1458 446 1458 607 1458 c 1,7,-1
 607 1456 l 1,8,9
 757 1456 757 1456 863 1370 c 128,-1,10
 969 1284 969 1284 1024.5 1119 c 128,-1,11
 1080 954 1080 954 1080 722 c 0,12,13
 1080 485 1080 485 1020.5 317 c 128,-1,14
 961 149 961 149 848 61 c 128,-1,15
 735 -27 735 -27 576 -27 c 0,16,0
 425 -27 425 -27 317.5 57 c 128,-1,1
594 249 m 1,17,18
 676 249 676 249 721 368.5 c 128,-1,19
 766 488 766 488 766 706 c 0,20,21
 766 933 766 933 722.5 1058 c 128,-1,22
 679 1183 679 1183 600 1183 c 0,23,24
 511 1183 511 1183 462 1055 c 128,-1,25
 413 927 413 927 413 694 c 0,26,27
 413 481 413 481 460 364.5 c 128,-1,28
 507 248 507 248 593 248 c 1,29,-1
 594 249 l 1,17,18
EndSplineSet
EndChar

StartChar: one
Encoding: 49 49 234
Width: 1178
Flags: W
LayerCount: 2
Back
Fore
SplineSet
553 1123 m 1,0,-1
 221 1047 l 1,1,-1
 165 1320 l 1,2,-1
 689 1466 l 1,3,-1
 844 1466 l 1,4,-1
 845 -1 l 1,5,-1
 553 -1 l 1,6,-1
 553 1123 l 1,0,-1
EndSplineSet
Substitution2: "'sups' Superscript in Latin lookup 11 subtable" uni00B9
Substitution2: "'aalt' Access All Alternates in Latin lookup 0 subtable" uni00B9
EndChar

StartChar: two
Encoding: 50 50 235
Width: 1178
Flags: W
LayerCount: 2
Back
Fore
SplineSet
118 61 m 2,0,1
 118 225 118 225 163 339 c 128,-1,2
 208 453 208 453 272 522.5 c 128,-1,3
 336 592 336 592 438 675 c 0,4,5
 515 738 515 738 558.5 782 c 128,-1,6
 602 826 602 826 631 887 c 128,-1,7
 660 948 660 948 660 1028 c 0,8,9
 660 1182 660 1182 464 1182 c 0,10,11
 401 1182 401 1182 338 1170 c 128,-1,12
 275 1158 275 1158 189 1138 c 0,13,14
 172 1133 172 1133 153 1129 c 1,15,-1
 127 1418 l 1,16,17
 162 1424 162 1424 169 1426 c 0,18,19
 261 1442 261 1442 335 1452 c 128,-1,20
 409 1462 409 1462 491 1462 c 0,21,22
 693 1462 693 1462 825.5 1376 c 128,-1,23
 958 1290 958 1290 958 1073 c 0,24,25
 958 936 958 936 915.5 833.5 c 128,-1,26
 873 731 873 731 814 664 c 128,-1,27
 755 597 755 597 663 514 c 0,28,29
 604 462 604 462 570.5 427.5 c 128,-1,30
 537 393 537 393 515.5 353 c 128,-1,31
 494 313 494 313 494 267 c 1,32,-1
 1013 267 l 1,33,-1
 1013 0 l 1,34,-1
 118 0 l 1,35,-1
 118 61 l 2,0,1
EndSplineSet
Substitution2: "'sups' Superscript in Latin lookup 11 subtable" uni00B2
Substitution2: "'aalt' Access All Alternates in Latin lookup 0 subtable" uni00B2
EndChar

StartChar: three
Encoding: 51 51 236
Width: 1178
Flags: W
LayerCount: 2
Back
Fore
SplineSet
187 273 m 1,0,1
 226 260 226 260 290 250.5 c 128,-1,2
 354 241 354 241 421 241 c 0,3,4
 540 241 540 241 619.5 276 c 128,-1,5
 699 311 699 311 699 390 c 0,6,7
 699 591 699 591 354 591 c 1,8,-1
 348 890 l 1,9,10
 648 890 648 890 648 1074 c 0,11,12
 648 1150 648 1150 583 1181.5 c 128,-1,13
 518 1213 518 1213 418 1213 c 0,14,15
 366 1213 366 1213 314 1206 c 128,-1,16
 262 1199 262 1199 228 1191 c 1,17,-1
 210 1431 l 1,18,19
 215 1432 215 1432 221.5 1433 c 128,-1,20
 228 1434 228 1434 238 1435 c 0,21,22
 310 1446 310 1446 373.5 1453 c 128,-1,23
 437 1460 437 1460 509 1460 c 0,24,25
 703 1460 703 1460 832.5 1384.5 c 128,-1,26
 962 1309 962 1309 962 1115 c 0,27,28
 962 831 962 831 685 751 c 1,29,-1
 685 747 l 1,30,31
 789 736 789 736 863 686.5 c 128,-1,32
 937 637 937 637 974 563 c 128,-1,33
 1011 489 1011 489 1011 405 c 0,34,35
 1011 168 1011 168 856 73.5 c 128,-1,36
 701 -21 701 -21 477 -21 c 0,37,38
 380 -21 380 -21 291.5 -7.5 c 128,-1,39
 203 6 203 6 159 19 c 1,40,-1
 187 273 l 1,0,1
EndSplineSet
Substitution2: "'sups' Superscript in Latin lookup 11 subtable" uni00B3
Substitution2: "'aalt' Access All Alternates in Latin lookup 0 subtable" uni00B3
EndChar

StartChar: four
Encoding: 52 52 237
Width: 1178
Flags: W
LayerCount: 2
Back
Fore
SplineSet
721 256 m 1,0,-1
 47 256 l 1,1,-1
 47 428 l 1,2,-1
 709 1434 l 1,3,-1
 986 1433 l 1,4,-1
 986 491 l 1,5,-1
 1130 491 l 1,6,-1
 1130 256 l 1,7,-1
 986 256 l 1,8,-1
 986 -1 l 1,9,-1
 721 -1 l 1,10,-1
 721 256 l 1,0,-1
721 491 m 1,11,-1
 721 988 l 1,12,-1
 391 491 l 1,13,-1
 721 491 l 1,11,-1
EndSplineSet
EndChar

StartChar: five
Encoding: 53 53 238
Width: 1178
Flags: W
LayerCount: 2
Back
Fore
SplineSet
181 287 m 1,0,1
 220 273 220 273 301.5 257.5 c 128,-1,2
 383 242 383 242 463 242 c 0,3,4
 580 242 580 242 654.5 284.5 c 128,-1,5
 729 327 729 327 729 428 c 0,6,7
 729 527 729 527 654 577 c 128,-1,8
 579 627 579 627 452 627 c 0,9,10
 409 627 409 627 326.5 623 c 128,-1,11
 244 619 244 619 201 615 c 1,12,-1
 230 1434 l 1,13,-1
 953 1434 l 1,14,-1
 948 1156 l 1,15,-1
 513 1156 l 1,16,-1
 503 885 l 1,17,-1
 534 887 l 1,18,-1
 585 890 l 1,19,20
 733 890 733 890 832 832 c 128,-1,21
 931 774 931 774 979 673 c 128,-1,22
 1027 572 1027 572 1027 441 c 0,23,24
 1027 187 1027 187 871.5 83 c 128,-1,25
 716 -21 716 -21 492 -21 c 0,26,27
 416 -21 416 -21 344 -11.5 c 128,-1,28
 272 -2 272 -2 220 11.5 c 128,-1,29
 168 25 168 25 150 36 c 1,30,-1
 181 287 l 1,0,1
EndSplineSet
EndChar

StartChar: six
Encoding: 54 54 239
Width: 1178
Flags: W
LayerCount: 2
Back
Fore
SplineSet
891 846.5 m 128,-1,1
 984 783 984 783 1027 682 c 128,-1,2
 1070 581 1070 581 1070 466 c 0,3,4
 1070 310 1070 310 1008 199 c 128,-1,5
 946 88 946 88 840.5 31 c 128,-1,6
 735 -26 735 -26 606 -26 c 0,7,8
 318 -26 318 -26 212.5 166.5 c 128,-1,9
 107 359 107 359 107 630 c 0,10,11
 107 920 107 920 173 1101.5 c 128,-1,12
 239 1283 239 1283 373.5 1369 c 128,-1,13
 508 1455 508 1455 718 1455 c 0,14,15
 826 1455 826 1455 961 1432 c 1,16,-1
 931 1148 l 1,17,18
 839 1162 839 1162 772 1162 c 0,19,20
 592 1162 592 1162 510.5 1078.5 c 128,-1,21
 429 995 429 995 412 837 c 1,22,23
 517 910 517 910 657 910 c 0,24,0
 798 910 798 910 891 846.5 c 128,-1,1
741 300.5 m 128,-1,26
 780 356 780 356 780 442 c 0,27,28
 780 515 780 515 737 566 c 128,-1,29
 694 617 694 617 601 617 c 2,30,-1
 576 618 l 2,31,32
 482 618 482 618 408 580 c 1,33,34
 411 483 411 483 423 414.5 c 128,-1,35
 435 346 435 346 479.5 295.5 c 128,-1,36
 524 245 524 245 614 245 c 0,37,25
 702 245 702 245 741 300.5 c 128,-1,26
EndSplineSet
EndChar

StartChar: seven
Encoding: 55 55 240
Width: 1178
Flags: W
LayerCount: 2
Back
Fore
SplineSet
746 1146 m 1,0,-1
 148 1146 l 1,1,-1
 148 1434 l 1,2,-1
 1116 1434 l 1,3,-1
 1118 1341 l 1,4,-1
 661 0 l 1,5,-1
 355 0 l 1,6,-1
 746 1146 l 1,0,-1
EndSplineSet
EndChar

StartChar: eight
Encoding: 56 56 241
Width: 1178
Flags: W
LayerCount: 2
Back
Fore
SplineSet
334 29.5 m 128,-1,1
 222 82 222 82 161 178 c 128,-1,2
 100 274 100 274 100 400 c 0,3,4
 100 482 100 482 137 557 c 128,-1,5
 174 632 174 632 241 689 c 128,-1,6
 308 746 308 746 396 776 c 1,7,8
 291 827 291 827 227 913 c 128,-1,9
 163 999 163 999 163 1090 c 0,10,11
 163 1200 163 1200 216.5 1283.5 c 128,-1,12
 270 1367 270 1367 367.5 1412.5 c 128,-1,13
 465 1458 465 1458 594 1458 c 0,14,15
 720 1458 720 1458 816 1412.5 c 128,-1,16
 912 1367 912 1367 964.5 1283.5 c 128,-1,17
 1017 1200 1017 1200 1017 1090 c 0,18,19
 1017 1001 1017 1001 956 914.5 c 128,-1,20
 895 828 895 828 795 776 c 1,21,22
 880 745 880 745 944 688 c 128,-1,23
 1008 631 1008 631 1043.5 556 c 128,-1,24
 1079 481 1079 481 1079 400 c 0,25,26
 1079 274 1079 274 1018.5 178 c 128,-1,27
 958 82 958 82 848 29.5 c 128,-1,28
 738 -23 738 -23 593 -23 c 0,29,0
 446 -23 446 -23 334 29.5 c 128,-1,1
695 975.5 m 128,-1,31
 731 1015 731 1015 731 1081 c 0,32,33
 731 1146 731 1146 695.5 1185.5 c 128,-1,34
 660 1225 660 1225 601 1225 c 0,35,36
 535 1225 535 1225 495.5 1185.5 c 128,-1,37
 456 1146 456 1146 456 1081 c 0,38,39
 456 1015 456 1015 495 975.5 c 128,-1,40
 534 936 534 936 599 936 c 0,41,30
 659 936 659 936 695 975.5 c 128,-1,31
738.5 269 m 128,-1,43
 791 323 791 323 791 413 c 0,44,45
 791 498 791 498 738 549.5 c 128,-1,46
 685 601 685 601 597 601 c 256,47,48
 509 601 509 601 456 550 c 128,-1,49
 403 499 403 499 403 414 c 0,50,51
 403 324 403 324 456.5 269.5 c 128,-1,52
 510 215 510 215 598 215 c 256,53,42
 686 215 686 215 738.5 269 c 128,-1,43
EndSplineSet
EndChar

StartChar: nine
Encoding: 57 57 242
Width: 1178
Flags: W
LayerCount: 2
Back
Fore
SplineSet
939.5 1289 m 128,-1,1
 1057 1119 1057 1119 1057 799 c 0,2,3
 1057 418 1057 418 921.5 197.5 c 128,-1,4
 786 -23 786 -23 450 -23 c 0,5,6
 355 -23 355 -23 245 -4 c 1,7,-1
 265 285 l 1,8,9
 355 267 355 267 424 267 c 0,10,11
 582 267 582 267 658 351.5 c 128,-1,12
 734 436 734 436 756 600 c 1,13,14
 667 530 667 530 504 530 c 0,15,16
 396 530 396 530 302.5 582.5 c 128,-1,17
 209 635 209 635 152.5 738.5 c 128,-1,18
 96 842 96 842 96 988 c 0,19,20
 96 1124 96 1124 152.5 1231 c 128,-1,21
 209 1338 209 1338 314 1398.5 c 128,-1,22
 419 1459 419 1459 558 1459 c 0,23,0
 822 1459 822 1459 939.5 1289 c 128,-1,1
766 873 m 1,25,26
 761 992 761 992 740 1063.5 c 128,-1,27
 719 1135 719 1135 677 1168 c 128,-1,28
 635 1201 635 1201 567 1201 c 0,29,30
 477 1201 477 1201 438 1147 c 128,-1,31
 399 1093 399 1093 399 1011 c 0,32,33
 399 907 399 907 452.5 852.5 c 128,-1,34
 506 798 506 798 590 798 c 0,35,24
 700 798 700 798 766 873 c 1,25,26
EndSplineSet
EndChar

StartChar: onehalf
Encoding: 189 189 243
Width: 1977
Flags: W
LayerCount: 2
Back
Fore
SplineSet
321 -30 m 1,0,-1
 1252 1484 l 1,1,-1
 1486 1384 l 1,2,-1
 555 -130 l 1,3,-1
 321 -30 l 1,0,-1
333 1138 m 1,4,-1
 91 1062 l 1,5,-1
 35 1305 l 1,6,-1
 449 1451 l 1,7,-1
 604 1451 l 1,8,-1
 605 588 l 1,9,-1
 333 588 l 1,10,-1
 333 1138 l 1,4,-1
1213 61 m 2,11,12
 1213 117 1213 117 1237.5 162.5 c 128,-1,13
 1262 208 1262 208 1296 241 c 128,-1,14
 1330 274 1330 274 1387 320 c 0,15,16
 1435 358 1435 358 1462 383 c 128,-1,17
 1489 408 1489 408 1507 438.5 c 128,-1,18
 1525 469 1525 469 1525 504 c 0,19,20
 1525 625 1525 625 1394 625 c 0,21,22
 1357 625 1357 625 1317.5 616 c 128,-1,23
 1278 607 1278 607 1248 595 c 1,24,-1
 1222 834 l 2,25,26
 1224 834 1224 834 1258 841 c 0,27,28
 1326 854 1326 854 1383.5 862.5 c 128,-1,29
 1441 871 1441 871 1502 871 c 0,30,31
 1643 871 1643 871 1733 808.5 c 128,-1,32
 1823 746 1823 746 1823 589 c 0,33,34
 1823 523 1823 523 1794 463 c 128,-1,35
 1765 403 1765 403 1727.5 359 c 128,-1,36
 1690 315 1690 315 1636 263 c 2,37,-1
 1619 247 l 1,38,-1
 1878 247 l 1,39,-1
 1878 0 l 1,40,-1
 1213 0 l 1,41,-1
 1213 61 l 2,11,12
EndSplineSet
Ligature2: "'frac' Diagonal Fractions in Latin lookup 12 subtable" one slash two
EndChar

StartChar: onequarter
Encoding: 188 188 244
Width: 1950
Flags: W
LayerCount: 2
Back
Fore
SplineSet
325 -30 m 1,0,-1
 1256 1484 l 1,1,-1
 1490 1384 l 1,2,-1
 559 -130 l 1,3,-1
 325 -30 l 1,0,-1
333 1138 m 1,4,-1
 91 1062 l 1,5,-1
 35 1305 l 1,6,-1
 449 1451 l 1,7,-1
 604 1451 l 1,8,-1
 605 588 l 1,9,-1
 333 588 l 1,10,-1
 333 1138 l 1,4,-1
1525 176 m 1,11,-1
 1119 176 l 1,12,-1
 1119 348 l 1,13,-1
 1441 854 l 1,14,-1
 1738 853 l 1,15,-1
 1738 361 l 1,16,-1
 1869 361 l 1,17,-1
 1869 176 l 1,18,-1
 1738 176 l 1,19,-1
 1738 -1 l 1,20,-1
 1525 -1 l 1,21,-1
 1525 176 l 1,11,-1
1525 361 m 1,22,-1
 1525 584 l 1,23,-1
 1383 361 l 1,24,-1
 1525 361 l 1,22,-1
EndSplineSet
Ligature2: "'frac' Diagonal Fractions in Latin lookup 12 subtable" one slash four
EndChar

StartChar: threequarters
Encoding: 190 190 245
Width: 2005
Flags: W
LayerCount: 2
Back
Fore
SplineSet
371 -30 m 1,0,-1
 1302 1484 l 1,1,-1
 1536 1384 l 1,2,-1
 605 -130 l 1,3,-1
 371 -30 l 1,0,-1
121 595 m 1,5,-1
 151 806 l 1,6,7
 236 778 236 778 332 778 c 0,8,9
 432 778 432 778 432 840 c 0,10,11
 432 876 432 876 383 894.5 c 128,-1,12
 334 913 334 913 240 913 c 1,13,-1
 236 1099 l 1,14,15
 415 1099 415 1099 415 1175 c 0,16,17
 415 1235 415 1235 346 1235 c 0,18,19
 254 1235 254 1235 178 1210 c 1,20,-1
 148 1416 l 1,21,22
 246 1453 246 1453 387 1453 c 0,23,24
 475 1453 475 1453 540.5 1428 c 128,-1,25
 606 1403 606 1403 641 1357.5 c 128,-1,26
 676 1312 676 1312 676 1252 c 0,27,28
 676 1083 676 1083 513 1027 c 1,29,-1
 513 1023 l 1,30,31
 705 978 705 978 705 805 c 0,32,33
 705 733 705 733 660.5 678 c 128,-1,34
 616 623 616 623 535.5 592.5 c 128,-1,35
 455 562 455 562 350 562 c 0,36,4
 217 562 217 562 121 595 c 1,5,-1
1571 176 m 1,37,-1
 1165 176 l 1,38,-1
 1165 348 l 1,39,-1
 1487 854 l 1,40,-1
 1784 853 l 1,41,-1
 1784 361 l 1,42,-1
 1915 361 l 1,43,-1
 1915 176 l 1,44,-1
 1784 176 l 1,45,-1
 1784 -1 l 1,46,-1
 1571 -1 l 1,47,-1
 1571 176 l 1,37,-1
1571 361 m 1,48,-1
 1571 584 l 1,49,-1
 1429 361 l 1,50,-1
 1571 361 l 1,48,-1
EndSplineSet
Ligature2: "'frac' Diagonal Fractions in Latin lookup 12 subtable" three slash four
EndChar

StartChar: uni00B9
Encoding: 185 185 246
Width: 807
Flags: W
LayerCount: 2
Back
Fore
SplineSet
343 1433 m 1,0,-1
 101 1357 l 1,1,-1
 45 1600 l 1,2,-1
 459 1746 l 1,3,-1
 614 1746 l 1,4,-1
 615 883 l 1,5,-1
 343 883 l 1,6,-1
 343 1433 l 1,0,-1
EndSplineSet
EndChar

StartChar: uni00B2
Encoding: 178 178 247
Width: 828
Flags: W
LayerCount: 2
Back
Fore
SplineSet
98 946 m 2,0,1
 98 1002 98 1002 122.5 1047.5 c 128,-1,2
 147 1093 147 1093 181 1126 c 128,-1,3
 215 1159 215 1159 272 1205 c 0,4,5
 320 1243 320 1243 347 1268 c 128,-1,6
 374 1293 374 1293 392 1323.5 c 128,-1,7
 410 1354 410 1354 410 1389 c 0,8,9
 410 1510 410 1510 279 1510 c 0,10,11
 242 1510 242 1510 202.5 1501 c 128,-1,12
 163 1492 163 1492 133 1480 c 1,13,-1
 107 1719 l 2,14,15
 109 1719 109 1719 143 1726 c 0,16,17
 211 1739 211 1739 268.5 1747.5 c 128,-1,18
 326 1756 326 1756 387 1756 c 0,19,20
 528 1756 528 1756 618 1693.5 c 128,-1,21
 708 1631 708 1631 708 1474 c 0,22,23
 708 1408 708 1408 679 1348 c 128,-1,24
 650 1288 650 1288 612.5 1244 c 128,-1,25
 575 1200 575 1200 521 1148 c 2,26,-1
 504 1132 l 1,27,-1
 763 1132 l 1,28,-1
 763 885 l 1,29,-1
 98 885 l 1,30,-1
 98 946 l 2,0,1
EndSplineSet
EndChar

StartChar: uni00B3
Encoding: 179 179 248
Width: 828
Flags: W
LayerCount: 2
Back
Fore
SplineSet
131 896 m 1,1,-1
 161 1107 l 1,2,3
 246 1079 246 1079 342 1079 c 0,4,5
 442 1079 442 1079 442 1141 c 0,6,7
 442 1177 442 1177 393 1195.5 c 128,-1,8
 344 1214 344 1214 250 1214 c 1,9,-1
 246 1400 l 1,10,11
 425 1400 425 1400 425 1476 c 0,12,13
 425 1536 425 1536 356 1536 c 0,14,15
 264 1536 264 1536 188 1511 c 1,16,-1
 158 1717 l 1,17,18
 256 1754 256 1754 397 1754 c 0,19,20
 485 1754 485 1754 550.5 1729 c 128,-1,21
 616 1704 616 1704 651 1658.5 c 128,-1,22
 686 1613 686 1613 686 1553 c 0,23,24
 686 1384 686 1384 523 1328 c 1,25,-1
 523 1324 l 1,26,27
 715 1279 715 1279 715 1106 c 0,28,29
 715 1034 715 1034 670.5 979 c 128,-1,30
 626 924 626 924 545.5 893.5 c 128,-1,31
 465 863 465 863 360 863 c 0,32,0
 227 863 227 863 131 896 c 1,1,-1
EndSplineSet
EndChar

StartChar: asterisk
Encoding: 42 42 249
Width: 932
Flags: W
LayerCount: 2
Back
Fore
SplineSet
633 1078 m 1,0,-1
 834 981 l 1,1,-1
 741 819 l 1,2,-1
 556 945 l 1,3,-1
 572 722 l 1,4,-1
 386 722 l 1,5,-1
 402 945 l 1,6,-1
 217 819 l 1,7,-1
 124 981 l 1,8,-1
 325 1078 l 1,9,-1
 124 1175 l 1,10,-1
 217 1337 l 1,11,-1
 402 1211 l 1,12,-1
 386 1434 l 1,13,-1
 572 1434 l 1,14,-1
 556 1211 l 1,15,-1
 741 1337 l 1,16,-1
 834 1175 l 1,17,-1
 633 1078 l 1,0,-1
EndSplineSet
EndChar

StartChar: backslash
Encoding: 92 92 250
Width: 893
Flags: W
LayerCount: 2
Back
Fore
SplineSet
-9 1438 m 1,0,-1
 251 1520 l 1,1,-1
 920 -154 l 1,2,-1
 664 -236 l 1,3,-1
 -9 1438 l 1,0,-1
EndSplineSet
EndChar

StartChar: periodcentered
Encoding: 183 183 251
Width: 555
Flags: W
LayerCount: 2
Back
Fore
SplineSet
144 408.5 m 128,-1,1
 99 452 99 452 99 524 c 256,2,3
 99 596 99 596 144 640 c 128,-1,4
 189 684 189 684 263 684 c 256,5,6
 337 684 337 684 382.5 640 c 128,-1,7
 428 596 428 596 428 524 c 256,8,9
 428 452 428 452 382.5 408.5 c 128,-1,10
 337 365 337 365 263 365 c 256,11,0
 189 365 189 365 144 408.5 c 128,-1,1
EndSplineSet
EndChar

StartChar: bullet
Encoding: 8226 8226 252
Width: 865
Flags: W
LayerCount: 2
Back
Fore
SplineSet
569.5 268.5 m 128,-1,1
 633 306 633 306 670.5 369.5 c 128,-1,2
 708 433 708 433 708 507 c 256,3,4
 708 581 708 581 670.5 644 c 128,-1,5
 633 707 633 707 569.5 744 c 128,-1,6
 506 781 506 781 431 781 c 256,7,8
 356 781 356 781 293 744.5 c 128,-1,9
 230 708 230 708 193.5 645 c 128,-1,10
 157 582 157 582 157 507 c 256,11,12
 157 432 157 432 194 368.5 c 128,-1,13
 231 305 231 305 294 268 c 128,-1,14
 357 231 357 231 431 231 c 0,15,0
 506 231 506 231 569.5 268.5 c 128,-1,1
EndSplineSet
EndChar

StartChar: colon
Encoding: 58 58 253
Width: 555
Flags: W
LayerCount: 2
Back
Fore
SplineSet
181.5 691.5 m 128,-1,1
 140 716 140 716 116 758.5 c 128,-1,2
 92 801 92 801 92 852 c 0,3,4
 92 905 92 905 116.5 947 c 128,-1,5
 141 989 141 989 183.5 1012.5 c 128,-1,6
 226 1036 226 1036 279 1036 c 256,7,8
 332 1036 332 1036 374 1012.5 c 128,-1,9
 416 989 416 989 439.5 947 c 128,-1,10
 463 905 463 905 463 852 c 0,11,12
 463 798 463 798 439 756 c 128,-1,13
 415 714 415 714 372 690.5 c 128,-1,14
 329 667 329 667 274 667 c 0,15,0
 223 667 223 667 181.5 691.5 c 128,-1,1
181.5 -0.5 m 128,-1,17
 140 24 140 24 116 67 c 128,-1,18
 92 110 92 110 92 161 c 0,19,20
 92 214 92 214 116.5 256 c 128,-1,21
 141 298 141 298 183.5 321.5 c 128,-1,22
 226 345 226 345 279 345 c 256,23,24
 332 345 332 345 374 321.5 c 128,-1,25
 416 298 416 298 439.5 256 c 128,-1,26
 463 214 463 214 463 161 c 0,27,28
 463 107 463 107 439 64.5 c 128,-1,29
 415 22 415 22 372 -1.5 c 128,-1,30
 329 -25 329 -25 274 -25 c 0,31,16
 223 -25 223 -25 181.5 -0.5 c 128,-1,17
EndSplineSet
EndChar

StartChar: comma
Encoding: 44 44 254
Width: 555
Flags: W
LayerCount: 2
Back
Fore
SplineSet
29 -184 m 1,0,1
 92 -84 92 -84 128.5 25 c 128,-1,2
 165 134 165 134 176 238 c 1,3,-1
 446 238 l 1,4,5
 445 74 445 74 397 -67 c 128,-1,6
 349 -208 349 -208 256 -304 c 1,7,-1
 29 -184 l 1,0,1
EndSplineSet
EndChar

StartChar: exclam
Encoding: 33 33 256
Width: 670
Flags: W
LayerCount: 2
Back
Fore
SplineSet
207 1434 m 1,0,-1
 479 1434 l 1,1,-1
 460 454 l 1,2,-1
 225 454 l 1,3,-1
 207 1434 l 1,0,-1
215 21.5 m 128,-1,5
 170 65 170 65 170 137 c 256,6,7
 170 209 170 209 215 253 c 128,-1,8
 260 297 260 297 334 297 c 256,9,10
 408 297 408 297 453.5 253 c 128,-1,11
 499 209 499 209 499 137 c 256,12,13
 499 65 499 65 453.5 21.5 c 128,-1,14
 408 -22 408 -22 334 -22 c 256,15,4
 260 -22 260 -22 215 21.5 c 128,-1,5
EndSplineSet
EndChar

StartChar: numbersign
Encoding: 35 35 258
Width: 1213
Flags: W
LayerCount: 2
Back
Fore
SplineSet
938 885 m 1,0,-1
 889 655 l 1,1,-1
 1105 655 l 1,2,-1
 1076 458 l 1,3,-1
 847 458 l 1,4,-1
 775 123 l 1,5,-1
 568 123 l 1,6,-1
 640 458 l 1,7,-1
 449 458 l 1,8,-1
 377 119 l 1,9,-1
 167 119 l 1,10,-1
 238 458 l 1,11,-1
 39 458 l 1,12,-1
 68 655 l 1,13,-1
 279 655 l 1,14,-1
 327 885 l 1,15,-1
 109 885 l 1,16,-1
 138 1082 l 1,17,-1
 368 1082 l 1,18,-1
 442 1434 l 1,19,-1
 655 1434 l 1,20,-1
 581 1082 l 1,21,-1
 773 1082 l 1,22,-1
 849 1438 l 1,23,-1
 1056 1438 l 1,24,-1
 980 1082 l 1,25,-1
 1175 1082 l 1,26,-1
 1146 885 l 1,27,-1
 938 885 l 1,0,-1
731 885 m 1,28,-1
 539 885 l 1,29,-1
 490 655 l 1,30,-1
 682 655 l 1,31,-1
 731 885 l 1,28,-1
EndSplineSet
EndChar

StartChar: period
Encoding: 46 46 259
Width: 555
Flags: W
LayerCount: 2
Back
Fore
SplineSet
168 21.5 m 128,-1,1
 123 65 123 65 123 137 c 256,2,3
 123 209 123 209 168 253 c 128,-1,4
 213 297 213 297 287 297 c 256,5,6
 361 297 361 297 406.5 253 c 128,-1,7
 452 209 452 209 452 137 c 256,8,9
 452 65 452 65 406.5 21.5 c 128,-1,10
 361 -22 361 -22 287 -22 c 256,11,0
 213 -22 213 -22 168 21.5 c 128,-1,1
EndSplineSet
EndChar

StartChar: question
Encoding: 63 63 260
Width: 897
Flags: W
LayerCount: 2
Back
Fore
SplineSet
270 522 m 2,0,1
 270 624 270 624 292.5 691 c 128,-1,2
 315 758 315 758 347 795.5 c 128,-1,3
 379 833 379 833 429 874 c 0,4,5
 468 906 468 906 490 929.5 c 128,-1,6
 512 953 512 953 526.5 988.5 c 128,-1,7
 541 1024 541 1024 541 1075 c 0,8,9
 541 1142 541 1142 506 1179.5 c 128,-1,10
 471 1217 471 1217 407 1218 c 0,11,12
 307 1218 307 1218 161 1183 c 1,13,-1
 124 1420 l 1,14,15
 189 1438 189 1438 266.5 1448 c 128,-1,16
 344 1458 344 1458 420 1458 c 0,17,18
 613 1458 613 1458 718.5 1365 c 128,-1,19
 824 1272 824 1272 824 1103 c 0,20,21
 824 1003 824 1003 799 936 c 128,-1,22
 774 869 774 869 739 829.5 c 128,-1,23
 704 790 704 790 648 745 c 0,24,25
 604 709 604 709 579 683.5 c 128,-1,26
 554 658 554 658 537 619.5 c 128,-1,27
 520 581 520 581 520 528 c 2,28,-1
 520 360 l 1,29,-1
 270 360 l 1,30,-1
 270 522 l 2,0,1
278 21.5 m 128,-1,32
 233 65 233 65 233 137 c 256,33,34
 233 209 233 209 278 253 c 128,-1,35
 323 297 323 297 397 297 c 256,36,37
 471 297 471 297 516.5 253 c 128,-1,38
 562 209 562 209 562 137 c 256,39,40
 562 65 562 65 516.5 21.5 c 128,-1,41
 471 -22 471 -22 397 -22 c 256,42,31
 323 -22 323 -22 278 21.5 c 128,-1,32
EndSplineSet
EndChar

StartChar: quotedbl
Encoding: 34 34 262
Width: 1010
Flags: W
LayerCount: 2
Back
Fore
SplineSet
191 1468 m 1,0,-1
 431 1468 l 1,1,-1
 431 1000 l 1,2,-1
 191 1000 l 1,3,-1
 191 1468 l 1,0,-1
579 1468 m 1,4,-1
 819 1468 l 1,5,-1
 819 1000 l 1,6,-1
 579 1000 l 1,7,-1
 579 1468 l 1,4,-1
EndSplineSet
EndChar

StartChar: quotesingle
Encoding: 39 39 263
Width: 600
Flags: W
LayerCount: 2
Back
Fore
SplineSet
175 1468 m 1,0,-1
 415 1468 l 1,1,-1
 415 1000 l 1,2,-1
 175 1000 l 1,3,-1
 175 1468 l 1,0,-1
EndSplineSet
EndChar

StartChar: semicolon
Encoding: 59 59 264
Width: 555
Flags: W
LayerCount: 2
Back
Fore
SplineSet
181.5 691.5 m 128,-1,1
 140 716 140 716 116 758.5 c 128,-1,2
 92 801 92 801 92 852 c 0,3,4
 92 905 92 905 116.5 947 c 128,-1,5
 141 989 141 989 183.5 1012.5 c 128,-1,6
 226 1036 226 1036 279 1036 c 256,7,8
 332 1036 332 1036 374 1012.5 c 128,-1,9
 416 989 416 989 439.5 947 c 128,-1,10
 463 905 463 905 463 852 c 0,11,12
 463 798 463 798 439 756 c 128,-1,13
 415 714 415 714 372 690.5 c 128,-1,14
 329 667 329 667 274 667 c 0,15,0
 223 667 223 667 181.5 691.5 c 128,-1,1
69 -184 m 1,16,17
 132 -84 132 -84 168.5 25 c 128,-1,18
 205 134 205 134 216 238 c 1,19,-1
 486 238 l 1,20,21
 485 74 485 74 437 -67 c 128,-1,22
 389 -208 389 -208 296 -304 c 1,23,-1
 69 -184 l 1,16,17
EndSplineSet
EndChar

StartChar: braceleft
Encoding: 123 123 267
Width: 756
Flags: W
LayerCount: 2
Back
Fore
SplineSet
432.5 -291 m 128,-1,1
 342 -256 342 -256 299 -176.5 c 128,-1,2
 256 -97 256 -97 256 39 c 2,3,-1
 256 279 l 2,4,5
 256 463 256 463 104 463 c 1,6,-1
 104 647 l 1,7,8
 256 647 256 647 256 838 c 2,9,-1
 256 1061 l 2,10,11
 256 1199 256 1199 299 1280 c 128,-1,12
 342 1361 342 1361 432.5 1397.5 c 128,-1,13
 523 1434 523 1434 672 1434 c 1,14,-1
 672 1247 l 1,15,16
 512 1247 512 1247 512 1073 c 2,17,-1
 512 860 l 2,18,19
 512 620 512 620 358 557 c 1,20,-1
 358 553 l 1,21,22
 512 492 512 492 512 246 c 2,23,-1
 512 41 l 2,24,25
 512 -57 512 -57 549.5 -98 c 128,-1,26
 587 -139 587 -139 672 -139 c 1,27,-1
 672 -326 l 1,28,0
 523 -326 523 -326 432.5 -291 c 128,-1,1
EndSplineSet
EndChar

StartChar: bracketleft
Encoding: 91 91 269
Width: 756
Flags: W
LayerCount: 2
Back
Fore
SplineSet
217 1434 m 1,0,-1
 686 1434 l 1,1,-1
 686 1233 l 1,2,-1
 477 1233 l 1,3,-1
 477 -125 l 1,4,-1
 686 -125 l 1,5,-1
 686 -326 l 1,6,-1
 217 -326 l 1,7,-1
 217 1434 l 1,0,-1
EndSplineSet
EndChar

StartChar: parenleft
Encoding: 40 40 271
Width: 756
Flags: W
LayerCount: 2
Back
Fore
SplineSet
234.5 68.5 m 128,-1,1
 158 276 158 276 158 549 c 0,2,3
 158 813 158 813 234.5 1023 c 128,-1,4
 311 1233 311 1233 481 1434 c 1,5,-1
 667 1324 l 1,6,7
 545 1138 545 1138 489.5 954.5 c 128,-1,8
 434 771 434 771 434 549 c 0,9,10
 434 331 434 331 487.5 152 c 128,-1,11
 541 -27 541 -27 659 -206 c 1,12,-1
 481 -326 l 1,13,0
 311 -139 311 -139 234.5 68.5 c 128,-1,1
EndSplineSet
EndChar

StartChar: emdash
Encoding: 8212 8212 273
Width: 2048
Flags: W
LayerCount: 2
Back
Fore
SplineSet
2024 407 m 1,0,-1
 0 407 l 1,1,-1
 0 627 l 1,2,-1
 2024 627 l 1,3,-1
 2024 407 l 1,0,-1
EndSplineSet
EndChar

StartChar: endash
Encoding: 8211 8211 274
Width: 1024
Flags: W
LayerCount: 2
Back
Fore
SplineSet
1024 407 m 1,0,-1
 0 407 l 1,1,-1
 0 627 l 1,2,-1
 1024 627 l 1,3,-1
 1024 407 l 1,0,-1
EndSplineSet
EndChar

StartChar: hyphen
Encoding: 45 45 275
Width: 828
Flags: W
LayerCount: 2
Back
Fore
SplineSet
143 627 m 1,0,-1
 690 627 l 1,1,-1
 690 407 l 1,2,-1
 143 407 l 1,3,-1
 143 627 l 1,0,-1
EndSplineSet
EndChar

StartChar: guillemotleft
Encoding: 171 171 277
Width: 1190
Flags: W
LayerCount: 2
Back
Fore
SplineSet
33 487 m 1,0,-1
 363 831 l 1,1,-1
 671 831 l 1,2,-1
 337 487 l 1,3,-1
 671 151 l 1,4,-1
 363 151 l 1,5,-1
 33 487 l 1,0,-1
501 487 m 1,6,-1
 831 831 l 1,7,-1
 1139 831 l 1,8,-1
 805 487 l 1,9,-1
 1139 151 l 1,10,-1
 831 151 l 1,11,-1
 501 487 l 1,6,-1
EndSplineSet
EndChar

StartChar: guillemotright
Encoding: 187 187 278
Width: 1190
Flags: W
LayerCount: 2
Back
Fore
SplineSet
53 151 m 1,0,-1
 387 487 l 1,1,-1
 53 831 l 1,2,-1
 361 831 l 1,3,-1
 691 487 l 1,4,-1
 361 151 l 1,5,-1
 53 151 l 1,0,-1
531 151 m 1,6,-1
 865 487 l 1,7,-1
 531 831 l 1,8,-1
 839 831 l 1,9,-1
 1169 487 l 1,10,-1
 839 151 l 1,11,-1
 531 151 l 1,6,-1
EndSplineSet
EndChar

StartChar: guilsinglleft
Encoding: 8249 8249 279
Width: 705
Flags: W
LayerCount: 2
Back
Fore
SplineSet
53 487 m 1,0,-1
 383 831 l 1,1,-1
 691 831 l 1,2,-1
 357 487 l 1,3,-1
 691 151 l 1,4,-1
 383 151 l 1,5,-1
 53 487 l 1,0,-1
EndSplineSet
EndChar

StartChar: quotedblleft
Encoding: 8220 8220 282
Width: 1010
Flags: W
LayerCount: 2
Back
Fore
SplineSet
517 1396 m 1,0,1
 454 1296 454 1296 417.5 1187 c 128,-1,2
 381 1078 381 1078 370 974 c 1,3,-1
 100 974 l 1,4,5
 101 1138 101 1138 149 1279 c 128,-1,6
 197 1420 197 1420 290 1516 c 1,7,-1
 517 1396 l 1,0,1
932 1396 m 1,8,9
 869 1296 869 1296 832.5 1187 c 128,-1,10
 796 1078 796 1078 785 974 c 1,11,-1
 515 974 l 1,12,13
 516 1138 516 1138 564 1279 c 128,-1,14
 612 1420 612 1420 705 1516 c 1,15,-1
 932 1396 l 1,8,9
EndSplineSet
EndChar

StartChar: quotedblright
Encoding: 8221 8221 283
Width: 1010
Flags: W
LayerCount: 2
Back
Fore
SplineSet
83 1046 m 1,0,1
 146 1146 146 1146 182.5 1255 c 128,-1,2
 219 1364 219 1364 230 1468 c 1,3,-1
 500 1468 l 1,4,5
 499 1304 499 1304 451 1163 c 128,-1,6
 403 1022 403 1022 310 926 c 1,7,-1
 83 1046 l 1,0,1
498 1046 m 1,8,9
 561 1146 561 1146 597.5 1255 c 128,-1,10
 634 1364 634 1364 645 1468 c 1,11,-1
 915 1468 l 1,12,13
 914 1304 914 1304 866 1163 c 128,-1,14
 818 1022 818 1022 725 926 c 1,15,-1
 498 1046 l 1,8,9
EndSplineSet
EndChar

StartChar: quoteleft
Encoding: 8216 8216 284
Width: 594
Flags: W
LayerCount: 2
Back
Fore
SplineSet
518 1396 m 1,0,1
 455 1296 455 1296 418.5 1187 c 128,-1,2
 382 1078 382 1078 371 974 c 1,3,-1
 101 974 l 1,4,5
 102 1138 102 1138 150 1279 c 128,-1,6
 198 1420 198 1420 291 1516 c 1,7,-1
 518 1396 l 1,0,1
EndSplineSet
EndChar

StartChar: cent
Encoding: 162 162 288
Width: 1178
Flags: W
LayerCount: 2
Back
Fore
SplineSet
823 -10 m 1,1,-1
 823 -198 l 1,2,-1
 572 -200 l 1,3,-1
 572 -17 l 1,4,5
 445 0 445 0 354.5 65 c 128,-1,6
 264 130 264 130 216.5 237 c 128,-1,7
 169 344 169 344 169 485 c 0,8,9
 169 623 169 623 216 730 c 128,-1,10
 263 837 263 837 353.5 904.5 c 128,-1,11
 444 972 444 972 572 991 c 1,12,-1
 572 1258 l 1,13,-1
 823 1260 l 1,14,-1
 823 990 l 1,15,16
 941 975 941 975 1022 942 c 1,17,-1
 972 696 l 1,18,19
 869 731 869 731 760 731 c 0,20,21
 618 731 618 731 554.5 670.5 c 128,-1,22
 491 610 491 610 491 490 c 0,23,24
 491 362 491 362 557 300 c 128,-1,25
 623 238 623 238 748 238 c 0,26,27
 801 238 801 238 843 247 c 128,-1,28
 885 256 885 256 954 277 c 1,29,-1
 1025 35 l 1,30,0
 923 5 923 5 823 -10 c 1,1,-1
EndSplineSet
EndChar

StartChar: currency
Encoding: 164 164 289
Width: 1139
Flags: W
LayerCount: 2
Back
Fore
SplineSet
51 194 m 1,0,-1
 193 332 l 1,1,2
 127 442 127 442 127 561 c 0,3,4
 127 682 127 682 193 790 c 1,5,-1
 51 930 l 1,6,-1
 193 1075 l 1,7,-1
 336 934 l 1,8,9
 443 999 443 999 569 999 c 0,10,11
 697 999 697 999 803 934 c 1,12,-1
 946 1075 l 1,13,-1
 1087 930 l 1,14,-1
 946 790 l 1,15,16
 1014 678 1014 678 1014 561 c 0,17,18
 1014 447 1014 447 946 332 c 1,19,-1
 1087 194 l 1,20,-1
 946 49 l 1,21,-1
 803 190 l 1,22,23
 697 125 697 125 569 125 c 0,24,25
 443 125 443 125 336 190 c 1,26,-1
 193 49 l 1,27,-1
 51 194 l 1,0,-1
682.5 373.5 m 128,-1,29
 733 402 733 402 762 452 c 128,-1,30
 791 502 791 502 791 563 c 256,31,32
 791 624 791 624 762 674 c 128,-1,33
 733 724 733 724 682.5 752.5 c 128,-1,34
 632 781 632 781 569 781 c 0,35,36
 507 781 507 781 457 752.5 c 128,-1,37
 407 724 407 724 378.5 674 c 128,-1,38
 350 624 350 624 350 563 c 256,39,40
 350 502 350 502 378.5 452 c 128,-1,41
 407 402 407 402 457 373.5 c 128,-1,42
 507 345 507 345 569 345 c 0,43,28
 632 345 632 345 682.5 373.5 c 128,-1,29
EndSplineSet
EndChar

StartChar: dollar
Encoding: 36 36 290
Width: 1178
Flags: W
LayerCount: 2
Back
Fore
SplineSet
497 970 m 128,-1,1
 523 945 523 945 563 926.5 c 128,-1,2
 603 908 603 908 678 880 c 0,3,4
 804 834 804 834 888 788 c 128,-1,5
 972 742 972 742 1033.5 656 c 128,-1,6
 1095 570 1095 570 1095 436 c 0,7,8
 1095 264 1095 264 1004.5 150 c 128,-1,9
 914 36 914 36 745 -3 c 1,10,-1
 745 -210 l 1,11,-1
 468 -210 l 1,12,-1
 468 -16 l 1,13,14
 380 -6 380 -6 292 21 c 128,-1,15
 204 48 204 48 95 98 c 1,16,-1
 200 377 l 1,17,18
 320 318 320 318 399 296 c 128,-1,19
 478 274 478 274 566 274 c 0,20,21
 686 274 686 274 741 315.5 c 128,-1,22
 796 357 796 357 796 426 c 0,23,24
 796 463 796 463 766 490.5 c 128,-1,25
 736 518 736 518 690.5 538 c 128,-1,26
 645 558 645 558 563 587 c 0,27,28
 429 635 429 635 343 679 c 128,-1,29
 257 723 257 723 194 804 c 128,-1,30
 131 885 131 885 131 1008 c 0,31,32
 131 1177 131 1177 224 1283.5 c 128,-1,33
 317 1390 317 1390 468 1432 c 1,34,-1
 468 1620 l 1,35,-1
 745 1620 l 1,36,-1
 745 1454 l 1,37,38
 898 1440 898 1440 1043 1380 c 1,39,-1
 948 1113 l 1,40,-1
 923 1122 l 2,41,42
 861 1146 861 1146 807 1159 c 128,-1,43
 753 1172 753 1172 677 1172 c 0,44,45
 594 1172 594 1172 532.5 1137.5 c 128,-1,46
 471 1103 471 1103 471 1029 c 0,47,0
 471 995 471 995 497 970 c 128,-1,1
EndSplineSet
EndChar

StartChar: Euro
Encoding: 8364 8364 291
Width: 1178
Flags: W
LayerCount: 2
Back
Fore
SplineSet
1111 65 m 1,0,1
 1041 25 1041 25 951.5 2.5 c 128,-1,2
 862 -20 862 -20 780 -20 c 0,3,4
 556 -20 556 -20 411.5 105 c 128,-1,5
 267 230 267 230 218 464 c 1,6,-1
 109 464 l 1,7,-1
 109 653 l 1,8,-1
 195 653 l 1,9,10
 194 673 194 673 194 713 c 0,11,12
 194 738 194 738 196 784 c 1,13,-1
 109 784 l 1,14,-1
 109 973 l 1,15,-1
 221 973 l 1,16,17
 274 1208 274 1208 427 1334 c 128,-1,18
 580 1460 580 1460 816 1460 c 0,19,20
 876 1460 876 1460 948 1448.5 c 128,-1,21
 1020 1437 1020 1437 1080 1416 c 1,22,-1
 1011 1136 l 1,23,24
 975 1153 975 1153 926 1162.5 c 128,-1,25
 877 1172 877 1172 824 1172 c 0,26,27
 727 1172 727 1172 658 1121 c 128,-1,28
 589 1070 589 1070 552 973 c 1,29,-1
 954 973 l 1,30,-1
 954 784 l 1,31,-1
 514 784 l 1,32,33
 512 744 512 744 512 721 c 0,34,35
 512 697 512 697 514 653 c 1,36,-1
 954 653 l 1,37,-1
 954 464 l 1,38,-1
 553 464 l 1,39,40
 589 370 589 370 655 321 c 128,-1,41
 721 272 721 272 813 272 c 0,42,43
 901 272 901 272 1035 338 c 1,44,-1
 1111 65 l 1,0,1
EndSplineSet
EndChar

StartChar: florin
Encoding: 402 402 292
Width: 1178
Flags: W
LayerCount: 2
Back
Fore
SplineSet
150.5 -299.5 m 128,-1,1
 112 -294 112 -294 78 -285 c 1,2,-1
 128 -43 l 1,3,4
 154 -53 154 -53 190 -53 c 0,5,6
 304 -53 304 -53 334 139 c 2,7,-1
 422 715 l 1,8,-1
 317 715 l 1,9,-1
 317 930 l 1,10,-1
 459 930 l 1,11,-1
 481 1079 l 2,12,13
 498 1190 498 1190 555 1273 c 128,-1,14
 612 1356 612 1356 701.5 1401 c 128,-1,15
 791 1446 791 1446 905 1446 c 0,16,17
 986 1446 986 1446 1064 1423 c 1,18,-1
 1024 1184 l 1,19,20
 981 1194 981 1194 931 1194 c 0,21,22
 815 1194 815 1194 794 1067 c 2,23,-1
 771 930 l 1,24,-1
 929 930 l 1,25,-1
 929 715 l 1,26,-1
 737 715 l 1,27,-1
 646 121 l 2,28,29
 626 -9 626 -9 568.5 -105 c 128,-1,30
 511 -201 511 -201 421.5 -253 c 128,-1,31
 332 -305 332 -305 219 -305 c 0,32,0
 189 -305 189 -305 150.5 -299.5 c 128,-1,1
EndSplineSet
EndChar

StartChar: sterling
Encoding: 163 163 293
Width: 1178
Flags: W
LayerCount: 2
Back
Fore
SplineSet
996 236 m 1,0,-1
 996 0 l 1,1,-1
 148 0 l 1,2,-1
 148 236 l 1,3,4
 254 267 254 267 292 351 c 128,-1,5
 330 435 330 435 330 529 c 2,6,-1
 330 608 l 1,7,-1
 169 608 l 1,8,-1
 169 826 l 1,9,-1
 330 826 l 1,10,-1
 330 1001 l 2,11,12
 330 1212 330 1212 433 1333 c 128,-1,13
 536 1454 536 1454 797 1454 c 0,14,15
 892 1454 892 1454 987 1419 c 1,16,-1
 971 1184 l 1,17,18
 881 1216 881 1216 810 1216 c 0,19,20
 735 1216 735 1216 694.5 1193.5 c 128,-1,21
 654 1171 654 1171 639 1127 c 128,-1,22
 624 1083 624 1083 624 1011 c 2,23,-1
 624 827 l 1,24,-1
 819 828 l 1,25,-1
 819 608 l 1,26,-1
 624 608 l 1,27,-1
 624 539 l 2,28,29
 624 467 624 467 588.5 385.5 c 128,-1,30
 553 304 553 304 480 236 c 1,31,-1
 996 236 l 1,0,-1
EndSplineSet
EndChar

StartChar: yen
Encoding: 165 165 294
Width: 1178
Flags: W
LayerCount: 2
Back
Fore
SplineSet
832 688 m 1,0,-1
 1057 688 l 1,1,-1
 1057 488 l 1,2,-1
 764 488 l 1,3,-1
 764 373 l 1,4,-1
 1057 373 l 1,5,-1
 1057 173 l 1,6,-1
 764 173 l 1,7,-1
 764 0 l 1,8,-1
 450 0 l 1,9,-1
 450 173 l 1,10,-1
 131 173 l 1,11,-1
 131 373 l 1,12,-1
 450 373 l 1,13,-1
 450 488 l 1,14,-1
 131 488 l 1,15,-1
 131 688 l 1,16,-1
 377 688 l 1,17,-1
 40 1434 l 1,18,-1
 395 1434 l 1,19,-1
 578 951 l 2,20,21
 587 928 587 928 613 843 c 1,22,-1
 616 843 l 1,23,24
 620 859 620 859 641 917 c 2,25,-1
 653 951 l 1,26,-1
 818 1434 l 1,27,-1
 1155 1434 l 1,28,-1
 832 688 l 1,0,-1
EndSplineSet
EndChar

StartChar: asciitilde
Encoding: 126 126 295
Width: 1448
Flags: W
LayerCount: 2
Back
Fore
SplineSet
238 545.5 m 128,-1,1
 277 641 277 641 347 692.5 c 128,-1,2
 417 744 417 744 512 744 c 0,3,4
 566 744 566 744 616 726 c 128,-1,5
 666 708 666 708 741 671 c 0,6,7
 804 640 804 640 843.5 625 c 128,-1,8
 883 610 883 610 920 610 c 0,9,10
 963 610 963 610 986 648 c 128,-1,11
 1009 686 1009 686 1011 752 c 1,12,-1
 1255 752 l 1,13,14
 1251 622 1251 622 1212 526.5 c 128,-1,15
 1173 431 1173 431 1104 379.5 c 128,-1,16
 1035 328 1035 328 942 328 c 0,17,18
 891 328 891 328 841.5 345.5 c 128,-1,19
 792 363 792 363 724 397 c 0,20,21
 662 428 662 428 620 443.5 c 128,-1,22
 578 459 578 459 538 459 c 0,23,24
 435 459 435 459 429 319 c 1,25,-1
 195 319 l 1,26,0
 199 450 199 450 238 545.5 c 128,-1,1
EndSplineSet
EndChar

StartChar: divide
Encoding: 247 247 296
Width: 1448
Flags: W
LayerCount: 2
Back
Fore
SplineSet
652.5 852 m 128,-1,1
 617 872 617 872 596.5 907 c 128,-1,2
 576 942 576 942 576 983 c 0,3,4
 576 1052 576 1052 619.5 1097 c 128,-1,5
 663 1142 663 1142 731 1142 c 256,6,7
 799 1142 799 1142 840.5 1098 c 128,-1,8
 882 1054 882 1054 882 985 c 0,9,10
 882 941 882 941 861.5 906.5 c 128,-1,11
 841 872 841 872 806.5 852 c 128,-1,12
 772 832 772 832 731 832 c 0,13,0
 688 832 688 832 652.5 852 c 128,-1,1
238 718 m 1,14,-1
 1212 718 l 1,15,-1
 1212 455 l 1,16,-1
 238 455 l 1,17,-1
 238 718 l 1,14,-1
648.5 52.5 m 128,-1,19
 613 72 613 72 592.5 106 c 128,-1,20
 572 140 572 140 572 181 c 0,21,22
 572 227 572 227 592 263.5 c 128,-1,23
 612 300 612 300 647 321 c 128,-1,24
 682 342 682 342 727 342 c 0,25,26
 795 342 795 342 836.5 298 c 128,-1,27
 878 254 878 254 878 184 c 0,28,29
 878 140 878 140 858 106 c 128,-1,30
 838 72 838 72 803.5 52.5 c 128,-1,31
 769 33 769 33 727 33 c 0,32,18
 684 33 684 33 648.5 52.5 c 128,-1,19
EndSplineSet
EndChar

StartChar: equal
Encoding: 61 61 297
Width: 1448
Flags: W
LayerCount: 2
Back
Fore
SplineSet
238 885 m 1,0,-1
 1212 885 l 1,1,-1
 1212 620 l 1,2,-1
 238 620 l 1,3,-1
 238 885 l 1,0,-1
238 429 m 1,4,-1
 1212 429 l 1,5,-1
 1212 166 l 1,6,-1
 238 166 l 1,7,-1
 238 429 l 1,4,-1
EndSplineSet
EndChar

StartChar: greater
Encoding: 62 62 298
Width: 1448
Flags: W
LayerCount: 2
Back
Fore
SplineSet
258 373 m 1,0,-1
 776 580 l 1,1,-1
 776 584 l 1,2,-1
 258 800 l 1,3,-1
 258 1108 l 1,4,-1
 1192 664 l 1,5,-1
 1192 502 l 1,6,-1
 258 76 l 1,7,-1
 258 373 l 1,0,-1
EndSplineSet
EndChar

StartChar: logicalnot
Encoding: 172 172 300
Width: 1448
Flags: W
LayerCount: 2
Back
Fore
SplineSet
920 565 m 1,0,-1
 238 565 l 1,1,-1
 238 858 l 1,2,-1
 1212 858 l 1,3,-1
 1212 246 l 1,4,-1
 920 246 l 1,5,-1
 920 565 l 1,0,-1
EndSplineSet
EndChar

StartChar: mu
Encoding: 181 181 301
Width: 1255
Flags: W
LayerCount: 2
Back
Fore
SplineSet
897 -39 m 1,0,1
 857 47 857 47 835 135 c 1,2,3
 822 102 822 102 784.5 66 c 128,-1,4
 747 30 747 30 681.5 4 c 128,-1,5
 616 -22 616 -22 527 -22 c 0,6,7
 488 -22 488 -22 446 -17 c 1,8,-1
 446 -396 l 1,9,-1
 131 -396 l 1,10,-1
 131 973 l 1,11,-1
 447 973 l 1,12,-1
 447 419 l 2,13,14
 447 324 447 324 484 267 c 128,-1,15
 521 210 521 210 623 210 c 0,16,17
 676 210 676 210 719 242 c 128,-1,18
 762 274 762 274 786.5 329.5 c 128,-1,19
 811 385 811 385 811 452 c 2,20,-1
 811 974 l 1,21,-1
 1120 974 l 1,22,-1
 1120 450 l 2,23,24
 1120 346 1120 346 1132 276 c 128,-1,25
 1144 206 1144 206 1162 160 c 128,-1,26
 1180 114 1180 114 1217 38 c 1,27,-1
 897 -39 l 1,0,1
EndSplineSet
EndChar

StartChar: multiply
Encoding: 215 215 302
Width: 1448
Flags: W
LayerCount: 2
Back
Fore
SplineSet
222 250 m 1,0,-1
 562 586 l 1,1,-1
 222 926 l 1,2,-1
 383 1091 l 1,3,-1
 727 751 l 1,4,-1
 1069 1091 l 1,5,-1
 1228 920 l 1,6,-1
 890 586 l 1,7,-1
 1230 248 l 1,8,-1
 1065 84 l 1,9,-1
 727 414 l 1,10,-1
 387 84 l 1,11,-1
 222 250 l 1,0,-1
EndSplineSet
EndChar

StartChar: percent
Encoding: 37 37 303
Width: 1776
Flags: W
LayerCount: 2
Back
Fore
SplineSet
291 -30 m 1,0,-1
 1222 1484 l 1,1,-1
 1456 1384 l 1,2,-1
 525 -130 l 1,3,-1
 291 -30 l 1,0,-1
256.5 791.5 m 128,-1,5
 179 836 179 836 134.5 913 c 128,-1,6
 90 990 90 990 90 1085 c 0,7,8
 90 1186 90 1186 138 1268 c 128,-1,9
 186 1350 186 1350 269.5 1397 c 128,-1,10
 353 1444 353 1444 455 1444 c 0,11,12
 550 1444 550 1444 627.5 1400.5 c 128,-1,13
 705 1357 705 1357 749 1281 c 128,-1,14
 793 1205 793 1205 793 1112 c 0,15,16
 793 1009 793 1009 745.5 926 c 128,-1,17
 698 843 698 843 615 795 c 128,-1,18
 532 747 532 747 430 747 c 0,19,4
 334 747 334 747 256.5 791.5 c 128,-1,5
507.5 1017.5 m 128,-1,21
 534 1052 534 1052 534 1103 c 0,22,23
 534 1148 534 1148 509.5 1178 c 128,-1,24
 485 1208 485 1208 449 1208 c 0,25,26
 408 1208 408 1208 380.5 1175.5 c 128,-1,27
 353 1143 353 1143 353 1095 c 256,28,29
 353 1047 353 1047 378.5 1015 c 128,-1,30
 404 983 404 983 442 983 c 0,31,20
 481 983 481 983 507.5 1017.5 c 128,-1,21
1146.5 34.5 m 128,-1,33
 1069 79 1069 79 1024.5 156 c 128,-1,34
 980 233 980 233 980 328 c 0,35,36
 980 429 980 429 1028 511 c 128,-1,37
 1076 593 1076 593 1159.5 640 c 128,-1,38
 1243 687 1243 687 1345 687 c 0,39,40
 1440 687 1440 687 1517.5 643.5 c 128,-1,41
 1595 600 1595 600 1639 524 c 128,-1,42
 1683 448 1683 448 1683 355 c 0,43,44
 1683 252 1683 252 1635.5 169 c 128,-1,45
 1588 86 1588 86 1505 38 c 128,-1,46
 1422 -10 1422 -10 1320 -10 c 0,47,32
 1224 -10 1224 -10 1146.5 34.5 c 128,-1,33
1397.5 260.5 m 128,-1,49
 1424 295 1424 295 1424 346 c 0,50,51
 1424 391 1424 391 1399.5 421 c 128,-1,52
 1375 451 1375 451 1339 451 c 0,53,54
 1298 451 1298 451 1270.5 418.5 c 128,-1,55
 1243 386 1243 386 1243 338 c 256,56,57
 1243 290 1243 290 1268.5 258 c 128,-1,58
 1294 226 1294 226 1332 226 c 0,59,48
 1371 226 1371 226 1397.5 260.5 c 128,-1,49
EndSplineSet
EndChar

StartChar: perthousand
Encoding: 8240 8240 304
Width: 2573
Flags: W
LayerCount: 2
Back
Fore
SplineSet
291 -30 m 1,0,-1
 1222 1484 l 1,1,-1
 1456 1384 l 1,2,-1
 525 -130 l 1,3,-1
 291 -30 l 1,0,-1
256.5 791.5 m 128,-1,5
 179 836 179 836 134.5 913 c 128,-1,6
 90 990 90 990 90 1085 c 0,7,8
 90 1186 90 1186 138 1268 c 128,-1,9
 186 1350 186 1350 269.5 1397 c 128,-1,10
 353 1444 353 1444 455 1444 c 0,11,12
 550 1444 550 1444 627.5 1400.5 c 128,-1,13
 705 1357 705 1357 749 1281 c 128,-1,14
 793 1205 793 1205 793 1112 c 0,15,16
 793 1009 793 1009 745.5 926 c 128,-1,17
 698 843 698 843 615 795 c 128,-1,18
 532 747 532 747 430 747 c 0,19,4
 334 747 334 747 256.5 791.5 c 128,-1,5
507.5 1017.5 m 128,-1,21
 534 1052 534 1052 534 1103 c 0,22,23
 534 1148 534 1148 509.5 1178 c 128,-1,24
 485 1208 485 1208 449 1208 c 0,25,26
 408 1208 408 1208 380.5 1175.5 c 128,-1,27
 353 1143 353 1143 353 1095 c 256,28,29
 353 1047 353 1047 378.5 1015 c 128,-1,30
 404 983 404 983 442 983 c 0,31,20
 481 983 481 983 507.5 1017.5 c 128,-1,21
1146.5 34.5 m 128,-1,33
 1069 79 1069 79 1024.5 156 c 128,-1,34
 980 233 980 233 980 328 c 0,35,36
 980 429 980 429 1028 511 c 128,-1,37
 1076 593 1076 593 1159.5 640 c 128,-1,38
 1243 687 1243 687 1345 687 c 0,39,40
 1440 687 1440 687 1517.5 643.5 c 128,-1,41
 1595 600 1595 600 1639 524 c 128,-1,42
 1683 448 1683 448 1683 355 c 0,43,44
 1683 252 1683 252 1635.5 169 c 128,-1,45
 1588 86 1588 86 1505 38 c 128,-1,46
 1422 -10 1422 -10 1320 -10 c 0,47,32
 1224 -10 1224 -10 1146.5 34.5 c 128,-1,33
1947.5 34.5 m 128,-1,49
 1870 79 1870 79 1825.5 156 c 128,-1,50
 1781 233 1781 233 1781 328 c 0,51,52
 1781 429 1781 429 1829 511 c 128,-1,53
 1877 593 1877 593 1960.5 640 c 128,-1,54
 2044 687 2044 687 2146 687 c 0,55,56
 2241 687 2241 687 2318.5 643.5 c 128,-1,57
 2396 600 2396 600 2440 524 c 128,-1,58
 2484 448 2484 448 2484 355 c 0,59,60
 2484 252 2484 252 2436.5 169 c 128,-1,61
 2389 86 2389 86 2306 38 c 128,-1,62
 2223 -10 2223 -10 2121 -10 c 0,63,48
 2025 -10 2025 -10 1947.5 34.5 c 128,-1,49
1397.5 260.5 m 128,-1,65
 1424 295 1424 295 1424 346 c 0,66,67
 1424 391 1424 391 1399.5 421 c 128,-1,68
 1375 451 1375 451 1339 451 c 0,69,70
 1298 451 1298 451 1270.5 418.5 c 128,-1,71
 1243 386 1243 386 1243 338 c 256,72,73
 1243 290 1243 290 1268.5 258 c 128,-1,74
 1294 226 1294 226 1332 226 c 0,75,64
 1371 226 1371 226 1397.5 260.5 c 128,-1,65
2198.5 260.5 m 128,-1,77
 2225 295 2225 295 2225 346 c 0,78,79
 2225 391 2225 391 2200.5 421 c 128,-1,80
 2176 451 2176 451 2140 451 c 0,81,82
 2099 451 2099 451 2071.5 418.5 c 128,-1,83
 2044 386 2044 386 2044 338 c 256,84,85
 2044 290 2044 290 2069.5 258 c 128,-1,86
 2095 226 2095 226 2133 226 c 0,87,76
 2172 226 2172 226 2198.5 260.5 c 128,-1,77
EndSplineSet
EndChar

StartChar: plus
Encoding: 43 43 305
Width: 1448
Flags: W
LayerCount: 2
Back
Fore
SplineSet
595 455 m 1,0,-1
 218 455 l 1,1,-1
 218 718 l 1,2,-1
 595 718 l 1,3,-1
 595 1095 l 1,4,-1
 857 1095 l 1,5,-1
 857 718 l 1,6,-1
 1232 718 l 1,7,-1
 1232 455 l 1,8,-1
 857 455 l 1,9,-1
 857 80 l 1,10,-1
 595 80 l 1,11,-1
 595 455 l 1,0,-1
EndSplineSet
EndChar

StartChar: plusminus
Encoding: 177 177 306
Width: 1448
Flags: W
LayerCount: 2
Back
Fore
SplineSet
595 674 m 1,0,-1
 218 674 l 1,1,-1
 218 937 l 1,2,-1
 595 937 l 1,3,-1
 595 1314 l 1,4,-1
 857 1314 l 1,5,-1
 857 937 l 1,6,-1
 1232 937 l 1,7,-1
 1232 674 l 1,8,-1
 857 674 l 1,9,-1
 857 299 l 1,10,-1
 595 299 l 1,11,-1
 595 674 l 1,0,-1
218 263 m 1,12,-1
 1230 263 l 1,13,-1
 1230 0 l 1,14,-1
 218 0 l 1,15,-1
 218 263 l 1,12,-1
EndSplineSet
EndChar

StartChar: bar
Encoding: 124 124 307
Width: 668
Flags: W
LayerCount: 2
Back
Fore
SplineSet
199 1567 m 1,0,-1
 471 1567 l 1,1,-1
 471 -481 l 1,2,-1
 199 -481 l 1,3,-1
 199 1567 l 1,0,-1
EndSplineSet
EndChar

